<ttFont>
<head>
    <!-- Most of this table will be recalculated by the compiler -->
    <tableVersion value="1.0"/>
    <fontRevision value="1.0"/>
    <checkSumAdjustment value="0x4a610f82"/>
    <magicNumber value="0x5f0f3cf5"/>
    <flags value="00000000 00011011"/>
    <unitsPerEm value="1000"/>
    <created value="Sat Dec  6 13:43:37 2025"/>
    <modified value="Sat Dec  6 13:50:13 2025"/>
    <xMin value="0"/>
    <yMin value="-250"/>
    <xMax value="1241"/>
    <yMax value="750"/>
    <macStyle value="00000000 00000010"/>
    <lowestRecPPEM value="6"/>
    <fontDirectionHint value="2"/>
    <indexToLocFormat value="0"/>
    <glyphDataFormat value="0"/>
  </head>
    <TTGlyph name="A" xMin="72" yMin="0" xMax="861" yMax="714">
      <contour>
        <pt x="604" y="692" on="1"/>
        <pt x="611" y="703" on="0"/>
        <pt x="624" y="714" on="0"/>
        <pt x="640" y="714" on="1"/>
        <pt x="657" y="714" on="0"/>
        <pt x="664" y="701" on="0"/>
        <pt x="666" y="687" on="1"/>
        <pt x="766" y="72" on="1"/>
        <pt x="768" y="63" on="0"/>
        <pt x="771" y="50" on="0"/>
        <pt x="784" y="43" on="0"/>
        <pt x="810" y="40" on="0"/>
        <pt x="833" y="40" on="1"/>
        <pt x="844" y="40" on="0"/>
        <pt x="861" y="36" on="0"/>
        <pt x="861" y="25" on="1"/>
        <pt x="861" y="6" on="0"/>
        <pt x="844" y="0" on="0"/>
        <pt x="839" y="0" on="1"/>
        <pt x="825" y="0" on="0"/>
        <pt x="793" y="3" on="0"/>
        <pt x="778" y="3" on="1"/>
        <pt x="763" y="3" on="0"/>
        <pt x="734" y="4" on="0"/>
        <pt x="719" y="4" on="1"/>
        <pt x="708" y="4" on="0"/>
        <pt x="672" y="3" on="0"/>
        <pt x="633" y="1" on="0"/>
        <pt x="597" y="0" on="0"/>
        <pt x="586" y="0" on="1"/>
        <pt x="577" y="0" on="0"/>
        <pt x="569" y="11" on="0"/>
        <pt x="569" y="15" on="1"/>
        <pt x="569" y="34" on="0"/>
        <pt x="588" y="40" on="0"/>
        <pt x="598" y="40" on="1"/>
        <pt x="602" y="40" on="0"/>
        <pt x="624" y="41" on="0"/>
        <pt x="648" y="46" on="0"/>
        <pt x="666" y="56" on="0"/>
        <pt x="666" y="66" on="1"/>
        <pt x="640" y="227" on="1"/>
        <pt x="339" y="227" on="1"/>
        <pt x="257" y="104" on="1"/>
        <pt x="255" y="99" on="0"/>
        <pt x="243" y="78" on="0"/>
        <pt x="243" y="69" on="1"/>
        <pt x="243" y="52" on="0"/>
        <pt x="271" y="41" on="0"/>
        <pt x="289" y="40" on="1"/>
        <pt x="291" y="40" on="0"/>
        <pt x="306" y="36" on="0"/>
        <pt x="306" y="25" on="1"/>
        <pt x="306" y="10" on="0"/>
        <pt x="292" y="0" on="0"/>
        <pt x="284" y="0" on="1"/>
        <pt x="275" y="0" on="0"/>
        <pt x="246" y="1" on="0"/>
        <pt x="215" y="3" on="0"/>
        <pt x="186" y="4" on="0"/>
        <pt x="177" y="4" on="1"/>
        <pt x="155" y="4" on="0"/>
        <pt x="108" y="0" on="0"/>
        <pt x="87" y="0" on="1"/>
        <pt x="82" y="0" on="0"/>
        <pt x="72" y="7" on="0"/>
        <pt x="72" y="15" on="1"/>
        <pt x="72" y="32" on="0"/>
        <pt x="87" y="39" on="0"/>
        <pt x="98" y="40" on="1"/>
        <pt x="140" y="43" on="0"/>
        <pt x="198" y="79" on="0"/>
        <pt x="226" y="122" on="1"/>
      </contour>
      <contour>
        <pt x="633" y="267" on="1"/>
        <pt x="581" y="592" on="1"/>
        <pt x="365" y="267" on="1"/>
      </contour>
    </TTGlyph>
    <TTGlyph name="B" xMin="87" yMin="0" xMax="885" yMax="683">
      <contour>
        <pt x="341" y="604" on="1"/>
        <pt x="344" y="616" on="0"/>
        <pt x="345" y="628" on="0"/>
        <pt x="345" y="636" on="1"/>
        <pt x="329" y="641" on="0"/>
        <pt x="295" y="643" on="0"/>
        <pt x="281" y="643" on="1"/>
        <pt x="267" y="643" on="0"/>
        <pt x="248" y="647" on="0"/>
        <pt x="248" y="658" on="1"/>
        <pt x="248" y="677" on="0"/>
        <pt x="268" y="683" on="0"/>
        <pt x="282" y="683" on="1"/>
        <pt x="665" y="683" on="1"/>
        <pt x="718" y="683" on="0"/>
        <pt x="800" y="659" on="0"/>
        <pt x="856" y="618" on="0"/>
        <pt x="885" y="567" on="0"/>
        <pt x="885" y="540" on="1"/>
        <pt x="885" y="506" on="0"/>
        <pt x="846" y="446" on="0"/>
        <pt x="781" y="398" on="0"/>
        <pt x="699" y="365" on="0"/>
        <pt x="656" y="358" on="1"/>
        <pt x="703" y="352" on="0"/>
        <pt x="771" y="322" on="0"/>
        <pt x="814" y="283" on="0"/>
        <pt x="835" y="236" on="0"/>
        <pt x="835" y="213" on="1"/>
        <pt x="835" y="176" on="0"/>
        <pt x="787" y="100" on="0"/>
        <pt x="704" y="38" on="0"/>
        <pt x="591" y="0" on="0"/>
        <pt x="526" y="0" on="1"/>
        <pt x="119" y="0" on="1"/>
        <pt x="104" y="0" on="0"/>
        <pt x="89" y="3" on="0"/>
        <pt x="87" y="14" on="1"/>
        <pt x="87" y="19" on="0"/>
        <pt x="92" y="34" on="0"/>
        <pt x="96" y="37" on="1"/>
        <pt x="99" y="39" on="0"/>
        <pt x="107" y="40" on="0"/>
        <pt x="124" y="40" on="1"/>
        <pt x="152" y="40" on="0"/>
        <pt x="184" y="43" on="0"/>
        <pt x="200" y="53" on="0"/>
        <pt x="207" y="70" on="0"/>
        <pt x="210" y="83" on="1"/>
      </contour>
      <contour>
        <pt x="556" y="372" on="1"/>
        <pt x="602" y="372" on="0"/>
        <pt x="685" y="401" on="0"/>
        <pt x="747" y="448" on="0"/>
        <pt x="783" y="507" on="0"/>
        <pt x="783" y="538" on="1"/>
        <pt x="783" y="554" on="0"/>
        <pt x="770" y="591" on="0"/>
        <pt x="740" y="622" on="0"/>
        <pt x="688" y="643" on="0"/>
        <pt x="649" y="643" on="1"/>
        <pt x="484" y="643" on="1"/>
        <pt x="468" y="643" on="0"/>
        <pt x="451" y="641" on="0"/>
        <pt x="441" y="635" on="0"/>
        <pt x="436" y="621" on="0"/>
        <pt x="433" y="609" on="1"/>
        <pt x="374" y="372" on="1"/>
      </contour>
      <contour>
        <pt x="500" y="40" on="1"/>
        <pt x="547" y="40" on="0"/>
        <pt x="630" y="69" on="0"/>
        <pt x="693" y="117" on="0"/>
        <pt x="730" y="182" on="0"/>
        <pt x="730" y="218" on="1"/>
        <pt x="730" y="233" on="0"/>
        <pt x="720" y="275" on="0"/>
        <pt x="688" y="312" on="0"/>
        <pt x="630" y="339" on="0"/>
        <pt x="583" y="339" on="1"/>
        <pt x="365" y="339" on="1"/>
        <pt x="293" y="43" on="1"/>
        <pt x="302" y="41" on="0"/>
        <pt x="312" y="40" on="0"/>
        <pt x="326" y="40" on="1"/>
      </contour>
    </TTGlyph>
    <TTGlyph name="C" xMin="85" yMin="-21" xMax="892" yMax="704">
      <contour>
        <pt x="830" y="437" on="1"/>
        <pt x="826" y="421" on="0"/>
        <pt x="817" y="415" on="0"/>
        <pt x="807" y="415" on="1"/>
        <pt x="803" y="415" on="0"/>
        <pt x="787" y="419" on="0"/>
        <pt x="787" y="430" on="1"/>
        <pt x="787" y="432" on="0"/>
        <pt x="790" y="454" on="0"/>
        <pt x="790" y="467" on="1"/>
        <pt x="790" y="506" on="0"/>
        <pt x="765" y="578" on="0"/>
        <pt x="716" y="632" on="0"/>
        <pt x="642" y="664" on="0"/>
        <pt x="594" y="664" on="1"/>
        <pt x="509" y="664" on="0"/>
        <pt x="361" y="593" on="0"/>
        <pt x="252" y="475" on="0"/>
        <pt x="190" y="322" on="0"/>
        <pt x="190" y="239" on="1"/>
        <pt x="190" y="192" on="0"/>
        <pt x="215" y="122" on="0"/>
        <pt x="255" y="73" on="0"/>
        <pt x="306" y="42" on="0"/>
        <pt x="359" y="25" on="0"/>
        <pt x="409" y="19" on="0"/>
        <pt x="427" y="19" on="1"/>
        <pt x="469" y="19" on="0"/>
        <pt x="564" y="45" on="0"/>
        <pt x="653" y="99" on="0"/>
        <pt x="725" y="183" on="0"/>
        <pt x="743" y="241" on="1"/>
        <pt x="745" y="249" on="0"/>
        <pt x="753" y="255" on="0"/>
        <pt x="762" y="255" on="1"/>
        <pt x="769" y="255" on="0"/>
        <pt x="780" y="249" on="0"/>
        <pt x="780" y="241" on="1"/>
        <pt x="780" y="239" on="0"/>
        <pt x="772" y="207" on="0"/>
        <pt x="747" y="158" on="0"/>
        <pt x="702" y="98" on="0"/>
        <pt x="665" y="68" on="1"/>
        <pt x="643" y="51" on="0"/>
        <pt x="587" y="19" on="0"/>
        <pt x="523" y="-6" on="0"/>
        <pt x="450" y="-21" on="0"/>
        <pt x="411" y="-21" on="1"/>
        <pt x="341" y="-21" on="0"/>
        <pt x="222" y="21" on="0"/>
        <pt x="135" y="96" on="0"/>
        <pt x="85" y="203" on="0"/>
        <pt x="85" y="267" on="1"/>
        <pt x="85" y="323" on="0"/>
        <pt x="124" y="431" on="0"/>
        <pt x="192" y="528" on="0"/>
        <pt x="286" y="610" on="0"/>
        <pt x="397" y="670" on="0"/>
        <pt x="521" y="704" on="0"/>
        <pt x="584" y="704" on="1"/>
        <pt x="638" y="704" on="0"/>
        <pt x="742" y="665" on="0"/>
        <pt x="783" y="614" on="1"/>
        <pt x="858" y="692" on="1"/>
        <pt x="866" y="700" on="0"/>
        <pt x="871" y="704" on="0"/>
        <pt x="877" y="704" on="1"/>
        <pt x="888" y="704" on="0"/>
        <pt x="892" y="692" on="0"/>
        <pt x="892" y="690" on="1"/>
        <pt x="892" y="689" on="0"/>
        <pt x="889" y="675" on="1"/>
      </contour>
    </TTGlyph>
    <TTGlyph name="D" xMin="86" yMin="0" xMax="944" yMax="683">
      <contour>
        <pt x="340" y="604" on="1"/>
        <pt x="343" y="616" on="0"/>
        <pt x="344" y="628" on="0"/>
        <pt x="344" y="636" on="1"/>
        <pt x="328" y="641" on="0"/>
        <pt x="294" y="643" on="0"/>
        <pt x="280" y="643" on="1"/>
        <pt x="266" y="643" on="0"/>
        <pt x="247" y="647" on="0"/>
        <pt x="247" y="658" on="1"/>
        <pt x="247" y="677" on="0"/>
        <pt x="266" y="683" on="0"/>
        <pt x="281" y="683" on="1"/>
        <pt x="664" y="683" on="1"/>
        <pt x="726" y="683" on="0"/>
        <pt x="828" y="645" on="0"/>
        <pt x="903" y="575" on="0"/>
        <pt x="944" y="477" on="0"/>
        <pt x="944" y="417" on="1"/>
        <pt x="944" y="362" on="0"/>
        <pt x="909" y="257" on="0"/>
        <pt x="846" y="165" on="0"/>
        <pt x="761" y="87" on="0"/>
        <pt x="661" y="31" on="0"/>
        <pt x="550" y="0" on="0"/>
        <pt x="494" y="0" on="1"/>
        <pt x="118" y="0" on="1"/>
        <pt x="103" y="0" on="0"/>
        <pt x="88" y="3" on="0"/>
        <pt x="86" y="14" on="1"/>
        <pt x="86" y="19" on="0"/>
        <pt x="91" y="34" on="0"/>
        <pt x="95" y="37" on="1"/>
        <pt x="98" y="39" on="0"/>
        <pt x="106" y="40" on="0"/>
        <pt x="123" y="40" on="1"/>
        <pt x="151" y="40" on="0"/>
        <pt x="183" y="43" on="0"/>
        <pt x="199" y="53" on="0"/>
        <pt x="206" y="70" on="0"/>
        <pt x="209" y="83" on="1"/>
      </contour>
      <contour>
        <pt x="295" y="43" on="1"/>
        <pt x="304" y="41" on="0"/>
        <pt x="314" y="40" on="0"/>
        <pt x="328" y="40" on="1"/>
        <pt x="476" y="40" on="1"/>
        <pt x="520" y="40" on="0"/>
        <pt x="597" y="58" on="0"/>
        <pt x="663" y="88" on="0"/>
        <pt x="717" y="128" on="0"/>
        <pt x="736" y="150" on="1"/>
        <pt x="772" y="190" on="0"/>
        <pt x="815" y="284" on="0"/>
        <pt x="838" y="370" on="0"/>
        <pt x="845" y="437" on="0"/>
        <pt x="845" y="449" on="1"/>
        <pt x="845" y="501" on="0"/>
        <pt x="809" y="574" on="0"/>
        <pt x="749" y="621" on="0"/>
        <pt x="670" y="643" on="0"/>
        <pt x="626" y="643" on="1"/>
        <pt x="486" y="643" on="1"/>
        <pt x="470" y="643" on="0"/>
        <pt x="452" y="641" on="0"/>
        <pt x="443" y="635" on="0"/>
        <pt x="438" y="621" on="0"/>
        <pt x="435" y="609" on="1"/>
      </contour>
    </TTGlyph>
    <TTGlyph name="E" xMin="85" yMin="0" xMax="888" yMax="679">
      <contour>
        <pt x="297" y="43" on="1"/>
        <pt x="306" y="41" on="0"/>
        <pt x="316" y="40" on="0"/>
        <pt x="330" y="40" on="1"/>
        <pt x="512" y="40" on="1"/>
        <pt x="577" y="40" on="0"/>
        <pt x="666" y="61" on="0"/>
        <pt x="730" y="108" on="0"/>
        <pt x="779" y="185" on="0"/>
        <pt x="804" y="241" on="1"/>
        <pt x="812" y="258" on="0"/>
        <pt x="819" y="267" on="0"/>
        <pt x="829" y="267" on="1"/>
        <pt x="832" y="267" on="0"/>
        <pt x="848" y="263" on="0"/>
        <pt x="848" y="252" on="1"/>
        <pt x="848" y="250" on="0"/>
        <pt x="835" y="218" on="0"/>
        <pt x="814" y="171" on="0"/>
        <pt x="789" y="116" on="0"/>
        <pt x="766" y="65" on="0"/>
        <pt x="749" y="27" on="0"/>
        <pt x="746" y="20" on="1"/>
        <pt x="741" y="11" on="0"/>
        <pt x="738" y="5" on="0"/>
        <pt x="736" y="3" on="1"/>
        <pt x="733" y="1" on="0"/>
        <pt x="725" y="0" on="0"/>
        <pt x="710" y="0" on="1"/>
        <pt x="116" y="0" on="1"/>
        <pt x="102" y="0" on="0"/>
        <pt x="85" y="4" on="0"/>
        <pt x="85" y="15" on="1"/>
        <pt x="85" y="34" on="0"/>
        <pt x="104" y="40" on="0"/>
        <pt x="121" y="40" on="1"/>
        <pt x="149" y="40" on="0"/>
        <pt x="181" y="43" on="0"/>
        <pt x="197" y="53" on="0"/>
        <pt x="204" y="70" on="0"/>
        <pt x="207" y="83" on="1"/>
        <pt x="337" y="600" on="1"/>
        <pt x="340" y="612" on="0"/>
        <pt x="341" y="624" on="0"/>
        <pt x="341" y="632" on="1"/>
        <pt x="325" y="637" on="0"/>
        <pt x="291" y="639" on="0"/>
        <pt x="277" y="639" on="1"/>
        <pt x="263" y="639" on="0"/>
        <pt x="245" y="643" on="0"/>
        <pt x="245" y="654" on="1"/>
        <pt x="245" y="673" on="0"/>
        <pt x="264" y="679" on="0"/>
        <pt x="278" y="679" on="1"/>
        <pt x="856" y="679" on="1"/>
        <pt x="875" y="679" on="0"/>
        <pt x="888" y="671" on="0"/>
        <pt x="886" y="648" on="1"/>
        <pt x="868" y="471" on="1"/>
        <pt x="866" y="457" on="0"/>
        <pt x="861" y="445" on="0"/>
        <pt x="849" y="445" on="1"/>
        <pt x="845" y="445" on="0"/>
        <pt x="830" y="449" on="0"/>
        <pt x="830" y="462" on="1"/>
        <pt x="830" y="475" on="0"/>
        <pt x="834" y="505" on="0"/>
        <pt x="834" y="519" on="1"/>
        <pt x="834" y="555" on="0"/>
        <pt x="817" y="602" on="0"/>
        <pt x="777" y="629" on="0"/>
        <pt x="711" y="639" on="0"/>
        <pt x="661" y="639" on="1"/>
        <pt x="487" y="639" on="1"/>
        <pt x="471" y="639" on="0"/>
        <pt x="454" y="637" on="0"/>
        <pt x="444" y="631" on="0"/>
        <pt x="439" y="617" on="0"/>
        <pt x="436" y="605" on="1"/>
        <pt x="378" y="372" on="1"/>
        <pt x="488" y="372" on="1"/>
        <pt x="523" y="372" on="0"/>
        <pt x="571" y="379" on="0"/>
        <pt x="602" y="400" on="0"/>
        <pt x="623" y="438" on="0"/>
        <pt x="631" y="469" on="1"/>
        <pt x="633" y="479" on="0"/>
        <pt x="640" y="489" on="0"/>
        <pt x="651" y="489" on="1"/>
        <pt x="664" y="489" on="0"/>
        <pt x="670" y="476" on="0"/>
        <pt x="670" y="475" on="1"/>
        <pt x="610" y="237" on="1"/>
        <pt x="607" y="224" on="0"/>
        <pt x="601" y="215" on="0"/>
        <pt x="590" y="215" on="1"/>
        <pt x="577" y="215" on="0"/>
        <pt x="571" y="228" on="0"/>
        <pt x="571" y="229" on="1"/>
        <pt x="576" y="244" on="0"/>
        <pt x="580" y="266" on="0"/>
        <pt x="580" y="284" on="1"/>
        <pt x="580" y="296" on="0"/>
        <pt x="576" y="314" on="0"/>
        <pt x="558" y="326" on="0"/>
        <pt x="520" y="332" on="0"/>
        <pt x="486" y="332" on="1"/>
        <pt x="367" y="332" on="1"/>
      </contour>
    </TTGlyph>
    <TTGlyph name="F" xMin="84" yMin="0" xMax="872" yMax="679">
      <contour>
        <pt x="304" y="79" on="1"/>
        <pt x="301" y="68" on="0"/>
        <pt x="300" y="59" on="0"/>
        <pt x="300" y="58" on="1"/>
        <pt x="300" y="50" on="0"/>
        <pt x="311" y="44" on="0"/>
        <pt x="334" y="42" on="1"/>
        <pt x="352" y="40" on="0"/>
        <pt x="384" y="40" on="0"/>
        <pt x="386" y="40" on="1"/>
        <pt x="405" y="40" on="0"/>
        <pt x="423" y="36" on="0"/>
        <pt x="423" y="25" on="1"/>
        <pt x="423" y="6" on="0"/>
        <pt x="404" y="0" on="0"/>
        <pt x="399" y="0" on="1"/>
        <pt x="381" y="0" on="0"/>
        <pt x="341" y="3" on="0"/>
        <pt x="323" y="3" on="1"/>
        <pt x="303" y="3" on="0"/>
        <pt x="260" y="4" on="0"/>
        <pt x="240" y="4" on="1"/>
        <pt x="222" y="4" on="0"/>
        <pt x="187" y="3" on="0"/>
        <pt x="169" y="3" on="1"/>
        <pt x="152" y="3" on="0"/>
        <pt x="118" y="0" on="0"/>
        <pt x="102" y="0" on="1"/>
        <pt x="90" y="0" on="0"/>
        <pt x="85" y="11" on="0"/>
        <pt x="84" y="14" on="1"/>
        <pt x="84" y="19" on="0"/>
        <pt x="89" y="34" on="0"/>
        <pt x="93" y="37" on="1"/>
        <pt x="96" y="39" on="0"/>
        <pt x="104" y="40" on="0"/>
        <pt x="121" y="40" on="1"/>
        <pt x="149" y="40" on="0"/>
        <pt x="181" y="43" on="0"/>
        <pt x="197" y="53" on="0"/>
        <pt x="204" y="70" on="0"/>
        <pt x="207" y="83" on="1"/>
        <pt x="337" y="600" on="1"/>
        <pt x="340" y="612" on="0"/>
        <pt x="341" y="624" on="0"/>
        <pt x="341" y="632" on="1"/>
        <pt x="325" y="637" on="0"/>
        <pt x="291" y="639" on="0"/>
        <pt x="277" y="639" on="1"/>
        <pt x="263" y="639" on="0"/>
        <pt x="244" y="643" on="0"/>
        <pt x="244" y="654" on="1"/>
        <pt x="244" y="673" on="0"/>
        <pt x="264" y="679" on="0"/>
        <pt x="278" y="679" on="1"/>
        <pt x="840" y="679" on="1"/>
        <pt x="859" y="679" on="0"/>
        <pt x="872" y="671" on="0"/>
        <pt x="870" y="648" on="1"/>
        <pt x="852" y="471" on="1"/>
        <pt x="850" y="457" on="0"/>
        <pt x="845" y="445" on="0"/>
        <pt x="833" y="445" on="1"/>
        <pt x="829" y="445" on="0"/>
        <pt x="814" y="449" on="0"/>
        <pt x="814" y="462" on="1"/>
        <pt x="814" y="463" on="0"/>
        <pt x="815" y="476" on="0"/>
        <pt x="817" y="494" on="0"/>
        <pt x="818" y="514" on="0"/>
        <pt x="818" y="522" on="1"/>
        <pt x="818" y="557" on="0"/>
        <pt x="803" y="602" on="0"/>
        <pt x="765" y="628" on="0"/>
        <pt x="700" y="639" on="0"/>
        <pt x="651" y="639" on="1"/>
        <pt x="487" y="639" on="1"/>
        <pt x="471" y="639" on="0"/>
        <pt x="454" y="637" on="0"/>
        <pt x="444" y="631" on="0"/>
        <pt x="439" y="617" on="0"/>
        <pt x="436" y="605" on="1"/>
        <pt x="375" y="360" on="1"/>
        <pt x="482" y="360" on="1"/>
        <pt x="517" y="360" on="0"/>
        <pt x="564" y="368" on="0"/>
        <pt x="594" y="390" on="0"/>
        <pt x="614" y="427" on="0"/>
        <pt x="622" y="457" on="1"/>
        <pt x="624" y="467" on="0"/>
        <pt x="631" y="477" on="0"/>
        <pt x="642" y="477" on="1"/>
        <pt x="655" y="477" on="0"/>
        <pt x="661" y="464" on="0"/>
        <pt x="661" y="463" on="1"/>
        <pt x="601" y="225" on="1"/>
        <pt x="598" y="212" on="0"/>
        <pt x="592" y="203" on="0"/>
        <pt x="581" y="203" on="1"/>
        <pt x="568" y="203" on="0"/>
        <pt x="562" y="216" on="0"/>
        <pt x="562" y="217" on="1"/>
        <pt x="565" y="228" on="0"/>
        <pt x="572" y="263" on="0"/>
        <pt x="572" y="274" on="1"/>
        <pt x="572" y="286" on="0"/>
        <pt x="565" y="304" on="0"/>
        <pt x="546" y="315" on="0"/>
        <pt x="509" y="320" on="0"/>
        <pt x="479" y="320" on="1"/>
        <pt x="364" y="320" on="1"/>
      </contour>
    </TTGlyph>
    <TTGlyph name="G" xMin="85" yMin="-21" xMax="893" yMax="704">
      <contour>
        <pt x="831" y="437" on="1"/>
        <pt x="827" y="421" on="0"/>
        <pt x="818" y="415" on="0"/>
        <pt x="808" y="415" on="1"/>
        <pt x="804" y="415" on="0"/>
        <pt x="788" y="419" on="0"/>
        <pt x="788" y="430" on="1"/>
        <pt x="788" y="432" on="0"/>
        <pt x="791" y="454" on="0"/>
        <pt x="791" y="467" on="1"/>
        <pt x="791" y="508" on="0"/>
        <pt x="765" y="579" on="0"/>
        <pt x="715" y="633" on="0"/>
        <pt x="642" y="664" on="0"/>
        <pt x="595" y="664" on="1"/>
        <pt x="541" y="664" on="0"/>
        <pt x="450" y="637" on="0"/>
        <pt x="378" y="599" on="0"/>
        <pt x="327" y="559" on="0"/>
        <pt x="315" y="546" on="1"/>
        <pt x="277" y="506" on="0"/>
        <pt x="229" y="419" on="0"/>
        <pt x="201" y="337" on="0"/>
        <pt x="190" y="265" on="0"/>
        <pt x="190" y="240" on="1"/>
        <pt x="190" y="177" on="0"/>
        <pt x="235" y="92" on="0"/>
        <pt x="307" y="41" on="0"/>
        <pt x="395" y="19" on="0"/>
        <pt x="438" y="19" on="1"/>
        <pt x="468" y="19" on="0"/>
        <pt x="538" y="28" on="0"/>
        <pt x="601" y="52" on="0"/>
        <pt x="648" y="96" on="0"/>
        <pt x="656" y="131" on="1"/>
        <pt x="657" y="136" on="0"/>
        <pt x="664" y="162" on="0"/>
        <pt x="671" y="191" on="0"/>
        <pt x="677" y="215" on="0"/>
        <pt x="677" y="217" on="1"/>
        <pt x="677" y="225" on="0"/>
        <pt x="667" y="233" on="0"/>
        <pt x="642" y="235" on="1"/>
        <pt x="628" y="236" on="0"/>
        <pt x="598" y="237" on="0"/>
        <pt x="584" y="237" on="1"/>
        <pt x="559" y="237" on="0"/>
        <pt x="543" y="240" on="0"/>
        <pt x="541" y="251" on="1"/>
        <pt x="541" y="254" on="0"/>
        <pt x="545" y="268" on="0"/>
        <pt x="547" y="270" on="1"/>
        <pt x="550" y="275" on="0"/>
        <pt x="560" y="277" on="0"/>
        <pt x="566" y="277" on="1"/>
        <pt x="586" y="277" on="0"/>
        <pt x="630" y="274" on="0"/>
        <pt x="650" y="274" on="1"/>
        <pt x="794" y="274" on="1"/>
        <pt x="808" y="274" on="0"/>
        <pt x="837" y="277" on="0"/>
        <pt x="851" y="277" on="1"/>
        <pt x="867" y="277" on="0"/>
        <pt x="867" y="262" on="1"/>
        <pt x="867" y="243" on="0"/>
        <pt x="850" y="237" on="0"/>
        <pt x="842" y="237" on="1"/>
        <pt x="820" y="237" on="0"/>
        <pt x="795" y="235" on="0"/>
        <pt x="782" y="228" on="0"/>
        <pt x="775" y="212" on="0"/>
        <pt x="771" y="197" on="1"/>
        <pt x="768" y="186" on="0"/>
        <pt x="763" y="164" on="0"/>
        <pt x="758" y="146" on="1"/>
        <pt x="756" y="138" on="0"/>
        <pt x="746" y="95" on="0"/>
        <pt x="734" y="48" on="0"/>
        <pt x="724" y="9" on="0"/>
        <pt x="722" y="6" on="1"/>
        <pt x="718" y="0" on="0"/>
        <pt x="711" y="0" on="1"/>
        <pt x="705" y="0" on="0"/>
        <pt x="690" y="14" on="0"/>
        <pt x="675" y="32" on="0"/>
        <pt x="663" y="51" on="0"/>
        <pt x="661" y="56" on="1"/>
        <pt x="637" y="32" on="0"/>
        <pt x="575" y="1" on="0"/>
        <pt x="508" y="-15" on="0"/>
        <pt x="442" y="-21" on="0"/>
        <pt x="415" y="-21" on="1"/>
        <pt x="338" y="-21" on="0"/>
        <pt x="216" y="24" on="0"/>
        <pt x="130" y="102" on="0"/>
        <pt x="85" y="207" on="0"/>
        <pt x="85" y="266" on="1"/>
        <pt x="85" y="323" on="0"/>
        <pt x="124" y="432" on="0"/>
        <pt x="193" y="529" on="0"/>
        <pt x="287" y="611" on="0"/>
        <pt x="398" y="671" on="0"/>
        <pt x="521" y="704" on="0"/>
        <pt x="584" y="704" on="1"/>
        <pt x="628" y="704" on="0"/>
        <pt x="692" y="686" on="0"/>
        <pt x="739" y="659" on="0"/>
        <pt x="770" y="630" on="0"/>
        <pt x="779" y="619" on="1"/>
        <pt x="784" y="616" on="0"/>
        <pt x="784" y="616" on="1"/>
        <pt x="786" y="616" on="0"/>
        <pt x="793" y="623" on="0"/>
        <pt x="794" y="624" on="1"/>
        <pt x="859" y="692" on="1"/>
        <pt x="867" y="700" on="0"/>
        <pt x="872" y="704" on="0"/>
        <pt x="878" y="704" on="1"/>
        <pt x="889" y="704" on="0"/>
        <pt x="893" y="692" on="0"/>
        <pt x="893" y="690" on="1"/>
        <pt x="893" y="689" on="0"/>
        <pt x="890" y="675" on="1"/>
      </contour>
    </TTGlyph>
    <TTGlyph name="Gamma" xMin="84" yMin="0" xMax="840" yMax="679">
      <contour>
        <pt x="303" y="79" on="1"/>
        <pt x="300" y="68" on="0"/>
        <pt x="299" y="59" on="0"/>
        <pt x="299" y="58" on="1"/>
        <pt x="299" y="50" on="0"/>
        <pt x="308" y="44" on="0"/>
        <pt x="331" y="42" on="1"/>
        <pt x="340" y="41" on="0"/>
        <pt x="353" y="40" on="0"/>
        <pt x="363" y="40" on="0"/>
        <pt x="375" y="40" on="0"/>
        <pt x="383" y="40" on="1"/>
        <pt x="403" y="40" on="0"/>
        <pt x="422" y="36" on="0"/>
        <pt x="422" y="25" on="1"/>
        <pt x="422" y="6" on="0"/>
        <pt x="403" y="0" on="0"/>
        <pt x="398" y="0" on="1"/>
        <pt x="380" y="0" on="0"/>
        <pt x="340" y="3" on="0"/>
        <pt x="322" y="3" on="1"/>
        <pt x="302" y="3" on="0"/>
        <pt x="259" y="4" on="0"/>
        <pt x="239" y="4" on="1"/>
        <pt x="221" y="4" on="0"/>
        <pt x="186" y="3" on="0"/>
        <pt x="168" y="3" on="1"/>
        <pt x="151" y="3" on="0"/>
        <pt x="117" y="0" on="0"/>
        <pt x="101" y="0" on="1"/>
        <pt x="93" y="0" on="0"/>
        <pt x="84" y="9" on="0"/>
        <pt x="84" y="15" on="1"/>
        <pt x="84" y="34" on="0"/>
        <pt x="103" y="40" on="0"/>
        <pt x="120" y="40" on="1"/>
        <pt x="148" y="40" on="0"/>
        <pt x="180" y="43" on="0"/>
        <pt x="196" y="53" on="0"/>
        <pt x="203" y="70" on="0"/>
        <pt x="206" y="83" on="1"/>
        <pt x="336" y="600" on="1"/>
        <pt x="339" y="612" on="0"/>
        <pt x="340" y="624" on="0"/>
        <pt x="340" y="632" on="1"/>
        <pt x="324" y="637" on="0"/>
        <pt x="290" y="639" on="0"/>
        <pt x="276" y="639" on="1"/>
        <pt x="262" y="639" on="0"/>
        <pt x="244" y="643" on="0"/>
        <pt x="244" y="654" on="1"/>
        <pt x="244" y="673" on="0"/>
        <pt x="263" y="679" on="0"/>
        <pt x="277" y="679" on="1"/>
        <pt x="808" y="679" on="1"/>
        <pt x="827" y="679" on="0"/>
        <pt x="840" y="671" on="0"/>
        <pt x="838" y="648" on="1"/>
        <pt x="820" y="471" on="1"/>
        <pt x="818" y="457" on="0"/>
        <pt x="813" y="445" on="0"/>
        <pt x="801" y="445" on="1"/>
        <pt x="797" y="445" on="0"/>
        <pt x="782" y="449" on="0"/>
        <pt x="782" y="462" on="1"/>
        <pt x="782" y="468" on="0"/>
        <pt x="786" y="498" on="0"/>
        <pt x="786" y="525" on="1"/>
        <pt x="786" y="556" on="0"/>
        <pt x="775" y="599" on="0"/>
        <pt x="741" y="626" on="0"/>
        <pt x="681" y="639" on="0"/>
        <pt x="631" y="639" on="1"/>
        <pt x="486" y="639" on="1"/>
        <pt x="470" y="639" on="0"/>
        <pt x="453" y="637" on="0"/>
        <pt x="443" y="631" on="0"/>
        <pt x="438" y="617" on="0"/>
        <pt x="435" y="605" on="1"/>
      </contour>
    </TTGlyph>
    <TTGlyph name="H" xMin="84" yMin="0" xMax="1009" yMax="683">
      <contour>
        <pt x="755" y="73" on="1"/>
        <pt x="751" y="60" on="0"/>
        <pt x="751" y="55" on="1"/>
        <pt x="751" y="47" on="0"/>
        <pt x="762" y="44" on="0"/>
        <pt x="776" y="42" on="1"/>
        <pt x="784" y="41" on="0"/>
        <pt x="805" y="40" on="0"/>
        <pt x="814" y="40" on="1"/>
        <pt x="831" y="40" on="0"/>
        <pt x="847" y="37" on="0"/>
        <pt x="849" y="26" on="1"/>
        <pt x="849" y="23" on="0"/>
        <pt x="845" y="9" on="0"/>
        <pt x="843" y="7" on="1"/>
        <pt x="840" y="2" on="0"/>
        <pt x="831" y="0" on="0"/>
        <pt x="826" y="0" on="1"/>
        <pt x="809" y="0" on="0"/>
        <pt x="774" y="3" on="0"/>
        <pt x="757" y="3" on="1"/>
        <pt x="740" y="3" on="0"/>
        <pt x="705" y="4" on="0"/>
        <pt x="688" y="4" on="1"/>
        <pt x="671" y="4" on="0"/>
        <pt x="638" y="3" on="0"/>
        <pt x="621" y="3" on="1"/>
        <pt x="604" y="3" on="0"/>
        <pt x="570" y="0" on="0"/>
        <pt x="554" y="0" on="1"/>
        <pt x="542" y="0" on="0"/>
        <pt x="537" y="11" on="0"/>
        <pt x="536" y="14" on="1"/>
        <pt x="536" y="18" on="0"/>
        <pt x="541" y="33" on="0"/>
        <pt x="544" y="36" on="1"/>
        <pt x="547" y="39" on="0"/>
        <pt x="554" y="40" on="0"/>
        <pt x="567" y="40" on="1"/>
        <pt x="596" y="40" on="0"/>
        <pt x="628" y="43" on="0"/>
        <pt x="645" y="49" on="0"/>
        <pt x="652" y="59" on="0"/>
        <pt x="655" y="66" on="1"/>
        <pt x="722" y="335" on="1"/>
        <pt x="368" y="335" on="1"/>
        <pt x="303" y="73" on="1"/>
        <pt x="299" y="60" on="0"/>
        <pt x="299" y="55" on="1"/>
        <pt x="299" y="47" on="0"/>
        <pt x="310" y="44" on="0"/>
        <pt x="324" y="42" on="1"/>
        <pt x="332" y="41" on="0"/>
        <pt x="353" y="40" on="0"/>
        <pt x="362" y="40" on="1"/>
        <pt x="379" y="40" on="0"/>
        <pt x="395" y="37" on="0"/>
        <pt x="397" y="26" on="1"/>
        <pt x="397" y="23" on="0"/>
        <pt x="393" y="9" on="0"/>
        <pt x="391" y="7" on="1"/>
        <pt x="388" y="2" on="0"/>
        <pt x="379" y="0" on="0"/>
        <pt x="374" y="0" on="1"/>
        <pt x="357" y="0" on="0"/>
        <pt x="322" y="3" on="0"/>
        <pt x="305" y="3" on="1"/>
        <pt x="288" y="3" on="0"/>
        <pt x="253" y="4" on="0"/>
        <pt x="236" y="4" on="1"/>
        <pt x="219" y="4" on="0"/>
        <pt x="186" y="3" on="0"/>
        <pt x="169" y="3" on="1"/>
        <pt x="152" y="3" on="0"/>
        <pt x="118" y="0" on="0"/>
        <pt x="102" y="0" on="1"/>
        <pt x="90" y="0" on="0"/>
        <pt x="85" y="11" on="0"/>
        <pt x="84" y="14" on="1"/>
        <pt x="84" y="19" on="0"/>
        <pt x="89" y="34" on="0"/>
        <pt x="93" y="37" on="1"/>
        <pt x="96" y="39" on="0"/>
        <pt x="104" y="40" on="0"/>
        <pt x="121" y="40" on="1"/>
        <pt x="149" y="40" on="0"/>
        <pt x="181" y="43" on="0"/>
        <pt x="197" y="53" on="0"/>
        <pt x="204" y="70" on="0"/>
        <pt x="207" y="83" on="1"/>
        <pt x="338" y="604" on="1"/>
        <pt x="341" y="616" on="0"/>
        <pt x="342" y="628" on="0"/>
        <pt x="342" y="636" on="1"/>
        <pt x="326" y="641" on="0"/>
        <pt x="292" y="643" on="0"/>
        <pt x="278" y="643" on="1"/>
        <pt x="264" y="643" on="0"/>
        <pt x="245" y="647" on="0"/>
        <pt x="245" y="658" on="1"/>
        <pt x="245" y="677" on="0"/>
        <pt x="263" y="683" on="0"/>
        <pt x="268" y="683" on="1"/>
        <pt x="285" y="683" on="0"/>
        <pt x="320" y="680" on="0"/>
        <pt x="337" y="680" on="1"/>
        <pt x="354" y="680" on="0"/>
        <pt x="389" y="679" on="0"/>
        <pt x="406" y="679" on="1"/>
        <pt x="423" y="679" on="0"/>
        <pt x="456" y="680" on="0"/>
        <pt x="473" y="680" on="1"/>
        <pt x="490" y="680" on="0"/>
        <pt x="524" y="683" on="0"/>
        <pt x="540" y="683" on="1"/>
        <pt x="557" y="683" on="0"/>
        <pt x="557" y="667" on="1"/>
        <pt x="557" y="649" on="0"/>
        <pt x="539" y="643" on="0"/>
        <pt x="525" y="643" on="1"/>
        <pt x="495" y="643" on="0"/>
        <pt x="462" y="639" on="0"/>
        <pt x="444" y="630" on="0"/>
        <pt x="438" y="614" on="0"/>
        <pt x="435" y="602" on="1"/>
        <pt x="378" y="375" on="1"/>
        <pt x="732" y="375" on="1"/>
        <pt x="790" y="604" on="1"/>
        <pt x="793" y="616" on="0"/>
        <pt x="794" y="628" on="0"/>
        <pt x="794" y="636" on="1"/>
        <pt x="778" y="641" on="0"/>
        <pt x="744" y="643" on="0"/>
        <pt x="730" y="643" on="1"/>
        <pt x="716" y="643" on="0"/>
        <pt x="697" y="647" on="0"/>
        <pt x="697" y="658" on="1"/>
        <pt x="697" y="677" on="0"/>
        <pt x="715" y="683" on="0"/>
        <pt x="720" y="683" on="1"/>
        <pt x="737" y="683" on="0"/>
        <pt x="772" y="680" on="0"/>
        <pt x="789" y="680" on="1"/>
        <pt x="806" y="680" on="0"/>
        <pt x="841" y="679" on="0"/>
        <pt x="858" y="679" on="1"/>
        <pt x="875" y="679" on="0"/>
        <pt x="908" y="680" on="0"/>
        <pt x="925" y="680" on="1"/>
        <pt x="942" y="680" on="0"/>
        <pt x="976" y="683" on="0"/>
        <pt x="992" y="683" on="1"/>
        <pt x="1009" y="683" on="0"/>
        <pt x="1009" y="667" on="1"/>
        <pt x="1009" y="649" on="0"/>
        <pt x="991" y="643" on="0"/>
        <pt x="977" y="643" on="1"/>
        <pt x="947" y="643" on="0"/>
        <pt x="914" y="639" on="0"/>
        <pt x="896" y="630" on="0"/>
        <pt x="890" y="614" on="0"/>
        <pt x="887" y="602" on="1"/>
      </contour>
    </TTGlyph>
    <TTGlyph name="I" xMin="78" yMin="0" xMax="561" yMax="683">
      <contour>
        <pt x="301" y="71" on="1"/>
        <pt x="299" y="64" on="0"/>
        <pt x="299" y="59" on="0"/>
        <pt x="299" y="54" on="1"/>
        <pt x="299" y="46" on="0"/>
        <pt x="311" y="44" on="0"/>
        <pt x="323" y="42" on="1"/>
        <pt x="338" y="40" on="0"/>
        <pt x="365" y="40" on="0"/>
        <pt x="366" y="40" on="1"/>
        <pt x="383" y="40" on="0"/>
        <pt x="399" y="37" on="0"/>
        <pt x="401" y="26" on="1"/>
        <pt x="401" y="24" on="0"/>
        <pt x="397" y="9" on="0"/>
        <pt x="395" y="6" on="1"/>
        <pt x="391" y="1" on="0"/>
        <pt x="382" y="0" on="0"/>
        <pt x="377" y="0" on="1"/>
        <pt x="361" y="0" on="0"/>
        <pt x="326" y="3" on="0"/>
        <pt x="309" y="3" on="1"/>
        <pt x="163" y="3" on="1"/>
        <pt x="147" y="3" on="0"/>
        <pt x="112" y="0" on="0"/>
        <pt x="96" y="0" on="1"/>
        <pt x="84" y="0" on="0"/>
        <pt x="79" y="11" on="0"/>
        <pt x="78" y="14" on="1"/>
        <pt x="78" y="19" on="0"/>
        <pt x="84" y="36" on="0"/>
        <pt x="89" y="38" on="1"/>
        <pt x="91" y="40" on="0"/>
        <pt x="100" y="40" on="0"/>
        <pt x="117" y="40" on="1"/>
        <pt x="146" y="40" on="0"/>
        <pt x="179" y="44" on="0"/>
        <pt x="196" y="53" on="0"/>
        <pt x="203" y="70" on="0"/>
        <pt x="206" y="82" on="1"/>
        <pt x="337" y="605" on="1"/>
        <pt x="340" y="616" on="0"/>
        <pt x="341" y="626" on="0"/>
        <pt x="341" y="627" on="1"/>
        <pt x="341" y="634" on="0"/>
        <pt x="334" y="639" on="0"/>
        <pt x="316" y="641" on="1"/>
        <pt x="301" y="643" on="0"/>
        <pt x="276" y="643" on="0"/>
        <pt x="273" y="643" on="1"/>
        <pt x="258" y="643" on="0"/>
        <pt x="239" y="647" on="0"/>
        <pt x="239" y="658" on="1"/>
        <pt x="239" y="677" on="0"/>
        <pt x="257" y="683" on="0"/>
        <pt x="262" y="683" on="1"/>
        <pt x="278" y="683" on="0"/>
        <pt x="313" y="680" on="0"/>
        <pt x="330" y="680" on="1"/>
        <pt x="404" y="679" on="1"/>
        <pt x="419" y="679" on="0"/>
        <pt x="455" y="680" on="0"/>
        <pt x="477" y="680" on="1"/>
        <pt x="493" y="680" on="0"/>
        <pt x="528" y="683" on="0"/>
        <pt x="544" y="683" on="1"/>
        <pt x="561" y="683" on="0"/>
        <pt x="561" y="667" on="1"/>
        <pt x="561" y="649" on="0"/>
        <pt x="542" y="643" on="0"/>
        <pt x="523" y="643" on="1"/>
        <pt x="494" y="643" on="0"/>
        <pt x="461" y="639" on="0"/>
        <pt x="444" y="630" on="0"/>
        <pt x="437" y="614" on="0"/>
        <pt x="434" y="601" on="1"/>
      </contour>
    </TTGlyph>
    <TTGlyph name="J" xMin="120" yMin="-21" xMax="727" yMax="683">
      <contour>
        <pt x="516" y="140" on="1"/>
        <pt x="507" y="105" on="0"/>
        <pt x="460" y="46" on="0"/>
        <pt x="394" y="3" on="0"/>
        <pt x="315" y="-21" on="0"/>
        <pt x="274" y="-21" on="1"/>
        <pt x="204" y="-21" on="0"/>
        <pt x="120" y="42" on="0"/>
        <pt x="120" y="90" on="1"/>
        <pt x="120" y="126" on="0"/>
        <pt x="160" y="169" on="0"/>
        <pt x="189" y="169" on="1"/>
        <pt x="212" y="169" on="0"/>
        <pt x="236" y="142" on="0"/>
        <pt x="236" y="125" on="1"/>
        <pt x="236" y="119" on="0"/>
        <pt x="231" y="98" on="0"/>
        <pt x="217" y="77" on="0"/>
        <pt x="190" y="60" on="0"/>
        <pt x="169" y="58" on="1"/>
        <pt x="179" y="42" on="0"/>
        <pt x="210" y="23" on="0"/>
        <pt x="241" y="14" on="0"/>
        <pt x="267" y="12" on="0"/>
        <pt x="272" y="12" on="1"/>
        <pt x="296" y="12" on="0"/>
        <pt x="343" y="32" on="0"/>
        <pt x="385" y="68" on="0"/>
        <pt x="417" y="119" on="0"/>
        <pt x="425" y="150" on="1"/>
        <pt x="539" y="606" on="1"/>
        <pt x="541" y="611" on="0"/>
        <pt x="543" y="621" on="0"/>
        <pt x="543" y="625" on="1"/>
        <pt x="543" y="635" on="0"/>
        <pt x="526" y="639" on="0"/>
        <pt x="509" y="641" on="1"/>
        <pt x="490" y="643" on="0"/>
        <pt x="469" y="643" on="0"/>
        <pt x="451" y="643" on="1"/>
        <pt x="431" y="643" on="0"/>
        <pt x="416" y="646" on="0"/>
        <pt x="414" y="657" on="1"/>
        <pt x="414" y="659" on="0"/>
        <pt x="418" y="674" on="0"/>
        <pt x="420" y="677" on="1"/>
        <pt x="424" y="682" on="0"/>
        <pt x="433" y="683" on="0"/>
        <pt x="438" y="683" on="1"/>
        <pt x="456" y="683" on="0"/>
        <pt x="496" y="681" on="0"/>
        <pt x="514" y="680" on="1"/>
        <pt x="534" y="679" on="0"/>
        <pt x="577" y="679" on="0"/>
        <pt x="597" y="679" on="1"/>
        <pt x="612" y="679" on="0"/>
        <pt x="641" y="680" on="0"/>
        <pt x="655" y="680" on="1"/>
        <pt x="669" y="680" on="0"/>
        <pt x="698" y="683" on="0"/>
        <pt x="712" y="683" on="1"/>
        <pt x="719" y="683" on="0"/>
        <pt x="727" y="673" on="0"/>
        <pt x="727" y="668" on="1"/>
        <pt x="727" y="649" on="0"/>
        <pt x="709" y="643" on="0"/>
        <pt x="697" y="643" on="1"/>
        <pt x="677" y="643" on="0"/>
        <pt x="654" y="640" on="0"/>
        <pt x="642" y="632" on="0"/>
        <pt x="636" y="617" on="0"/>
        <pt x="633" y="605" on="1"/>
      </contour>
    </TTGlyph>
    <TTGlyph name="K" xMin="85" yMin="0" xMax="1029" yMax="683">
      <contour>
        <pt x="789" y="77" on="1"/>
        <pt x="794" y="69" on="0"/>
        <pt x="803" y="55" on="0"/>
        <pt x="818" y="46" on="0"/>
        <pt x="842" y="40" on="0"/>
        <pt x="861" y="40" on="1"/>
        <pt x="867" y="40" on="0"/>
        <pt x="885" y="36" on="0"/>
        <pt x="885" y="25" on="1"/>
        <pt x="885" y="11" on="0"/>
        <pt x="871" y="0" on="0"/>
        <pt x="863" y="0" on="1"/>
        <pt x="851" y="0" on="0"/>
        <pt x="824" y="3" on="0"/>
        <pt x="811" y="3" on="1"/>
        <pt x="798" y="3" on="0"/>
        <pt x="773" y="4" on="0"/>
        <pt x="760" y="4" on="1"/>
        <pt x="749" y="4" on="0"/>
        <pt x="713" y="3" on="0"/>
        <pt x="675" y="1" on="0"/>
        <pt x="639" y="0" on="0"/>
        <pt x="628" y="0" on="1"/>
        <pt x="620" y="0" on="0"/>
        <pt x="611" y="9" on="0"/>
        <pt x="611" y="15" on="1"/>
        <pt x="611" y="34" on="0"/>
        <pt x="629" y="40" on="0"/>
        <pt x="638" y="40" on="1"/>
        <pt x="655" y="40" on="0"/>
        <pt x="673" y="46" on="0"/>
        <pt x="682" y="54" on="0"/>
        <pt x="683" y="64" on="0"/>
        <pt x="683" y="69" on="1"/>
        <pt x="519" y="361" on="1"/>
        <pt x="345" y="244" on="1"/>
        <pt x="341" y="226" on="0"/>
        <pt x="336" y="204" on="0"/>
        <pt x="331" y="185" on="0"/>
        <pt x="325" y="162" on="0"/>
        <pt x="320" y="142" on="1"/>
        <pt x="315" y="124" on="0"/>
        <pt x="313" y="112" on="0"/>
        <pt x="309" y="99" on="1"/>
        <pt x="307" y="88" on="0"/>
        <pt x="299" y="58" on="0"/>
        <pt x="299" y="55" on="1"/>
        <pt x="299" y="47" on="0"/>
        <pt x="310" y="44" on="0"/>
        <pt x="325" y="42" on="1"/>
        <pt x="339" y="40" on="0"/>
        <pt x="361" y="40" on="0"/>
        <pt x="363" y="40" on="1"/>
        <pt x="379" y="40" on="0"/>
        <pt x="396" y="36" on="0"/>
        <pt x="396" y="25" on="1"/>
        <pt x="396" y="6" on="0"/>
        <pt x="378" y="0" on="0"/>
        <pt x="373" y="0" on="1"/>
        <pt x="357" y="0" on="0"/>
        <pt x="322" y="3" on="0"/>
        <pt x="305" y="3" on="1"/>
        <pt x="288" y="3" on="0"/>
        <pt x="253" y="4" on="0"/>
        <pt x="236" y="4" on="1"/>
        <pt x="219" y="4" on="0"/>
        <pt x="186" y="3" on="0"/>
        <pt x="169" y="3" on="1"/>
        <pt x="152" y="3" on="0"/>
        <pt x="118" y="0" on="0"/>
        <pt x="102" y="0" on="1"/>
        <pt x="94" y="0" on="0"/>
        <pt x="85" y="9" on="0"/>
        <pt x="85" y="15" on="1"/>
        <pt x="85" y="34" on="0"/>
        <pt x="104" y="40" on="0"/>
        <pt x="121" y="40" on="1"/>
        <pt x="149" y="40" on="0"/>
        <pt x="181" y="43" on="0"/>
        <pt x="197" y="53" on="0"/>
        <pt x="204" y="70" on="0"/>
        <pt x="207" y="83" on="1"/>
        <pt x="338" y="604" on="1"/>
        <pt x="341" y="616" on="0"/>
        <pt x="342" y="628" on="0"/>
        <pt x="342" y="636" on="1"/>
        <pt x="326" y="641" on="0"/>
        <pt x="292" y="643" on="0"/>
        <pt x="278" y="643" on="1"/>
        <pt x="264" y="643" on="0"/>
        <pt x="246" y="647" on="0"/>
        <pt x="246" y="658" on="1"/>
        <pt x="246" y="677" on="0"/>
        <pt x="263" y="683" on="0"/>
        <pt x="268" y="683" on="1"/>
        <pt x="285" y="683" on="0"/>
        <pt x="320" y="680" on="0"/>
        <pt x="337" y="680" on="1"/>
        <pt x="354" y="680" on="0"/>
        <pt x="389" y="679" on="0"/>
        <pt x="406" y="679" on="1"/>
        <pt x="423" y="679" on="0"/>
        <pt x="456" y="680" on="0"/>
        <pt x="473" y="680" on="1"/>
        <pt x="490" y="680" on="0"/>
        <pt x="524" y="683" on="0"/>
        <pt x="540" y="683" on="1"/>
        <pt x="551" y="683" on="0"/>
        <pt x="557" y="672" on="0"/>
        <pt x="557" y="668" on="1"/>
        <pt x="557" y="649" on="0"/>
        <pt x="539" y="643" on="0"/>
        <pt x="525" y="643" on="1"/>
        <pt x="495" y="643" on="0"/>
        <pt x="462" y="639" on="0"/>
        <pt x="444" y="630" on="0"/>
        <pt x="438" y="614" on="0"/>
        <pt x="435" y="602" on="1"/>
        <pt x="357" y="291" on="1"/>
        <pt x="792" y="585" on="1"/>
        <pt x="794" y="587" on="0"/>
        <pt x="804" y="593" on="0"/>
        <pt x="805" y="594" on="1"/>
        <pt x="807" y="596" on="0"/>
        <pt x="810" y="598" on="1"/>
        <pt x="813" y="600" on="0"/>
        <pt x="835" y="620" on="0"/>
        <pt x="835" y="630" on="1"/>
        <pt x="835" y="634" on="0"/>
        <pt x="829" y="642" on="0"/>
        <pt x="812" y="643" on="1"/>
        <pt x="810" y="643" on="0"/>
        <pt x="795" y="647" on="0"/>
        <pt x="795" y="658" on="1"/>
        <pt x="795" y="677" on="0"/>
        <pt x="813" y="683" on="0"/>
        <pt x="818" y="683" on="1"/>
        <pt x="822" y="683" on="0"/>
        <pt x="838" y="682" on="0"/>
        <pt x="856" y="681" on="0"/>
        <pt x="873" y="680" on="0"/>
        <pt x="877" y="680" on="1"/>
        <pt x="888" y="679" on="0"/>
        <pt x="930" y="679" on="0"/>
        <pt x="941" y="679" on="1"/>
        <pt x="959" y="679" on="0"/>
        <pt x="998" y="682" on="0"/>
        <pt x="1015" y="682" on="1"/>
        <pt x="1021" y="682" on="0"/>
        <pt x="1029" y="673" on="0"/>
        <pt x="1029" y="668" on="1"/>
        <pt x="1029" y="651" on="0"/>
        <pt x="1014" y="644" on="0"/>
        <pt x="1006" y="643" on="1"/>
        <pt x="981" y="641" on="0"/>
        <pt x="937" y="628" on="0"/>
        <pt x="911" y="616" on="1"/>
        <pt x="890" y="606" on="0"/>
        <pt x="822" y="564" on="0"/>
        <pt x="742" y="511" on="0"/>
        <pt x="656" y="453" on="0"/>
        <pt x="618" y="427" on="1"/>
        <pt x="606" y="419" on="0"/>
        <pt x="601" y="415" on="0"/>
        <pt x="601" y="414" on="1"/>
        <pt x="601" y="413" on="0"/>
        <pt x="606" y="403" on="0"/>
        <pt x="607" y="402" on="1"/>
      </contour>
    </TTGlyph>
    <TTGlyph name="L" xMin="84" yMin="0" xMax="767" yMax="683">
      <contour>
        <pt x="296" y="43" on="1"/>
        <pt x="305" y="41" on="0"/>
        <pt x="315" y="40" on="0"/>
        <pt x="329" y="40" on="1"/>
        <pt x="452" y="40" on="1"/>
        <pt x="520" y="40" on="0"/>
        <pt x="610" y="73" on="0"/>
        <pt x="671" y="130" on="0"/>
        <pt x="710" y="206" on="0"/>
        <pt x="727" y="248" on="1"/>
        <pt x="731" y="257" on="0"/>
        <pt x="738" y="267" on="0"/>
        <pt x="748" y="267" on="1"/>
        <pt x="767" y="267" on="0"/>
        <pt x="767" y="251" on="1"/>
        <pt x="767" y="250" on="0"/>
        <pt x="755" y="218" on="0"/>
        <pt x="737" y="170" on="0"/>
        <pt x="716" y="115" on="0"/>
        <pt x="696" y="65" on="0"/>
        <pt x="681" y="26" on="0"/>
        <pt x="679" y="20" on="1"/>
        <pt x="676" y="13" on="0"/>
        <pt x="672" y="5" on="0"/>
        <pt x="666" y="1" on="0"/>
        <pt x="655" y="0" on="0"/>
        <pt x="645" y="0" on="1"/>
        <pt x="115" y="0" on="1"/>
        <pt x="101" y="0" on="0"/>
        <pt x="84" y="4" on="0"/>
        <pt x="84" y="15" on="1"/>
        <pt x="84" y="34" on="0"/>
        <pt x="103" y="40" on="0"/>
        <pt x="120" y="40" on="1"/>
        <pt x="148" y="40" on="0"/>
        <pt x="180" y="43" on="0"/>
        <pt x="196" y="53" on="0"/>
        <pt x="203" y="70" on="0"/>
        <pt x="206" y="83" on="1"/>
        <pt x="337" y="604" on="1"/>
        <pt x="340" y="616" on="0"/>
        <pt x="341" y="628" on="0"/>
        <pt x="341" y="636" on="1"/>
        <pt x="325" y="641" on="0"/>
        <pt x="291" y="643" on="0"/>
        <pt x="277" y="643" on="1"/>
        <pt x="263" y="643" on="0"/>
        <pt x="245" y="647" on="0"/>
        <pt x="245" y="658" on="1"/>
        <pt x="245" y="677" on="0"/>
        <pt x="262" y="683" on="0"/>
        <pt x="267" y="683" on="1"/>
        <pt x="284" y="683" on="0"/>
        <pt x="322" y="680" on="0"/>
        <pt x="339" y="680" on="1"/>
        <pt x="356" y="680" on="0"/>
        <pt x="391" y="679" on="0"/>
        <pt x="408" y="679" on="1"/>
        <pt x="428" y="679" on="0"/>
        <pt x="471" y="680" on="0"/>
        <pt x="491" y="680" on="1"/>
        <pt x="509" y="680" on="0"/>
        <pt x="547" y="683" on="0"/>
        <pt x="565" y="683" on="1"/>
        <pt x="576" y="683" on="0"/>
        <pt x="582" y="670" on="0"/>
        <pt x="582" y="668" on="1"/>
        <pt x="582" y="649" on="0"/>
        <pt x="564" y="643" on="0"/>
        <pt x="546" y="643" on="1"/>
        <pt x="508" y="643" on="0"/>
        <pt x="465" y="639" on="0"/>
        <pt x="444" y="630" on="0"/>
        <pt x="437" y="613" on="0"/>
        <pt x="434" y="601" on="1"/>
      </contour>
    </TTGlyph>
    <TTGlyph name="Lambda" xMin="71" yMin="0" xMax="797" yMax="714">
      <contour>
        <pt x="574" y="694" on="1"/>
        <pt x="580" y="703" on="0"/>
        <pt x="592" y="714" on="0"/>
        <pt x="607" y="714" on="1"/>
        <pt x="619" y="714" on="0"/>
        <pt x="631" y="706" on="0"/>
        <pt x="633" y="687" on="1"/>
        <pt x="714" y="73" on="1"/>
        <pt x="716" y="63" on="0"/>
        <pt x="719" y="50" on="0"/>
        <pt x="729" y="42" on="0"/>
        <pt x="751" y="40" on="0"/>
        <pt x="770" y="40" on="1"/>
        <pt x="780" y="40" on="0"/>
        <pt x="797" y="36" on="0"/>
        <pt x="797" y="25" on="1"/>
        <pt x="797" y="10" on="0"/>
        <pt x="783" y="0" on="0"/>
        <pt x="775" y="0" on="1"/>
        <pt x="762" y="0" on="0"/>
        <pt x="734" y="3" on="0"/>
        <pt x="721" y="3" on="1"/>
        <pt x="708" y="3" on="0"/>
        <pt x="694" y="3" on="0"/>
        <pt x="684" y="4" on="0"/>
        <pt x="673" y="4" on="0"/>
        <pt x="662" y="4" on="1"/>
        <pt x="645" y="4" on="0"/>
        <pt x="614" y="3" on="0"/>
        <pt x="597" y="3" on="1"/>
        <pt x="580" y="3" on="0"/>
        <pt x="546" y="0" on="0"/>
        <pt x="530" y="0" on="1"/>
        <pt x="518" y="0" on="0"/>
        <pt x="513" y="13" on="0"/>
        <pt x="513" y="15" on="1"/>
        <pt x="513" y="34" on="0"/>
        <pt x="531" y="40" on="0"/>
        <pt x="543" y="40" on="1"/>
        <pt x="548" y="40" on="0"/>
        <pt x="571" y="42" on="0"/>
        <pt x="594" y="47" on="0"/>
        <pt x="611" y="57" on="0"/>
        <pt x="611" y="66" on="1"/>
        <pt x="611" y="67" on="0"/>
        <pt x="611" y="72" on="0"/>
        <pt x="609" y="80" on="1"/>
        <pt x="543" y="578" on="1"/>
        <pt x="245" y="107" on="1"/>
        <pt x="241" y="102" on="0"/>
        <pt x="230" y="79" on="0"/>
        <pt x="230" y="70" on="1"/>
        <pt x="230" y="54" on="0"/>
        <pt x="257" y="42" on="0"/>
        <pt x="274" y="40" on="1"/>
        <pt x="279" y="40" on="0"/>
        <pt x="294" y="36" on="0"/>
        <pt x="294" y="25" on="1"/>
        <pt x="294" y="0" on="0"/>
        <pt x="273" y="0" on="1"/>
        <pt x="264" y="0" on="0"/>
        <pt x="235" y="1" on="0"/>
        <pt x="205" y="3" on="0"/>
        <pt x="176" y="4" on="0"/>
        <pt x="167" y="4" on="1"/>
        <pt x="147" y="4" on="0"/>
        <pt x="105" y="0" on="0"/>
        <pt x="86" y="0" on="1"/>
        <pt x="79" y="0" on="0"/>
        <pt x="71" y="9" on="0"/>
        <pt x="71" y="15" on="1"/>
        <pt x="71" y="32" on="0"/>
        <pt x="87" y="39" on="0"/>
        <pt x="97" y="40" on="1"/>
        <pt x="113" y="42" on="0"/>
        <pt x="141" y="50" on="0"/>
        <pt x="169" y="68" on="0"/>
        <pt x="197" y="98" on="0"/>
        <pt x="212" y="122" on="1"/>
      </contour>
    </TTGlyph>
    <TTGlyph name="M" xMin="89" yMin="0" xMax="1199" yMax="683">
      <contour>
        <pt x="945" y="73" on="1"/>
        <pt x="941" y="60" on="0"/>
        <pt x="941" y="55" on="1"/>
        <pt x="941" y="47" on="0"/>
        <pt x="952" y="44" on="0"/>
        <pt x="966" y="42" on="1"/>
        <pt x="974" y="41" on="0"/>
        <pt x="995" y="40" on="0"/>
        <pt x="1004" y="40" on="1"/>
        <pt x="1021" y="40" on="0"/>
        <pt x="1037" y="37" on="0"/>
        <pt x="1039" y="26" on="1"/>
        <pt x="1039" y="23" on="0"/>
        <pt x="1035" y="9" on="0"/>
        <pt x="1033" y="7" on="1"/>
        <pt x="1030" y="2" on="0"/>
        <pt x="1021" y="0" on="0"/>
        <pt x="1016" y="0" on="1"/>
        <pt x="1001" y="0" on="0"/>
        <pt x="967" y="3" on="0"/>
        <pt x="952" y="3" on="1"/>
        <pt x="883" y="4" on="1"/>
        <pt x="866" y="4" on="0"/>
        <pt x="833" y="3" on="0"/>
        <pt x="816" y="3" on="1"/>
        <pt x="801" y="3" on="0"/>
        <pt x="769" y="0" on="0"/>
        <pt x="754" y="0" on="1"/>
        <pt x="743" y="0" on="0"/>
        <pt x="738" y="11" on="0"/>
        <pt x="737" y="14" on="1"/>
        <pt x="737" y="19" on="0"/>
        <pt x="742" y="34" on="0"/>
        <pt x="746" y="37" on="1"/>
        <pt x="749" y="39" on="0"/>
        <pt x="757" y="40" on="0"/>
        <pt x="774" y="40" on="1"/>
        <pt x="802" y="40" on="0"/>
        <pt x="834" y="43" on="0"/>
        <pt x="850" y="53" on="0"/>
        <pt x="857" y="70" on="0"/>
        <pt x="860" y="83" on="1"/>
        <pt x="1000" y="642" on="1"/>
        <pt x="999" y="643" on="1"/>
        <pt x="565" y="21" on="1"/>
        <pt x="560" y="13" on="0"/>
        <pt x="546" y="0" on="0"/>
        <pt x="535" y="0" on="1"/>
        <pt x="523" y="0" on="0"/>
        <pt x="515" y="14" on="0"/>
        <pt x="512" y="28" on="1"/>
        <pt x="393" y="634" on="1"/>
        <pt x="392" y="634" on="1"/>
        <pt x="259" y="101" on="1"/>
        <pt x="257" y="93" on="0"/>
        <pt x="255" y="85" on="0"/>
        <pt x="255" y="80" on="1"/>
        <pt x="255" y="60" on="0"/>
        <pt x="286" y="41" on="0"/>
        <pt x="321" y="40" on="1"/>
        <pt x="330" y="40" on="0"/>
        <pt x="344" y="37" on="0"/>
        <pt x="346" y="26" on="1"/>
        <pt x="346" y="24" on="0"/>
        <pt x="345" y="16" on="0"/>
        <pt x="341" y="7" on="0"/>
        <pt x="332" y="0" on="0"/>
        <pt x="324" y="0" on="1"/>
        <pt x="311" y="0" on="0"/>
        <pt x="282" y="3" on="0"/>
        <pt x="268" y="3" on="1"/>
        <pt x="213" y="4" on="1"/>
        <pt x="204" y="4" on="0"/>
        <pt x="175" y="3" on="0"/>
        <pt x="144" y="1" on="0"/>
        <pt x="115" y="0" on="0"/>
        <pt x="106" y="0" on="1"/>
        <pt x="95" y="0" on="0"/>
        <pt x="90" y="11" on="0"/>
        <pt x="89" y="14" on="1"/>
        <pt x="89" y="39" on="0"/>
        <pt x="110" y="40" on="1"/>
        <pt x="140" y="41" on="0"/>
        <pt x="179" y="52" on="0"/>
        <pt x="203" y="70" on="0"/>
        <pt x="215" y="96" on="0"/>
        <pt x="219" y="111" on="1"/>
        <pt x="343" y="604" on="1"/>
        <pt x="346" y="616" on="0"/>
        <pt x="347" y="628" on="0"/>
        <pt x="347" y="636" on="1"/>
        <pt x="331" y="641" on="0"/>
        <pt x="297" y="643" on="0"/>
        <pt x="283" y="643" on="1"/>
        <pt x="269" y="643" on="0"/>
        <pt x="250" y="647" on="0"/>
        <pt x="250" y="658" on="1"/>
        <pt x="250" y="677" on="0"/>
        <pt x="269" y="683" on="0"/>
        <pt x="284" y="683" on="1"/>
        <pt x="434" y="683" on="1"/>
        <pt x="454" y="683" on="0"/>
        <pt x="467" y="676" on="0"/>
        <pt x="471" y="656" on="1"/>
        <pt x="582" y="92" on="1"/>
        <pt x="978" y="659" on="1"/>
        <pt x="984" y="668" on="0"/>
        <pt x="992" y="677" on="0"/>
        <pt x="1002" y="682" on="0"/>
        <pt x="1015" y="683" on="0"/>
        <pt x="1026" y="683" on="1"/>
        <pt x="1168" y="683" on="1"/>
        <pt x="1182" y="683" on="0"/>
        <pt x="1199" y="679" on="0"/>
        <pt x="1199" y="668" on="1"/>
        <pt x="1199" y="649" on="0"/>
        <pt x="1181" y="643" on="0"/>
        <pt x="1167" y="643" on="1"/>
        <pt x="1137" y="643" on="0"/>
        <pt x="1104" y="639" on="0"/>
        <pt x="1086" y="630" on="0"/>
        <pt x="1080" y="614" on="0"/>
        <pt x="1077" y="602" on="1"/>
      </contour>
    </TTGlyph>
    <TTGlyph name="N" xMin="84" yMin="0" xMax="1009" yMax="683">
      <contour>
        <pt x="742" y="23" on="1"/>
        <pt x="739" y="9" on="0"/>
        <pt x="732" y="0" on="0"/>
        <pt x="719" y="0" on="1"/>
        <pt x="708" y="0" on="0"/>
        <pt x="701" y="6" on="0"/>
        <pt x="696" y="17" on="1"/>
        <pt x="382" y="612" on="1"/>
        <pt x="254" y="101" on="1"/>
        <pt x="252" y="93" on="0"/>
        <pt x="250" y="85" on="0"/>
        <pt x="250" y="80" on="1"/>
        <pt x="250" y="60" on="0"/>
        <pt x="281" y="41" on="0"/>
        <pt x="316" y="40" on="1"/>
        <pt x="325" y="40" on="0"/>
        <pt x="339" y="37" on="0"/>
        <pt x="341" y="26" on="1"/>
        <pt x="341" y="24" on="0"/>
        <pt x="340" y="16" on="0"/>
        <pt x="336" y="7" on="0"/>
        <pt x="327" y="0" on="0"/>
        <pt x="319" y="0" on="1"/>
        <pt x="306" y="0" on="0"/>
        <pt x="277" y="3" on="0"/>
        <pt x="263" y="3" on="1"/>
        <pt x="208" y="4" on="1"/>
        <pt x="199" y="4" on="0"/>
        <pt x="170" y="3" on="0"/>
        <pt x="139" y="1" on="0"/>
        <pt x="110" y="0" on="0"/>
        <pt x="101" y="0" on="1"/>
        <pt x="90" y="0" on="0"/>
        <pt x="85" y="11" on="0"/>
        <pt x="84" y="14" on="1"/>
        <pt x="84" y="40" on="0"/>
        <pt x="106" y="40" on="1"/>
        <pt x="137" y="41" on="0"/>
        <pt x="176" y="53" on="0"/>
        <pt x="199" y="72" on="0"/>
        <pt x="210" y="97" on="0"/>
        <pt x="214" y="111" on="1"/>
        <pt x="346" y="638" on="1"/>
        <pt x="328" y="642" on="0"/>
        <pt x="287" y="643" on="0"/>
        <pt x="282" y="643" on="1"/>
        <pt x="265" y="643" on="0"/>
        <pt x="245" y="647" on="0"/>
        <pt x="245" y="658" on="1"/>
        <pt x="245" y="677" on="0"/>
        <pt x="265" y="683" on="0"/>
        <pt x="279" y="683" on="1"/>
        <pt x="423" y="683" on="1"/>
        <pt x="441" y="683" on="0"/>
        <pt x="451" y="678" on="0"/>
        <pt x="458" y="665" on="1"/>
        <pt x="731" y="148" on="1"/>
        <pt x="841" y="587" on="1"/>
        <pt x="842" y="592" on="0"/>
        <pt x="843" y="600" on="0"/>
        <pt x="843" y="603" on="1"/>
        <pt x="843" y="623" on="0"/>
        <pt x="812" y="642" on="0"/>
        <pt x="777" y="643" on="1"/>
        <pt x="771" y="643" on="0"/>
        <pt x="753" y="647" on="0"/>
        <pt x="753" y="658" on="1"/>
        <pt x="753" y="667" on="0"/>
        <pt x="762" y="683" on="0"/>
        <pt x="775" y="683" on="1"/>
        <pt x="788" y="683" on="0"/>
        <pt x="817" y="680" on="0"/>
        <pt x="831" y="680" on="1"/>
        <pt x="886" y="679" on="1"/>
        <pt x="895" y="679" on="0"/>
        <pt x="924" y="680" on="0"/>
        <pt x="955" y="682" on="0"/>
        <pt x="984" y="683" on="0"/>
        <pt x="993" y="683" on="1"/>
        <pt x="1009" y="683" on="0"/>
        <pt x="1009" y="667" on="1"/>
        <pt x="1009" y="650" on="0"/>
        <pt x="992" y="643" on="0"/>
        <pt x="987" y="643" on="1"/>
        <pt x="959" y="642" on="0"/>
        <pt x="921" y="632" on="0"/>
        <pt x="897" y="614" on="0"/>
        <pt x="884" y="589" on="0"/>
        <pt x="880" y="573" on="1"/>
      </contour>
    </TTGlyph>
    <TTGlyph name="O" xMin="83" yMin="-21" xMax="880" yMax="704">
      <contour>
        <pt x="880" y="422" on="1"/>
        <pt x="880" y="336" on="0"/>
        <pt x="797" y="176" on="0"/>
        <pt x="660" y="53" on="0"/>
        <pt x="485" y="-21" on="0"/>
        <pt x="392" y="-21" on="1"/>
        <pt x="321" y="-21" on="0"/>
        <pt x="207" y="22" on="0"/>
        <pt x="126" y="97" on="0"/>
        <pt x="83" y="199" on="0"/>
        <pt x="83" y="258" on="1"/>
        <pt x="83" y="313" on="0"/>
        <pt x="120" y="422" on="0"/>
        <pt x="187" y="521" on="0"/>
        <pt x="278" y="606" on="0"/>
        <pt x="387" y="668" on="0"/>
        <pt x="509" y="704" on="0"/>
        <pt x="572" y="704" on="1"/>
        <pt x="641" y="704" on="0"/>
        <pt x="755" y="662" on="0"/>
        <pt x="836" y="587" on="0"/>
        <pt x="880" y="483" on="0"/>
      </contour>
      <contour>
        <pt x="402" y="17" on="1"/>
        <pt x="470" y="17" on="0"/>
        <pt x="607" y="84" on="0"/>
        <pt x="660" y="145" on="1"/>
        <pt x="695" y="186" on="0"/>
        <pt x="740" y="275" on="0"/>
        <pt x="767" y="358" on="0"/>
        <pt x="778" y="429" on="0"/>
        <pt x="778" y="453" on="1"/>
        <pt x="778" y="510" on="0"/>
        <pt x="741" y="591" on="0"/>
        <pt x="681" y="644" on="0"/>
        <pt x="604" y="668" on="0"/>
        <pt x="564" y="668" on="1"/>
        <pt x="481" y="668" on="0"/>
        <pt x="343" y="593" on="0"/>
        <pt x="245" y="471" on="0"/>
        <pt x="191" y="319" on="0"/>
        <pt x="191" y="241" on="1"/>
        <pt x="191" y="185" on="0"/>
        <pt x="225" y="101" on="0"/>
        <pt x="282" y="45" on="0"/>
        <pt x="359" y="17" on="0"/>
      </contour>
    </TTGlyph>
    <TTGlyph name="P" xMin="87" yMin="0" xMax="879" yMax="683">
      <contour>
        <pt x="305" y="73" on="1"/>
        <pt x="301" y="60" on="0"/>
        <pt x="301" y="55" on="1"/>
        <pt x="301" y="47" on="0"/>
        <pt x="312" y="44" on="0"/>
        <pt x="327" y="42" on="1"/>
        <pt x="341" y="40" on="0"/>
        <pt x="363" y="40" on="0"/>
        <pt x="365" y="40" on="1"/>
        <pt x="381" y="40" on="0"/>
        <pt x="398" y="36" on="0"/>
        <pt x="398" y="25" on="1"/>
        <pt x="398" y="6" on="0"/>
        <pt x="380" y="0" on="0"/>
        <pt x="375" y="0" on="1"/>
        <pt x="359" y="0" on="0"/>
        <pt x="324" y="3" on="0"/>
        <pt x="307" y="3" on="1"/>
        <pt x="171" y="3" on="1"/>
        <pt x="154" y="3" on="0"/>
        <pt x="120" y="0" on="0"/>
        <pt x="104" y="0" on="1"/>
        <pt x="96" y="0" on="0"/>
        <pt x="87" y="9" on="0"/>
        <pt x="87" y="15" on="1"/>
        <pt x="87" y="34" on="0"/>
        <pt x="106" y="40" on="0"/>
        <pt x="123" y="40" on="1"/>
        <pt x="151" y="40" on="0"/>
        <pt x="183" y="43" on="0"/>
        <pt x="199" y="53" on="0"/>
        <pt x="206" y="70" on="0"/>
        <pt x="209" y="83" on="1"/>
        <pt x="340" y="604" on="1"/>
        <pt x="343" y="616" on="0"/>
        <pt x="344" y="628" on="0"/>
        <pt x="344" y="636" on="1"/>
        <pt x="328" y="641" on="0"/>
        <pt x="294" y="643" on="0"/>
        <pt x="280" y="643" on="1"/>
        <pt x="266" y="643" on="0"/>
        <pt x="248" y="647" on="0"/>
        <pt x="248" y="658" on="1"/>
        <pt x="248" y="677" on="0"/>
        <pt x="267" y="683" on="0"/>
        <pt x="281" y="683" on="1"/>
        <pt x="649" y="683" on="1"/>
        <pt x="701" y="683" on="0"/>
        <pt x="786" y="658" on="0"/>
        <pt x="846" y="616" on="0"/>
        <pt x="879" y="558" on="0"/>
        <pt x="879" y="525" on="1"/>
        <pt x="879" y="480" on="0"/>
        <pt x="822" y="400" on="0"/>
        <pt x="732" y="340" on="0"/>
        <pt x="620" y="306" on="0"/>
        <pt x="564" y="306" on="1"/>
        <pt x="363" y="306" on="1"/>
      </contour>
      <contour>
        <pt x="368" y="342" on="1"/>
        <pt x="539" y="342" on="1"/>
        <pt x="582" y="342" on="0"/>
        <pt x="670" y="361" on="0"/>
        <pt x="704" y="387" on="1"/>
        <pt x="725" y="403" on="0"/>
        <pt x="752" y="447" on="0"/>
        <pt x="767" y="492" on="0"/>
        <pt x="773" y="532" on="0"/>
        <pt x="773" y="543" on="1"/>
        <pt x="773" y="572" on="0"/>
        <pt x="749" y="610" on="0"/>
        <pt x="707" y="633" on="0"/>
        <pt x="649" y="643" on="0"/>
        <pt x="615" y="643" on="1"/>
        <pt x="486" y="643" on="1"/>
        <pt x="470" y="643" on="0"/>
        <pt x="453" y="641" on="0"/>
        <pt x="443" y="635" on="0"/>
        <pt x="438" y="621" on="0"/>
        <pt x="435" y="609" on="1"/>
      </contour>
    </TTGlyph>
    <TTGlyph name="Phi" xMin="57" yMin="0" xMax="775" yMax="683">
      <contour>
        <pt x="511" y="539" on="1"/>
        <pt x="565" y="536" on="0"/>
        <pt x="661" y="509" on="0"/>
        <pt x="733" y="464" on="0"/>
        <pt x="775" y="405" on="0"/>
        <pt x="775" y="370" on="1"/>
        <pt x="775" y="325" on="0"/>
        <pt x="712" y="246" on="0"/>
        <pt x="609" y="185" on="0"/>
        <pt x="479" y="147" on="0"/>
        <pt x="412" y="144" on="1"/>
        <pt x="410" y="133" on="0"/>
        <pt x="403" y="104" on="0"/>
        <pt x="402" y="100" on="1"/>
        <pt x="395" y="75" on="0"/>
        <pt x="392" y="62" on="0"/>
        <pt x="392" y="58" on="1"/>
        <pt x="392" y="50" on="0"/>
        <pt x="403" y="44" on="0"/>
        <pt x="426" y="42" on="1"/>
        <pt x="444" y="40" on="0"/>
        <pt x="476" y="40" on="0"/>
        <pt x="478" y="40" on="1"/>
        <pt x="497" y="40" on="0"/>
        <pt x="515" y="36" on="0"/>
        <pt x="515" y="25" on="1"/>
        <pt x="515" y="6" on="0"/>
        <pt x="496" y="0" on="0"/>
        <pt x="491" y="0" on="1"/>
        <pt x="473" y="0" on="0"/>
        <pt x="434" y="3" on="0"/>
        <pt x="415" y="3" on="1"/>
        <pt x="332" y="4" on="1"/>
        <pt x="311" y="4" on="0"/>
        <pt x="270" y="3" on="0"/>
        <pt x="249" y="3" on="1"/>
        <pt x="231" y="3" on="0"/>
        <pt x="193" y="0" on="0"/>
        <pt x="175" y="0" on="1"/>
        <pt x="167" y="0" on="0"/>
        <pt x="157" y="7" on="0"/>
        <pt x="157" y="15" on="1"/>
        <pt x="157" y="34" on="0"/>
        <pt x="176" y="40" on="0"/>
        <pt x="195" y="40" on="1"/>
        <pt x="229" y="40" on="0"/>
        <pt x="268" y="43" on="0"/>
        <pt x="290" y="50" on="0"/>
        <pt x="299" y="60" on="0"/>
        <pt x="302" y="67" on="1"/>
        <pt x="303" y="69" on="0"/>
        <pt x="307" y="86" on="0"/>
        <pt x="313" y="109" on="0"/>
        <pt x="319" y="134" on="0"/>
        <pt x="321" y="143" on="1"/>
        <pt x="257" y="148" on="0"/>
        <pt x="159" y="180" on="0"/>
        <pt x="92" y="226" on="0"/>
        <pt x="57" y="283" on="0"/>
        <pt x="57" y="313" on="1"/>
        <pt x="57" y="357" on="0"/>
        <pt x="117" y="435" on="0"/>
        <pt x="218" y="496" on="0"/>
        <pt x="350" y="535" on="0"/>
        <pt x="421" y="540" on="1"/>
        <pt x="428" y="571" on="0"/>
        <pt x="436" y="604" on="0"/>
        <pt x="440" y="621" on="0"/>
        <pt x="441" y="624" on="0"/>
        <pt x="441" y="625" on="1"/>
        <pt x="441" y="635" on="0"/>
        <pt x="426" y="639" on="0"/>
        <pt x="406" y="641" on="1"/>
        <pt x="389" y="643" on="0"/>
        <pt x="358" y="643" on="0"/>
        <pt x="354" y="643" on="1"/>
        <pt x="335" y="643" on="0"/>
        <pt x="318" y="647" on="0"/>
        <pt x="318" y="658" on="1"/>
        <pt x="318" y="677" on="0"/>
        <pt x="336" y="683" on="0"/>
        <pt x="342" y="683" on="1"/>
        <pt x="360" y="683" on="0"/>
        <pt x="399" y="680" on="0"/>
        <pt x="418" y="680" on="1"/>
        <pt x="584" y="680" on="1"/>
        <pt x="602" y="680" on="0"/>
        <pt x="640" y="683" on="0"/>
        <pt x="658" y="683" on="1"/>
        <pt x="669" y="683" on="0"/>
        <pt x="676" y="671" on="0"/>
        <pt x="676" y="668" on="1"/>
        <pt x="676" y="649" on="0"/>
        <pt x="657" y="643" on="0"/>
        <pt x="638" y="643" on="1"/>
        <pt x="606" y="643" on="0"/>
        <pt x="567" y="640" on="0"/>
        <pt x="558" y="638" on="1"/>
        <pt x="541" y="635" on="0"/>
        <pt x="530" y="614" on="0"/>
        <pt x="524" y="591" on="1"/>
      </contour>
      <contour>
        <pt x="412" y="506" on="1"/>
        <pt x="340" y="502" on="0"/>
        <pt x="244" y="459" on="0"/>
        <pt x="185" y="399" on="0"/>
        <pt x="160" y="331" on="0"/>
        <pt x="160" y="302" on="1"/>
        <pt x="160" y="252" on="0"/>
        <pt x="219" y="199" on="0"/>
        <pt x="266" y="187" on="1"/>
        <pt x="290" y="180" on="0"/>
        <pt x="323" y="177" on="0"/>
        <pt x="324" y="177" on="1"/>
        <pt x="328" y="177" on="0"/>
        <pt x="331" y="181" on="1"/>
        <pt x="333" y="192" on="1"/>
      </contour>
      <contour>
        <pt x="421" y="177" on="1"/>
        <pt x="490" y="181" on="0"/>
        <pt x="585" y="222" on="0"/>
        <pt x="644" y="280" on="0"/>
        <pt x="671" y="349" on="0"/>
        <pt x="671" y="380" on="1"/>
        <pt x="671" y="416" on="0"/>
        <pt x="641" y="463" on="0"/>
        <pt x="593" y="491" on="0"/>
        <pt x="533" y="504" on="0"/>
        <pt x="503" y="506" on="1"/>
      </contour>
    </TTGlyph>
    <TTGlyph name="Pi" xMin="84" yMin="0" xMax="1008" yMax="679">
      <contour>
        <pt x="755" y="73" on="1"/>
        <pt x="751" y="60" on="0"/>
        <pt x="751" y="55" on="1"/>
        <pt x="751" y="47" on="0"/>
        <pt x="762" y="44" on="0"/>
        <pt x="776" y="42" on="1"/>
        <pt x="784" y="41" on="0"/>
        <pt x="805" y="40" on="0"/>
        <pt x="814" y="40" on="1"/>
        <pt x="831" y="40" on="0"/>
        <pt x="847" y="37" on="0"/>
        <pt x="849" y="26" on="1"/>
        <pt x="849" y="23" on="0"/>
        <pt x="845" y="9" on="0"/>
        <pt x="843" y="7" on="1"/>
        <pt x="840" y="2" on="0"/>
        <pt x="831" y="0" on="0"/>
        <pt x="826" y="0" on="1"/>
        <pt x="809" y="0" on="0"/>
        <pt x="774" y="3" on="0"/>
        <pt x="757" y="3" on="1"/>
        <pt x="740" y="3" on="0"/>
        <pt x="705" y="4" on="0"/>
        <pt x="688" y="4" on="1"/>
        <pt x="671" y="4" on="0"/>
        <pt x="638" y="3" on="0"/>
        <pt x="621" y="3" on="1"/>
        <pt x="604" y="3" on="0"/>
        <pt x="570" y="0" on="0"/>
        <pt x="554" y="0" on="1"/>
        <pt x="542" y="0" on="0"/>
        <pt x="537" y="11" on="0"/>
        <pt x="536" y="14" on="1"/>
        <pt x="536" y="19" on="0"/>
        <pt x="541" y="34" on="0"/>
        <pt x="545" y="37" on="1"/>
        <pt x="548" y="39" on="0"/>
        <pt x="556" y="40" on="0"/>
        <pt x="573" y="40" on="1"/>
        <pt x="601" y="40" on="0"/>
        <pt x="633" y="43" on="0"/>
        <pt x="649" y="53" on="0"/>
        <pt x="656" y="70" on="0"/>
        <pt x="659" y="83" on="1"/>
        <pt x="798" y="639" on="1"/>
        <pt x="444" y="639" on="1"/>
        <pt x="303" y="73" on="1"/>
        <pt x="299" y="60" on="0"/>
        <pt x="299" y="55" on="1"/>
        <pt x="299" y="47" on="0"/>
        <pt x="310" y="44" on="0"/>
        <pt x="324" y="42" on="1"/>
        <pt x="332" y="41" on="0"/>
        <pt x="353" y="40" on="0"/>
        <pt x="362" y="40" on="1"/>
        <pt x="379" y="40" on="0"/>
        <pt x="395" y="37" on="0"/>
        <pt x="397" y="26" on="1"/>
        <pt x="397" y="23" on="0"/>
        <pt x="393" y="9" on="0"/>
        <pt x="391" y="7" on="1"/>
        <pt x="388" y="2" on="0"/>
        <pt x="379" y="0" on="0"/>
        <pt x="374" y="0" on="1"/>
        <pt x="357" y="0" on="0"/>
        <pt x="322" y="3" on="0"/>
        <pt x="305" y="3" on="1"/>
        <pt x="288" y="3" on="0"/>
        <pt x="253" y="4" on="0"/>
        <pt x="236" y="4" on="1"/>
        <pt x="219" y="4" on="0"/>
        <pt x="186" y="3" on="0"/>
        <pt x="169" y="3" on="1"/>
        <pt x="152" y="3" on="0"/>
        <pt x="118" y="0" on="0"/>
        <pt x="102" y="0" on="1"/>
        <pt x="90" y="0" on="0"/>
        <pt x="85" y="11" on="0"/>
        <pt x="84" y="14" on="1"/>
        <pt x="84" y="19" on="0"/>
        <pt x="89" y="34" on="0"/>
        <pt x="93" y="37" on="1"/>
        <pt x="96" y="39" on="0"/>
        <pt x="104" y="40" on="0"/>
        <pt x="121" y="40" on="1"/>
        <pt x="149" y="40" on="0"/>
        <pt x="181" y="43" on="0"/>
        <pt x="197" y="53" on="0"/>
        <pt x="204" y="70" on="0"/>
        <pt x="207" y="83" on="1"/>
        <pt x="337" y="600" on="1"/>
        <pt x="340" y="612" on="0"/>
        <pt x="341" y="624" on="0"/>
        <pt x="341" y="632" on="1"/>
        <pt x="325" y="637" on="0"/>
        <pt x="291" y="639" on="0"/>
        <pt x="277" y="639" on="1"/>
        <pt x="263" y="639" on="0"/>
        <pt x="244" y="643" on="0"/>
        <pt x="244" y="654" on="1"/>
        <pt x="244" y="673" on="0"/>
        <pt x="264" y="679" on="0"/>
        <pt x="278" y="679" on="1"/>
        <pt x="977" y="679" on="1"/>
        <pt x="991" y="679" on="0"/>
        <pt x="1008" y="675" on="0"/>
        <pt x="1008" y="663" on="1"/>
        <pt x="1008" y="645" on="0"/>
        <pt x="989" y="639" on="0"/>
        <pt x="970" y="639" on="1"/>
        <pt x="942" y="639" on="0"/>
        <pt x="911" y="635" on="0"/>
        <pt x="895" y="625" on="0"/>
        <pt x="888" y="608" on="0"/>
        <pt x="885" y="594" on="1"/>
      </contour>
    </TTGlyph>
    <TTGlyph name="Psi" xMin="57" yMin="0" xMax="834" yMax="683">
      <contour>
        <pt x="403" y="180" on="1"/>
        <pt x="447" y="187" on="0"/>
        <pt x="519" y="226" on="0"/>
        <pt x="574" y="284" on="0"/>
        <pt x="614" y="358" on="0"/>
        <pt x="625" y="399" on="1"/>
        <pt x="632" y="424" on="0"/>
        <pt x="653" y="478" on="0"/>
        <pt x="686" y="522" on="0"/>
        <pt x="734" y="550" on="0"/>
        <pt x="769" y="550" on="1"/>
        <pt x="802" y="550" on="1"/>
        <pt x="815" y="550" on="0"/>
        <pt x="834" y="546" on="0"/>
        <pt x="834" y="535" on="1"/>
        <pt x="834" y="524" on="0"/>
        <pt x="821" y="518" on="0"/>
        <pt x="813" y="517" on="1"/>
        <pt x="788" y="513" on="0"/>
        <pt x="754" y="482" on="0"/>
        <pt x="732" y="447" on="0"/>
        <pt x="721" y="418" on="0"/>
        <pt x="721" y="417" on="1"/>
        <pt x="715" y="397" on="0"/>
        <pt x="700" y="349" on="0"/>
        <pt x="673" y="298" on="0"/>
        <pt x="633" y="245" on="0"/>
        <pt x="602" y="220" on="1"/>
        <pt x="566" y="191" on="0"/>
        <pt x="461" y="149" on="0"/>
        <pt x="393" y="144" on="1"/>
        <pt x="391" y="133" on="0"/>
        <pt x="384" y="104" on="0"/>
        <pt x="383" y="100" on="1"/>
        <pt x="376" y="75" on="0"/>
        <pt x="373" y="62" on="0"/>
        <pt x="373" y="58" on="1"/>
        <pt x="373" y="50" on="0"/>
        <pt x="384" y="44" on="0"/>
        <pt x="407" y="42" on="1"/>
        <pt x="425" y="40" on="0"/>
        <pt x="457" y="40" on="0"/>
        <pt x="459" y="40" on="1"/>
        <pt x="478" y="40" on="0"/>
        <pt x="496" y="36" on="0"/>
        <pt x="496" y="25" on="1"/>
        <pt x="496" y="6" on="0"/>
        <pt x="477" y="0" on="0"/>
        <pt x="472" y="0" on="1"/>
        <pt x="454" y="0" on="0"/>
        <pt x="415" y="3" on="0"/>
        <pt x="396" y="3" on="1"/>
        <pt x="313" y="4" on="1"/>
        <pt x="292" y="4" on="0"/>
        <pt x="251" y="3" on="0"/>
        <pt x="230" y="3" on="1"/>
        <pt x="212" y="3" on="0"/>
        <pt x="174" y="0" on="0"/>
        <pt x="156" y="0" on="1"/>
        <pt x="148" y="0" on="0"/>
        <pt x="138" y="7" on="0"/>
        <pt x="138" y="15" on="1"/>
        <pt x="138" y="34" on="0"/>
        <pt x="157" y="40" on="0"/>
        <pt x="176" y="40" on="1"/>
        <pt x="211" y="40" on="0"/>
        <pt x="251" y="43" on="0"/>
        <pt x="272" y="50" on="0"/>
        <pt x="281" y="61" on="0"/>
        <pt x="284" y="69" on="1"/>
        <pt x="302" y="144" on="1"/>
        <pt x="267" y="147" on="0"/>
        <pt x="195" y="169" on="0"/>
        <pt x="137" y="214" on="0"/>
        <pt x="101" y="286" on="0"/>
        <pt x="101" y="338" on="1"/>
        <pt x="101" y="360" on="0"/>
        <pt x="106" y="395" on="0"/>
        <pt x="111" y="414" on="1"/>
        <pt x="115" y="430" on="0"/>
        <pt x="116" y="448" on="0"/>
        <pt x="116" y="454" on="1"/>
        <pt x="116" y="476" on="0"/>
        <pt x="107" y="501" on="0"/>
        <pt x="93" y="513" on="0"/>
        <pt x="79" y="517" on="0"/>
        <pt x="74" y="517" on="1"/>
        <pt x="70" y="517" on="0"/>
        <pt x="57" y="522" on="0"/>
        <pt x="57" y="532" on="1"/>
        <pt x="57" y="546" on="0"/>
        <pt x="75" y="550" on="0"/>
        <pt x="89" y="550" on="1"/>
        <pt x="123" y="550" on="1"/>
        <pt x="130" y="550" on="0"/>
        <pt x="158" y="547" on="0"/>
        <pt x="186" y="530" on="0"/>
        <pt x="207" y="492" on="0"/>
        <pt x="207" y="457" on="1"/>
        <pt x="207" y="440" on="0"/>
        <pt x="201" y="411" on="0"/>
        <pt x="199" y="403" on="1"/>
        <pt x="191" y="371" on="0"/>
        <pt x="189" y="333" on="0"/>
        <pt x="189" y="323" on="1"/>
        <pt x="189" y="313" on="0"/>
        <pt x="193" y="269" on="0"/>
        <pt x="216" y="223" on="0"/>
        <pt x="265" y="184" on="0"/>
        <pt x="311" y="178" on="1"/>
        <pt x="418" y="606" on="1"/>
        <pt x="419" y="611" on="0"/>
        <pt x="422" y="622" on="0"/>
        <pt x="422" y="625" on="1"/>
        <pt x="422" y="635" on="0"/>
        <pt x="407" y="639" on="0"/>
        <pt x="387" y="641" on="1"/>
        <pt x="370" y="643" on="0"/>
        <pt x="339" y="643" on="0"/>
        <pt x="335" y="643" on="1"/>
        <pt x="316" y="643" on="0"/>
        <pt x="299" y="647" on="0"/>
        <pt x="299" y="658" on="1"/>
        <pt x="299" y="677" on="0"/>
        <pt x="317" y="683" on="0"/>
        <pt x="323" y="683" on="1"/>
        <pt x="341" y="683" on="0"/>
        <pt x="380" y="680" on="0"/>
        <pt x="399" y="680" on="1"/>
        <pt x="565" y="680" on="1"/>
        <pt x="583" y="680" on="0"/>
        <pt x="621" y="683" on="0"/>
        <pt x="639" y="683" on="1"/>
        <pt x="650" y="683" on="0"/>
        <pt x="657" y="671" on="0"/>
        <pt x="657" y="668" on="1"/>
        <pt x="657" y="649" on="0"/>
        <pt x="638" y="643" on="0"/>
        <pt x="620" y="643" on="1"/>
        <pt x="582" y="643" on="0"/>
        <pt x="539" y="639" on="0"/>
        <pt x="518" y="630" on="0"/>
        <pt x="511" y="614" on="0"/>
        <pt x="508" y="601" on="1"/>
      </contour>
    </TTGlyph>
    <TTGlyph name="Q" xMin="83" yMin="-194" xMax="880" yMax="704">
      <contour>
        <pt x="550" y="7" on="1"/>
        <pt x="558" y="-19" on="0"/>
        <pt x="573" y="-55" on="0"/>
        <pt x="592" y="-76" on="0"/>
        <pt x="617" y="-85" on="0"/>
        <pt x="633" y="-85" on="1"/>
        <pt x="650" y="-85" on="0"/>
        <pt x="689" y="-75" on="0"/>
        <pt x="724" y="-54" on="0"/>
        <pt x="753" y="-22" on="0"/>
        <pt x="760" y="-1" on="1"/>
        <pt x="762" y="5" on="0"/>
        <pt x="768" y="15" on="0"/>
        <pt x="776" y="15" on="1"/>
        <pt x="782" y="15" on="0"/>
        <pt x="791" y="6" on="0"/>
        <pt x="791" y="0" on="1"/>
        <pt x="791" y="-6" on="0"/>
        <pt x="781" y="-40" on="0"/>
        <pt x="760" y="-83" on="0"/>
        <pt x="729" y="-130" on="0"/>
        <pt x="688" y="-169" on="0"/>
        <pt x="636" y="-194" on="0"/>
        <pt x="605" y="-194" on="1"/>
        <pt x="573" y="-194" on="0"/>
        <pt x="533" y="-168" on="0"/>
        <pt x="511" y="-124" on="0"/>
        <pt x="503" y="-66" on="0"/>
        <pt x="503" y="-34" on="1"/>
        <pt x="503" y="-15" on="0"/>
        <pt x="501" y="-8" on="0"/>
        <pt x="499" y="-8" on="1"/>
        <pt x="497" y="-8" on="0"/>
        <pt x="491" y="-10" on="0"/>
        <pt x="489" y="-10" on="1"/>
        <pt x="442" y="-21" on="0"/>
        <pt x="392" y="-21" on="1"/>
        <pt x="321" y="-21" on="0"/>
        <pt x="207" y="22" on="0"/>
        <pt x="126" y="97" on="0"/>
        <pt x="83" y="199" on="0"/>
        <pt x="83" y="258" on="1"/>
        <pt x="83" y="313" on="0"/>
        <pt x="120" y="422" on="0"/>
        <pt x="187" y="521" on="0"/>
        <pt x="278" y="606" on="0"/>
        <pt x="387" y="668" on="0"/>
        <pt x="509" y="704" on="0"/>
        <pt x="572" y="704" on="1"/>
        <pt x="641" y="704" on="0"/>
        <pt x="755" y="662" on="0"/>
        <pt x="836" y="587" on="0"/>
        <pt x="880" y="483" on="0"/>
        <pt x="880" y="422" on="1"/>
        <pt x="880" y="353" on="0"/>
        <pt x="827" y="224" on="0"/>
        <pt x="736" y="114" on="0"/>
        <pt x="616" y="31" on="0"/>
      </contour>
      <contour>
        <pt x="318" y="29" on="1"/>
        <pt x="316" y="33" on="0"/>
        <pt x="315" y="46" on="0"/>
        <pt x="315" y="51" on="1"/>
        <pt x="315" y="72" on="0"/>
        <pt x="335" y="110" on="0"/>
        <pt x="368" y="137" on="0"/>
        <pt x="410" y="153" on="0"/>
        <pt x="432" y="153" on="1"/>
        <pt x="478" y="153" on="0"/>
        <pt x="525" y="95" on="0"/>
        <pt x="540" y="48" on="1"/>
        <pt x="590" y="72" on="0"/>
        <pt x="665" y="139" on="0"/>
        <pt x="718" y="213" on="0"/>
        <pt x="752" y="291" on="0"/>
        <pt x="772" y="363" on="0"/>
        <pt x="779" y="425" on="0"/>
        <pt x="779" y="445" on="1"/>
        <pt x="779" y="501" on="0"/>
        <pt x="745" y="585" on="0"/>
        <pt x="686" y="640" on="0"/>
        <pt x="607" y="668" on="0"/>
        <pt x="563" y="668" on="1"/>
        <pt x="483" y="668" on="0"/>
        <pt x="345" y="592" on="0"/>
        <pt x="243" y="470" on="0"/>
        <pt x="185" y="315" on="0"/>
        <pt x="185" y="235" on="1"/>
        <pt x="185" y="151" on="0"/>
        <pt x="260" y="49" on="0"/>
      </contour>
      <contour>
        <pt x="500" y="32" on="1"/>
        <pt x="496" y="78" on="0"/>
        <pt x="466" y="120" on="0"/>
        <pt x="431" y="120" on="1"/>
        <pt x="416" y="120" on="0"/>
        <pt x="386" y="109" on="0"/>
        <pt x="362" y="91" on="0"/>
        <pt x="348" y="66" on="0"/>
        <pt x="348" y="52" on="1"/>
        <pt x="348" y="38" on="0"/>
        <pt x="361" y="23" on="0"/>
        <pt x="378" y="16" on="0"/>
        <pt x="396" y="15" on="0"/>
        <pt x="401" y="15" on="1"/>
        <pt x="418" y="15" on="0"/>
        <pt x="470" y="21" on="0"/>
      </contour>
    </TTGlyph>
    <TTGlyph name="R" xMin="86" yMin="-21" xMax="903" yMax="683">
      <contour>
        <pt x="372" y="358" on="1"/>
        <pt x="512" y="358" on="1"/>
        <pt x="563" y="358" on="0"/>
        <pt x="644" y="376" on="0"/>
        <pt x="673" y="393" on="1"/>
        <pt x="699" y="408" on="0"/>
        <pt x="732" y="447" on="0"/>
        <pt x="750" y="488" on="0"/>
        <pt x="757" y="526" on="0"/>
        <pt x="757" y="539" on="1"/>
        <pt x="757" y="569" on="0"/>
        <pt x="731" y="609" on="0"/>
        <pt x="685" y="633" on="0"/>
        <pt x="622" y="643" on="0"/>
        <pt x="584" y="643" on="1"/>
        <pt x="486" y="643" on="1"/>
        <pt x="470" y="643" on="0"/>
        <pt x="453" y="641" on="0"/>
        <pt x="443" y="635" on="0"/>
        <pt x="438" y="621" on="0"/>
        <pt x="435" y="609" on="1"/>
      </contour>
      <contour>
        <pt x="640" y="340" on="1"/>
        <pt x="656" y="334" on="0"/>
        <pt x="690" y="315" on="0"/>
        <pt x="717" y="287" on="0"/>
        <pt x="735" y="249" on="0"/>
        <pt x="735" y="224" on="1"/>
        <pt x="735" y="218" on="0"/>
        <pt x="732" y="193" on="0"/>
        <pt x="731" y="185" on="1"/>
        <pt x="730" y="175" on="0"/>
        <pt x="726" y="147" on="0"/>
        <pt x="723" y="117" on="0"/>
        <pt x="721" y="90" on="0"/>
        <pt x="721" y="81" on="1"/>
        <pt x="721" y="59" on="0"/>
        <pt x="729" y="32" on="0"/>
        <pt x="742" y="17" on="0"/>
        <pt x="760" y="12" on="0"/>
        <pt x="770" y="12" on="1"/>
        <pt x="779" y="12" on="0"/>
        <pt x="805" y="19" on="0"/>
        <pt x="832" y="39" on="0"/>
        <pt x="857" y="72" on="0"/>
        <pt x="866" y="97" on="1"/>
        <pt x="868" y="102" on="0"/>
        <pt x="874" y="112" on="0"/>
        <pt x="885" y="112" on="1"/>
        <pt x="895" y="112" on="0"/>
        <pt x="903" y="102" on="0"/>
        <pt x="903" y="97" on="1"/>
        <pt x="903" y="88" on="0"/>
        <pt x="886" y="49" on="0"/>
        <pt x="852" y="9" on="0"/>
        <pt x="800" y="-21" on="0"/>
        <pt x="765" y="-21" on="1"/>
        <pt x="732" y="-21" on="0"/>
        <pt x="676" y="-7" on="0"/>
        <pt x="634" y="21" on="0"/>
        <pt x="610" y="62" on="0"/>
        <pt x="610" y="90" on="1"/>
        <pt x="610" y="104" on="0"/>
        <pt x="617" y="133" on="0"/>
        <pt x="625" y="168" on="1"/>
        <pt x="630" y="185" on="0"/>
        <pt x="640" y="228" on="0"/>
        <pt x="640" y="237" on="1"/>
        <pt x="640" y="273" on="0"/>
        <pt x="574" y="325" on="0"/>
        <pt x="508" y="325" on="1"/>
        <pt x="364" y="325" on="1"/>
        <pt x="301" y="73" on="1"/>
        <pt x="297" y="60" on="0"/>
        <pt x="297" y="55" on="1"/>
        <pt x="297" y="47" on="0"/>
        <pt x="308" y="44" on="0"/>
        <pt x="322" y="42" on="1"/>
        <pt x="330" y="41" on="0"/>
        <pt x="351" y="40" on="0"/>
        <pt x="360" y="40" on="1"/>
        <pt x="377" y="40" on="0"/>
        <pt x="393" y="37" on="0"/>
        <pt x="395" y="26" on="1"/>
        <pt x="395" y="23" on="0"/>
        <pt x="391" y="9" on="0"/>
        <pt x="389" y="7" on="1"/>
        <pt x="386" y="2" on="0"/>
        <pt x="377" y="0" on="0"/>
        <pt x="372" y="0" on="1"/>
        <pt x="368" y="0" on="0"/>
        <pt x="334" y="1" on="0"/>
        <pt x="291" y="2" on="0"/>
        <pt x="248" y="4" on="0"/>
        <pt x="236" y="4" on="1"/>
        <pt x="225" y="4" on="0"/>
        <pt x="189" y="3" on="0"/>
        <pt x="150" y="1" on="0"/>
        <pt x="114" y="0" on="0"/>
        <pt x="103" y="0" on="1"/>
        <pt x="92" y="0" on="0"/>
        <pt x="87" y="11" on="0"/>
        <pt x="86" y="14" on="1"/>
        <pt x="86" y="19" on="0"/>
        <pt x="91" y="34" on="0"/>
        <pt x="95" y="37" on="1"/>
        <pt x="98" y="39" on="0"/>
        <pt x="106" y="40" on="0"/>
        <pt x="123" y="40" on="1"/>
        <pt x="151" y="40" on="0"/>
        <pt x="183" y="43" on="0"/>
        <pt x="199" y="53" on="0"/>
        <pt x="206" y="70" on="0"/>
        <pt x="209" y="83" on="1"/>
        <pt x="340" y="604" on="1"/>
        <pt x="343" y="616" on="0"/>
        <pt x="344" y="628" on="0"/>
        <pt x="344" y="636" on="1"/>
        <pt x="328" y="641" on="0"/>
        <pt x="294" y="643" on="0"/>
        <pt x="280" y="643" on="1"/>
        <pt x="266" y="643" on="0"/>
        <pt x="247" y="647" on="0"/>
        <pt x="247" y="658" on="1"/>
        <pt x="247" y="677" on="0"/>
        <pt x="267" y="683" on="0"/>
        <pt x="281" y="683" on="1"/>
        <pt x="604" y="683" on="1"/>
        <pt x="663" y="683" on="0"/>
        <pt x="759" y="658" on="0"/>
        <pt x="827" y="615" on="0"/>
        <pt x="865" y="559" on="0"/>
        <pt x="865" y="528" on="1"/>
        <pt x="865" y="491" on="0"/>
        <pt x="822" y="430" on="0"/>
        <pt x="756" y="382" on="0"/>
        <pt x="676" y="348" on="0"/>
      </contour>
    </TTGlyph>
    <TTGlyph name="S" xMin="92" yMin="-21" xMax="750" yMax="704">
      <contour>
        <pt x="698" y="479" on="1"/>
        <pt x="694" y="465" on="0"/>
        <pt x="688" y="456" on="0"/>
        <pt x="677" y="456" on="1"/>
        <pt x="675" y="456" on="0"/>
        <pt x="659" y="459" on="0"/>
        <pt x="659" y="470" on="1"/>
        <pt x="659" y="472" on="0"/>
        <pt x="661" y="498" on="0"/>
        <pt x="661" y="511" on="1"/>
        <pt x="661" y="556" on="0"/>
        <pt x="633" y="616" on="0"/>
        <pt x="585" y="652" on="0"/>
        <pt x="524" y="667" on="0"/>
        <pt x="491" y="667" on="1"/>
        <pt x="449" y="667" on="0"/>
        <pt x="375" y="640" on="0"/>
        <pt x="319" y="595" on="0"/>
        <pt x="287" y="539" on="0"/>
        <pt x="287" y="510" on="1"/>
        <pt x="287" y="473" on="0"/>
        <pt x="337" y="424" on="0"/>
        <pt x="378" y="414" on="1"/>
        <pt x="398" y="410" on="0"/>
        <pt x="461" y="396" on="0"/>
        <pt x="485" y="391" on="1"/>
        <pt x="512" y="385" on="0"/>
        <pt x="551" y="375" on="0"/>
        <pt x="581" y="362" on="0"/>
        <pt x="608" y="342" on="0"/>
        <pt x="624" y="326" on="1"/>
        <pt x="628" y="322" on="0"/>
        <pt x="640" y="304" on="0"/>
        <pt x="652" y="279" on="0"/>
        <pt x="661" y="245" on="0"/>
        <pt x="661" y="224" on="1"/>
        <pt x="661" y="180" on="0"/>
        <pt x="617" y="92" on="0"/>
        <pt x="540" y="22" on="0"/>
        <pt x="437" y="-21" on="0"/>
        <pt x="378" y="-21" on="1"/>
        <pt x="359" y="-21" on="0"/>
        <pt x="306" y="-16" on="0"/>
        <pt x="250" y="-1" on="0"/>
        <pt x="197" y="26" on="0"/>
        <pt x="177" y="48" on="1"/>
        <pt x="175" y="45" on="0"/>
        <pt x="156" y="22" on="0"/>
        <pt x="133" y="-2" on="0"/>
        <pt x="112" y="-21" on="0"/>
        <pt x="107" y="-21" on="1"/>
        <pt x="96" y="-21" on="0"/>
        <pt x="92" y="-9" on="0"/>
        <pt x="92" y="-7" on="1"/>
        <pt x="144" y="207" on="1"/>
        <pt x="148" y="221" on="0"/>
        <pt x="157" y="227" on="0"/>
        <pt x="165" y="227" on="1"/>
        <pt x="171" y="227" on="0"/>
        <pt x="183" y="222" on="0"/>
        <pt x="183" y="212" on="1"/>
        <pt x="183" y="210" on="0"/>
        <pt x="182" y="207" on="0"/>
        <pt x="181" y="204" on="1"/>
        <pt x="177" y="187" on="0"/>
        <pt x="176" y="160" on="0"/>
        <pt x="176" y="159" on="1"/>
        <pt x="176" y="110" on="0"/>
        <pt x="225" y="54" on="0"/>
        <pt x="292" y="26" on="0"/>
        <pt x="361" y="19" on="0"/>
        <pt x="381" y="19" on="1"/>
        <pt x="425" y="19" on="0"/>
        <pt x="502" y="50" on="0"/>
        <pt x="559" y="100" on="0"/>
        <pt x="591" y="162" on="0"/>
        <pt x="591" y="193" on="1"/>
        <pt x="591" y="236" on="0"/>
        <pt x="538" y="288" on="0"/>
        <pt x="503" y="296" on="1"/>
        <pt x="500" y="296" on="0"/>
        <pt x="473" y="303" on="0"/>
        <pt x="438" y="310" on="0"/>
        <pt x="405" y="318" on="0"/>
        <pt x="397" y="320" on="1"/>
        <pt x="370" y="326" on="0"/>
        <pt x="330" y="335" on="0"/>
        <pt x="298" y="348" on="0"/>
        <pt x="271" y="366" on="0"/>
        <pt x="257" y="380" on="1"/>
        <pt x="244" y="393" on="0"/>
        <pt x="217" y="442" on="0"/>
        <pt x="217" y="478" on="1"/>
        <pt x="217" y="521" on="0"/>
        <pt x="262" y="602" on="0"/>
        <pt x="337" y="665" on="0"/>
        <pt x="438" y="704" on="0"/>
        <pt x="493" y="704" on="1"/>
        <pt x="539" y="704" on="0"/>
        <pt x="632" y="674" on="0"/>
        <pt x="663" y="634" on="1"/>
        <pt x="676" y="648" on="0"/>
        <pt x="705" y="679" on="0"/>
        <pt x="714" y="690" on="1"/>
        <pt x="722" y="699" on="0"/>
        <pt x="729" y="704" on="0"/>
        <pt x="735" y="704" on="1"/>
        <pt x="746" y="704" on="0"/>
        <pt x="750" y="692" on="0"/>
        <pt x="750" y="690" on="1"/>
        <pt x="750" y="689" on="0"/>
        <pt x="749" y="684" on="0"/>
        <pt x="747" y="675" on="1"/>
      </contour>
    </TTGlyph>
    <TTGlyph name="Sigma" xMin="97" yMin="0" xMax="941" yMax="683">
      <contour>
        <pt x="196" y="51" on="1"/>
        <pt x="501" y="51" on="1"/>
        <pt x="516" y="51" on="0"/>
        <pt x="566" y="53" on="0"/>
        <pt x="620" y="58" on="0"/>
        <pt x="672" y="66" on="0"/>
        <pt x="690" y="73" on="1"/>
        <pt x="714" y="83" on="0"/>
        <pt x="753" y="116" on="0"/>
        <pt x="785" y="156" on="0"/>
        <pt x="810" y="199" on="0"/>
        <pt x="818" y="218" on="1"/>
        <pt x="827" y="238" on="0"/>
        <pt x="834" y="245" on="0"/>
        <pt x="843" y="245" on="1"/>
        <pt x="857" y="245" on="0"/>
        <pt x="861" y="231" on="0"/>
        <pt x="861" y="230" on="1"/>
        <pt x="861" y="229" on="0"/>
        <pt x="856" y="216" on="0"/>
        <pt x="856" y="215" on="1"/>
        <pt x="780" y="21" on="1"/>
        <pt x="777" y="14" on="0"/>
        <pt x="773" y="5" on="0"/>
        <pt x="766" y="1" on="0"/>
        <pt x="755" y="0" on="0"/>
        <pt x="745" y="0" on="1"/>
        <pt x="128" y="0" on="1"/>
        <pt x="114" y="0" on="0"/>
        <pt x="97" y="4" on="0"/>
        <pt x="97" y="15" on="1"/>
        <pt x="97" y="20" on="0"/>
        <pt x="102" y="26" on="0"/>
        <pt x="111" y="33" on="1"/>
        <pt x="455" y="306" on="1"/>
        <pt x="257" y="656" on="1"/>
        <pt x="257" y="661" on="0"/>
        <pt x="262" y="676" on="0"/>
        <pt x="266" y="679" on="1"/>
        <pt x="269" y="681" on="0"/>
        <pt x="276" y="683" on="0"/>
        <pt x="292" y="683" on="1"/>
        <pt x="909" y="683" on="1"/>
        <pt x="928" y="683" on="0"/>
        <pt x="941" y="675" on="0"/>
        <pt x="939" y="652" on="1"/>
        <pt x="921" y="475" on="1"/>
        <pt x="919" y="461" on="0"/>
        <pt x="914" y="449" on="0"/>
        <pt x="902" y="449" on="1"/>
        <pt x="898" y="449" on="0"/>
        <pt x="883" y="453" on="0"/>
        <pt x="883" y="466" on="1"/>
        <pt x="883" y="468" on="0"/>
        <pt x="885" y="488" on="0"/>
        <pt x="885" y="501" on="1"/>
        <pt x="885" y="545" on="0"/>
        <pt x="858" y="613" on="0"/>
        <pt x="820" y="626" on="1"/>
        <pt x="805" y="631" on="0"/>
        <pt x="763" y="638" on="0"/>
        <pt x="719" y="642" on="0"/>
        <pt x="677" y="643" on="0"/>
        <pt x="662" y="643" on="1"/>
        <pt x="385" y="643" on="1"/>
        <pt x="547" y="356" on="1"/>
        <pt x="552" y="348" on="0"/>
        <pt x="553" y="344" on="0"/>
        <pt x="553" y="342" on="1"/>
        <pt x="553" y="336" on="0"/>
        <pt x="548" y="330" on="0"/>
        <pt x="539" y="323" on="1"/>
      </contour>
    </TTGlyph>
    <TTGlyph name="T" xMin="57" yMin="0" xMax="842" yMax="676">
      <contour>
        <pt x="385" y="60" on="1"/>
        <pt x="385" y="49" on="0"/>
        <pt x="403" y="44" on="0"/>
        <pt x="420" y="42" on="1"/>
        <pt x="437" y="41" on="0"/>
        <pt x="468" y="40" on="0"/>
        <pt x="485" y="40" on="1"/>
        <pt x="508" y="40" on="0"/>
        <pt x="524" y="37" on="0"/>
        <pt x="526" y="26" on="1"/>
        <pt x="526" y="23" on="0"/>
        <pt x="522" y="9" on="0"/>
        <pt x="520" y="7" on="1"/>
        <pt x="517" y="2" on="0"/>
        <pt x="507" y="0" on="0"/>
        <pt x="501" y="0" on="1"/>
        <pt x="479" y="0" on="0"/>
        <pt x="433" y="3" on="0"/>
        <pt x="411" y="3" on="1"/>
        <pt x="388" y="3" on="0"/>
        <pt x="344" y="4" on="0"/>
        <pt x="321" y="4" on="1"/>
        <pt x="301" y="4" on="0"/>
        <pt x="258" y="3" on="0"/>
        <pt x="228" y="3" on="1"/>
        <pt x="208" y="3" on="0"/>
        <pt x="164" y="0" on="0"/>
        <pt x="144" y="0" on="1"/>
        <pt x="131" y="0" on="0"/>
        <pt x="125" y="13" on="0"/>
        <pt x="125" y="14" on="1"/>
        <pt x="125" y="18" on="0"/>
        <pt x="130" y="34" on="0"/>
        <pt x="134" y="37" on="1"/>
        <pt x="137" y="39" on="0"/>
        <pt x="146" y="40" on="0"/>
        <pt x="166" y="40" on="1"/>
        <pt x="166" y="40" on="0"/>
        <pt x="186" y="40" on="0"/>
        <pt x="213" y="41" on="0"/>
        <pt x="243" y="43" on="0"/>
        <pt x="253" y="45" on="1"/>
        <pt x="274" y="48" on="0"/>
        <pt x="288" y="65" on="0"/>
        <pt x="293" y="86" on="1"/>
        <pt x="428" y="633" on="1"/>
        <pt x="419" y="635" on="0"/>
        <pt x="409" y="636" on="0"/>
        <pt x="395" y="636" on="1"/>
        <pt x="304" y="636" on="1"/>
        <pt x="256" y="636" on="0"/>
        <pt x="192" y="619" on="0"/>
        <pt x="148" y="580" on="0"/>
        <pt x="116" y="517" on="0"/>
        <pt x="99" y="471" on="1"/>
        <pt x="92" y="451" on="0"/>
        <pt x="86" y="442" on="0"/>
        <pt x="75" y="442" on="1"/>
        <pt x="62" y="442" on="0"/>
        <pt x="57" y="455" on="0"/>
        <pt x="57" y="457" on="1"/>
        <pt x="57" y="458" on="0"/>
        <pt x="58" y="464" on="0"/>
        <pt x="61" y="473" on="1"/>
        <pt x="126" y="655" on="1"/>
        <pt x="131" y="671" on="0"/>
        <pt x="142" y="676" on="0"/>
        <pt x="161" y="676" on="1"/>
        <pt x="811" y="676" on="1"/>
        <pt x="826" y="676" on="0"/>
        <pt x="842" y="672" on="0"/>
        <pt x="842" y="659" on="1"/>
        <pt x="815" y="467" on="1"/>
        <pt x="813" y="456" on="0"/>
        <pt x="807" y="442" on="0"/>
        <pt x="795" y="442" on="1"/>
        <pt x="776" y="442" on="0"/>
        <pt x="776" y="458" on="1"/>
        <pt x="776" y="460" on="0"/>
        <pt x="778" y="473" on="0"/>
        <pt x="779" y="475" on="1"/>
        <pt x="782" y="498" on="0"/>
        <pt x="785" y="536" on="0"/>
        <pt x="785" y="547" on="1"/>
        <pt x="785" y="569" on="0"/>
        <pt x="777" y="602" on="0"/>
        <pt x="751" y="625" on="0"/>
        <pt x="703" y="636" on="0"/>
        <pt x="663" y="636" on="1"/>
        <pt x="571" y="636" on="1"/>
        <pt x="556" y="636" on="0"/>
        <pt x="538" y="634" on="0"/>
        <pt x="528" y="628" on="0"/>
        <pt x="523" y="614" on="0"/>
        <pt x="520" y="602" on="1"/>
      </contour>
    </TTGlyph>
    <TTGlyph name="Theta" xMin="83" yMin="-21" xMax="880" yMax="704">
      <contour>
        <pt x="880" y="422" on="1"/>
        <pt x="880" y="336" on="0"/>
        <pt x="797" y="176" on="0"/>
        <pt x="660" y="53" on="0"/>
        <pt x="485" y="-21" on="0"/>
        <pt x="392" y="-21" on="1"/>
        <pt x="321" y="-21" on="0"/>
        <pt x="207" y="22" on="0"/>
        <pt x="126" y="97" on="0"/>
        <pt x="83" y="199" on="0"/>
        <pt x="83" y="258" on="1"/>
        <pt x="83" y="313" on="0"/>
        <pt x="120" y="422" on="0"/>
        <pt x="187" y="521" on="0"/>
        <pt x="278" y="606" on="0"/>
        <pt x="387" y="668" on="0"/>
        <pt x="509" y="704" on="0"/>
        <pt x="572" y="704" on="1"/>
        <pt x="641" y="704" on="0"/>
        <pt x="755" y="662" on="0"/>
        <pt x="836" y="587" on="0"/>
        <pt x="880" y="483" on="0"/>
      </contour>
      <contour>
        <pt x="401" y="14" on="1"/>
        <pt x="484" y="14" on="0"/>
        <pt x="624" y="90" on="0"/>
        <pt x="725" y="213" on="0"/>
        <pt x="782" y="367" on="0"/>
        <pt x="782" y="445" on="1"/>
        <pt x="782" y="502" on="0"/>
        <pt x="747" y="586" on="0"/>
        <pt x="687" y="643" on="0"/>
        <pt x="608" y="671" on="0"/>
        <pt x="564" y="671" on="1"/>
        <pt x="483" y="671" on="0"/>
        <pt x="344" y="594" on="0"/>
        <pt x="241" y="470" on="0"/>
        <pt x="182" y="315" on="0"/>
        <pt x="182" y="236" on="1"/>
        <pt x="182" y="179" on="0"/>
        <pt x="218" y="95" on="0"/>
        <pt x="279" y="40" on="0"/>
        <pt x="358" y="14" on="0"/>
      </contour>
      <contour>
        <pt x="276" y="396" on="1"/>
        <pt x="279" y="407" on="0"/>
        <pt x="285" y="419" on="0"/>
        <pt x="296" y="419" on="1"/>
        <pt x="305" y="419" on="0"/>
        <pt x="315" y="409" on="0"/>
        <pt x="315" y="403" on="1"/>
        <pt x="315" y="399" on="0"/>
        <pt x="312" y="388" on="0"/>
        <pt x="311" y="385" on="1"/>
        <pt x="676" y="385" on="1"/>
        <pt x="676" y="385" on="0"/>
        <pt x="677" y="396" on="0"/>
        <pt x="682" y="409" on="0"/>
        <pt x="691" y="419" on="0"/>
        <pt x="699" y="419" on="1"/>
        <pt x="708" y="419" on="0"/>
        <pt x="718" y="409" on="0"/>
        <pt x="718" y="403" on="1"/>
        <pt x="718" y="402" on="0"/>
        <pt x="711" y="373" on="0"/>
        <pt x="702" y="339" on="0"/>
        <pt x="694" y="308" on="0"/>
        <pt x="693" y="304" on="1"/>
        <pt x="687" y="279" on="0"/>
        <pt x="680" y="266" on="0"/>
        <pt x="669" y="266" on="1"/>
        <pt x="658" y="266" on="0"/>
        <pt x="651" y="277" on="0"/>
        <pt x="651" y="282" on="1"/>
        <pt x="651" y="284" on="0"/>
        <pt x="652" y="289" on="0"/>
        <pt x="654" y="300" on="1"/>
        <pt x="289" y="300" on="1"/>
        <pt x="289" y="300" on="0"/>
        <pt x="288" y="289" on="0"/>
        <pt x="284" y="276" on="0"/>
        <pt x="274" y="266" on="0"/>
        <pt x="266" y="266" on="1"/>
        <pt x="254" y="266" on="0"/>
        <pt x="248" y="279" on="0"/>
        <pt x="248" y="281" on="1"/>
        <pt x="248" y="282" on="0"/>
        <pt x="249" y="288" on="0"/>
        <pt x="251" y="296" on="1"/>
      </contour>
    </TTGlyph>
    <TTGlyph name="U" xMin="109" yMin="-21" xMax="880" yMax="683">
      <contour>
        <pt x="665" y="230" on="1"/>
        <pt x="651" y="173" on="0"/>
        <pt x="585" y="81" on="0"/>
        <pt x="497" y="15" on="0"/>
        <pt x="395" y="-21" on="0"/>
        <pt x="344" y="-21" on="1"/>
        <pt x="294" y="-21" on="0"/>
        <pt x="208" y="8" on="0"/>
        <pt x="145" y="61" on="0"/>
        <pt x="109" y="135" on="0"/>
        <pt x="109" y="180" on="1"/>
        <pt x="109" y="189" on="0"/>
        <pt x="110" y="211" on="0"/>
        <pt x="115" y="230" on="1"/>
        <pt x="194" y="547" on="1"/>
        <pt x="196" y="556" on="0"/>
        <pt x="202" y="577" on="0"/>
        <pt x="207" y="597" on="0"/>
        <pt x="211" y="613" on="0"/>
        <pt x="212" y="617" on="1"/>
        <pt x="213" y="636" on="1"/>
        <pt x="197" y="641" on="0"/>
        <pt x="163" y="643" on="0"/>
        <pt x="149" y="643" on="1"/>
        <pt x="135" y="643" on="0"/>
        <pt x="116" y="647" on="0"/>
        <pt x="116" y="658" on="1"/>
        <pt x="116" y="677" on="0"/>
        <pt x="134" y="683" on="0"/>
        <pt x="139" y="683" on="1"/>
        <pt x="156" y="683" on="0"/>
        <pt x="191" y="680" on="0"/>
        <pt x="208" y="680" on="1"/>
        <pt x="344" y="680" on="1"/>
        <pt x="361" y="680" on="0"/>
        <pt x="395" y="683" on="0"/>
        <pt x="411" y="683" on="1"/>
        <pt x="428" y="683" on="0"/>
        <pt x="428" y="667" on="1"/>
        <pt x="428" y="649" on="0"/>
        <pt x="410" y="643" on="0"/>
        <pt x="396" y="643" on="1"/>
        <pt x="366" y="643" on="0"/>
        <pt x="333" y="639" on="0"/>
        <pt x="315" y="630" on="0"/>
        <pt x="309" y="614" on="0"/>
        <pt x="306" y="602" on="1"/>
        <pt x="211" y="224" on="1"/>
        <pt x="202" y="190" on="0"/>
        <pt x="202" y="154" on="1"/>
        <pt x="202" y="112" on="0"/>
        <pt x="231" y="60" on="0"/>
        <pt x="275" y="30" on="0"/>
        <pt x="327" y="19" on="0"/>
        <pt x="349" y="19" on="1"/>
        <pt x="394" y="19" on="0"/>
        <pt x="482" y="50" on="0"/>
        <pt x="557" y="107" on="0"/>
        <pt x="612" y="185" on="0"/>
        <pt x="624" y="231" on="1"/>
        <pt x="713" y="587" on="1"/>
        <pt x="715" y="592" on="0"/>
        <pt x="715" y="601" on="0"/>
        <pt x="715" y="603" on="1"/>
        <pt x="715" y="623" on="0"/>
        <pt x="684" y="642" on="0"/>
        <pt x="649" y="643" on="1"/>
        <pt x="643" y="643" on="0"/>
        <pt x="625" y="647" on="0"/>
        <pt x="625" y="658" on="1"/>
        <pt x="625" y="667" on="0"/>
        <pt x="634" y="683" on="0"/>
        <pt x="647" y="683" on="1"/>
        <pt x="660" y="683" on="0"/>
        <pt x="689" y="680" on="0"/>
        <pt x="702" y="680" on="1"/>
        <pt x="757" y="679" on="1"/>
        <pt x="766" y="679" on="0"/>
        <pt x="795" y="680" on="0"/>
        <pt x="826" y="682" on="0"/>
        <pt x="855" y="683" on="0"/>
        <pt x="864" y="683" on="1"/>
        <pt x="880" y="683" on="0"/>
        <pt x="880" y="667" on="1"/>
        <pt x="880" y="643" on="0"/>
        <pt x="859" y="643" on="1"/>
        <pt x="829" y="642" on="0"/>
        <pt x="790" y="631" on="0"/>
        <pt x="766" y="612" on="0"/>
        <pt x="754" y="586" on="0"/>
        <pt x="750" y="570" on="1"/>
      </contour>
    </TTGlyph>
    <TTGlyph name="Upsilon" xMin="60" yMin="0" xMax="842" yMax="704">
      <contour>
        <pt x="425" y="451" on="1"/>
        <pt x="455" y="516" on="0"/>
        <pt x="526" y="612" on="0"/>
        <pt x="602" y="674" on="0"/>
        <pt x="681" y="704" on="0"/>
        <pt x="720" y="704" on="1"/>
        <pt x="751" y="704" on="0"/>
        <pt x="797" y="684" on="0"/>
        <pt x="827" y="650" on="0"/>
        <pt x="842" y="608" on="0"/>
        <pt x="842" y="585" on="1"/>
        <pt x="842" y="552" on="0"/>
        <pt x="826" y="531" on="0"/>
        <pt x="813" y="531" on="1"/>
        <pt x="808" y="531" on="0"/>
        <pt x="796" y="535" on="0"/>
        <pt x="796" y="544" on="1"/>
        <pt x="796" y="545" on="0"/>
        <pt x="799" y="559" on="0"/>
        <pt x="799" y="561" on="1"/>
        <pt x="799" y="590" on="0"/>
        <pt x="744" y="622" on="0"/>
        <pt x="702" y="622" on="1"/>
        <pt x="656" y="622" on="0"/>
        <pt x="576" y="577" on="0"/>
        <pt x="510" y="499" on="0"/>
        <pt x="460" y="396" on="0"/>
        <pt x="446" y="338" on="1"/>
        <pt x="444" y="330" on="0"/>
        <pt x="433" y="286" on="0"/>
        <pt x="419" y="228" on="0"/>
        <pt x="403" y="165" on="0"/>
        <pt x="389" y="111" on="0"/>
        <pt x="380" y="74" on="0"/>
        <pt x="379" y="72" on="1"/>
        <pt x="378" y="66" on="0"/>
        <pt x="377" y="61" on="0"/>
        <pt x="377" y="58" on="1"/>
        <pt x="377" y="50" on="0"/>
        <pt x="388" y="44" on="0"/>
        <pt x="411" y="42" on="1"/>
        <pt x="429" y="40" on="0"/>
        <pt x="461" y="40" on="0"/>
        <pt x="463" y="40" on="1"/>
        <pt x="482" y="40" on="0"/>
        <pt x="500" y="36" on="0"/>
        <pt x="500" y="25" on="1"/>
        <pt x="500" y="6" on="0"/>
        <pt x="481" y="0" on="0"/>
        <pt x="476" y="0" on="1"/>
        <pt x="456" y="0" on="0"/>
        <pt x="416" y="3" on="0"/>
        <pt x="396" y="3" on="1"/>
        <pt x="233" y="3" on="1"/>
        <pt x="213" y="3" on="0"/>
        <pt x="173" y="0" on="0"/>
        <pt x="153" y="0" on="1"/>
        <pt x="145" y="0" on="0"/>
        <pt x="135" y="7" on="0"/>
        <pt x="135" y="15" on="1"/>
        <pt x="135" y="34" on="0"/>
        <pt x="153" y="40" on="0"/>
        <pt x="170" y="40" on="1"/>
        <pt x="221" y="40" on="0"/>
        <pt x="269" y="46" on="0"/>
        <pt x="278" y="63" on="1"/>
        <pt x="280" y="67" on="0"/>
        <pt x="287" y="91" on="0"/>
        <pt x="289" y="101" on="1"/>
        <pt x="289" y="103" on="0"/>
        <pt x="295" y="126" on="0"/>
        <pt x="303" y="160" on="0"/>
        <pt x="313" y="199" on="0"/>
        <pt x="322" y="235" on="0"/>
        <pt x="329" y="263" on="0"/>
        <pt x="330" y="268" on="1"/>
        <pt x="341" y="312" on="0"/>
        <pt x="355" y="367" on="0"/>
        <pt x="362" y="404" on="0"/>
        <pt x="364" y="432" on="0"/>
        <pt x="364" y="450" on="1"/>
        <pt x="364" y="482" on="0"/>
        <pt x="351" y="544" on="0"/>
        <pt x="321" y="592" on="0"/>
        <pt x="271" y="622" on="0"/>
        <pt x="233" y="622" on="1"/>
        <pt x="204" y="622" on="0"/>
        <pt x="161" y="609" on="0"/>
        <pt x="147" y="602" on="1"/>
        <pt x="122" y="588" on="0"/>
        <pt x="105" y="559" on="0"/>
        <pt x="100" y="546" on="1"/>
        <pt x="97" y="536" on="0"/>
        <pt x="82" y="531" on="0"/>
        <pt x="77" y="531" on="1"/>
        <pt x="74" y="531" on="0"/>
        <pt x="60" y="534" on="0"/>
        <pt x="60" y="543" on="1"/>
        <pt x="60" y="556" on="0"/>
        <pt x="86" y="609" on="0"/>
        <pt x="136" y="663" on="0"/>
        <pt x="209" y="704" on="0"/>
        <pt x="256" y="704" on="1"/>
        <pt x="300" y="704" on="0"/>
        <pt x="364" y="669" on="0"/>
        <pt x="406" y="607" on="0"/>
        <pt x="426" y="526" on="0"/>
        <pt x="426" y="479" on="1"/>
        <pt x="426" y="472" on="0"/>
        <pt x="425" y="458" on="0"/>
      </contour>
    </TTGlyph>
    <TTGlyph name="V" xMin="95" yMin="-21" xMax="916" yMax="683">
      <contour>
        <pt x="370" y="0" on="1"/>
        <pt x="362" y="-11" on="0"/>
        <pt x="350" y="-21" on="0"/>
        <pt x="335" y="-21" on="1"/>
        <pt x="318" y="-21" on="0"/>
        <pt x="310" y="-9" on="0"/>
        <pt x="307" y="5" on="1"/>
        <pt x="187" y="613" on="1"/>
        <pt x="186" y="621" on="0"/>
        <pt x="181" y="633" on="0"/>
        <pt x="169" y="640" on="0"/>
        <pt x="144" y="643" on="0"/>
        <pt x="122" y="643" on="1"/>
        <pt x="112" y="643" on="0"/>
        <pt x="95" y="647" on="0"/>
        <pt x="95" y="658" on="1"/>
        <pt x="95" y="673" on="0"/>
        <pt x="109" y="683" on="0"/>
        <pt x="117" y="683" on="1"/>
        <pt x="131" y="683" on="0"/>
        <pt x="160" y="680" on="0"/>
        <pt x="174" y="680" on="1"/>
        <pt x="233" y="679" on="1"/>
        <pt x="250" y="679" on="0"/>
        <pt x="281" y="680" on="0"/>
        <pt x="298" y="680" on="1"/>
        <pt x="315" y="680" on="0"/>
        <pt x="349" y="683" on="0"/>
        <pt x="365" y="683" on="1"/>
        <pt x="377" y="683" on="0"/>
        <pt x="382" y="670" on="0"/>
        <pt x="382" y="668" on="1"/>
        <pt x="382" y="649" on="0"/>
        <pt x="364" y="643" on="0"/>
        <pt x="354" y="643" on="1"/>
        <pt x="320" y="643" on="0"/>
        <pt x="288" y="629" on="0"/>
        <pt x="288" y="620" on="1"/>
        <pt x="288" y="617" on="0"/>
        <pt x="288" y="612" on="0"/>
        <pt x="290" y="604" on="1"/>
        <pt x="392" y="93" on="1"/>
        <pt x="729" y="576" on="1"/>
        <pt x="734" y="582" on="0"/>
        <pt x="748" y="606" on="0"/>
        <pt x="748" y="616" on="1"/>
        <pt x="748" y="625" on="0"/>
        <pt x="737" y="635" on="0"/>
        <pt x="723" y="641" on="0"/>
        <pt x="710" y="643" on="0"/>
        <pt x="707" y="643" on="1"/>
        <pt x="702" y="643" on="0"/>
        <pt x="686" y="647" on="0"/>
        <pt x="686" y="658" on="1"/>
        <pt x="686" y="667" on="0"/>
        <pt x="695" y="683" on="0"/>
        <pt x="708" y="683" on="1"/>
        <pt x="717" y="683" on="0"/>
        <pt x="746" y="682" on="0"/>
        <pt x="777" y="680" on="0"/>
        <pt x="806" y="679" on="0"/>
        <pt x="815" y="679" on="1"/>
        <pt x="836" y="679" on="0"/>
        <pt x="880" y="683" on="0"/>
        <pt x="900" y="683" on="1"/>
        <pt x="911" y="683" on="0"/>
        <pt x="915" y="671" on="0"/>
        <pt x="916" y="669" on="1"/>
        <pt x="916" y="661" on="0"/>
        <pt x="907" y="644" on="0"/>
        <pt x="899" y="643" on="1"/>
        <pt x="884" y="642" on="0"/>
        <pt x="856" y="638" on="0"/>
        <pt x="827" y="627" on="0"/>
        <pt x="798" y="605" on="0"/>
        <pt x="783" y="586" on="1"/>
        <pt x="778" y="580" on="0"/>
        <pt x="765" y="566" on="0"/>
        <pt x="763" y="562" on="1"/>
      </contour>
    </TTGlyph>
    <TTGlyph name="W" xMin="93" yMin="-21" xMax="1241" yMax="683">
      <contour>
        <pt x="750" y="0" on="1"/>
        <pt x="743" y="-11" on="0"/>
        <pt x="730" y="-21" on="0"/>
        <pt x="717" y="-21" on="1"/>
        <pt x="703" y="-21" on="0"/>
        <pt x="696" y="-8" on="0"/>
        <pt x="694" y="7" on="1"/>
        <pt x="630" y="514" on="1"/>
        <pt x="310" y="2" on="1"/>
        <pt x="303" y="-9" on="0"/>
        <pt x="289" y="-21" on="0"/>
        <pt x="276" y="-21" on="1"/>
        <pt x="262" y="-21" on="0"/>
        <pt x="254" y="-8" on="0"/>
        <pt x="252" y="7" on="1"/>
        <pt x="176" y="611" on="1"/>
        <pt x="175" y="621" on="0"/>
        <pt x="172" y="634" on="0"/>
        <pt x="162" y="641" on="0"/>
        <pt x="141" y="643" on="0"/>
        <pt x="123" y="643" on="1"/>
        <pt x="110" y="643" on="0"/>
        <pt x="95" y="646" on="0"/>
        <pt x="93" y="657" on="1"/>
        <pt x="93" y="659" on="0"/>
        <pt x="94" y="667" on="0"/>
        <pt x="98" y="676" on="0"/>
        <pt x="107" y="683" on="0"/>
        <pt x="115" y="683" on="1"/>
        <pt x="128" y="683" on="0"/>
        <pt x="157" y="680" on="0"/>
        <pt x="171" y="680" on="1"/>
        <pt x="185" y="680" on="0"/>
        <pt x="212" y="679" on="0"/>
        <pt x="226" y="679" on="1"/>
        <pt x="242" y="679" on="0"/>
        <pt x="279" y="680" on="0"/>
        <pt x="295" y="680" on="1"/>
        <pt x="310" y="680" on="0"/>
        <pt x="343" y="683" on="0"/>
        <pt x="357" y="683" on="1"/>
        <pt x="368" y="683" on="0"/>
        <pt x="374" y="672" on="0"/>
        <pt x="374" y="668" on="1"/>
        <pt x="374" y="649" on="0"/>
        <pt x="356" y="643" on="0"/>
        <pt x="346" y="643" on="1"/>
        <pt x="324" y="643" on="0"/>
        <pt x="298" y="638" on="0"/>
        <pt x="283" y="631" on="0"/>
        <pt x="277" y="623" on="0"/>
        <pt x="275" y="619" on="1"/>
        <pt x="339" y="112" on="1"/>
        <pt x="615" y="554" on="1"/>
        <pt x="621" y="562" on="0"/>
        <pt x="623" y="567" on="0"/>
        <pt x="623" y="569" on="1"/>
        <pt x="623" y="572" on="0"/>
        <pt x="621" y="590" on="0"/>
        <pt x="618" y="611" on="0"/>
        <pt x="615" y="630" on="0"/>
        <pt x="614" y="632" on="1"/>
        <pt x="609" y="640" on="0"/>
        <pt x="575" y="643" on="0"/>
        <pt x="561" y="643" on="1"/>
        <pt x="552" y="643" on="0"/>
        <pt x="535" y="647" on="0"/>
        <pt x="535" y="658" on="1"/>
        <pt x="535" y="677" on="0"/>
        <pt x="552" y="683" on="0"/>
        <pt x="557" y="683" on="1"/>
        <pt x="570" y="683" on="0"/>
        <pt x="599" y="680" on="0"/>
        <pt x="612" y="680" on="1"/>
        <pt x="626" y="680" on="0"/>
        <pt x="653" y="679" on="0"/>
        <pt x="667" y="679" on="1"/>
        <pt x="683" y="679" on="0"/>
        <pt x="720" y="680" on="0"/>
        <pt x="736" y="680" on="1"/>
        <pt x="751" y="680" on="0"/>
        <pt x="784" y="683" on="0"/>
        <pt x="798" y="683" on="1"/>
        <pt x="806" y="683" on="0"/>
        <pt x="815" y="674" on="0"/>
        <pt x="815" y="668" on="1"/>
        <pt x="815" y="649" on="0"/>
        <pt x="797" y="643" on="0"/>
        <pt x="789" y="643" on="1"/>
        <pt x="764" y="643" on="0"/>
        <pt x="735" y="636" on="0"/>
        <pt x="721" y="628" on="0"/>
        <pt x="717" y="620" on="0"/>
        <pt x="717" y="618" on="1"/>
        <pt x="780" y="112" on="1"/>
        <pt x="1070" y="574" on="1"/>
        <pt x="1075" y="581" on="0"/>
        <pt x="1085" y="600" on="0"/>
        <pt x="1085" y="610" on="1"/>
        <pt x="1085" y="627" on="0"/>
        <pt x="1051" y="642" on="0"/>
        <pt x="1031" y="643" on="1"/>
        <pt x="1025" y="643" on="0"/>
        <pt x="1010" y="647" on="0"/>
        <pt x="1010" y="658" on="1"/>
        <pt x="1010" y="677" on="0"/>
        <pt x="1027" y="683" on="0"/>
        <pt x="1032" y="683" on="1"/>
        <pt x="1041" y="683" on="0"/>
        <pt x="1072" y="682" on="0"/>
        <pt x="1106" y="680" on="0"/>
        <pt x="1137" y="679" on="0"/>
        <pt x="1146" y="679" on="1"/>
        <pt x="1165" y="679" on="0"/>
        <pt x="1209" y="683" on="0"/>
        <pt x="1226" y="683" on="1"/>
        <pt x="1233" y="683" on="0"/>
        <pt x="1241" y="674" on="0"/>
        <pt x="1241" y="668" on="1"/>
        <pt x="1241" y="651" on="0"/>
        <pt x="1225" y="644" on="0"/>
        <pt x="1216" y="643" on="1"/>
        <pt x="1202" y="642" on="0"/>
        <pt x="1175" y="635" on="0"/>
        <pt x="1146" y="618" on="0"/>
        <pt x="1117" y="588" on="0"/>
        <pt x="1102" y="563" on="1"/>
      </contour>
    </TTGlyph>
    <TTGlyph name="X" xMin="65" yMin="0" xMax="981" yMax="683">
      <contour>
        <pt x="763" y="67" on="1"/>
        <pt x="767" y="60" on="0"/>
        <pt x="774" y="50" on="0"/>
        <pt x="790" y="43" on="0"/>
        <pt x="817" y="40" on="0"/>
        <pt x="840" y="40" on="1"/>
        <pt x="850" y="40" on="0"/>
        <pt x="869" y="36" on="0"/>
        <pt x="869" y="25" on="1"/>
        <pt x="869" y="11" on="0"/>
        <pt x="856" y="0" on="0"/>
        <pt x="847" y="0" on="1"/>
        <pt x="833" y="0" on="0"/>
        <pt x="801" y="3" on="0"/>
        <pt x="786" y="3" on="1"/>
        <pt x="771" y="3" on="0"/>
        <pt x="742" y="4" on="0"/>
        <pt x="727" y="4" on="1"/>
        <pt x="659" y="3" on="1"/>
        <pt x="642" y="3" on="0"/>
        <pt x="608" y="0" on="0"/>
        <pt x="592" y="0" on="1"/>
        <pt x="580" y="0" on="0"/>
        <pt x="574" y="13" on="0"/>
        <pt x="574" y="15" on="1"/>
        <pt x="574" y="33" on="0"/>
        <pt x="592" y="40" on="0"/>
        <pt x="597" y="40" on="1"/>
        <pt x="621" y="42" on="0"/>
        <pt x="649" y="57" on="0"/>
        <pt x="649" y="62" on="1"/>
        <pt x="649" y="63" on="0"/>
        <pt x="643" y="75" on="1"/>
        <pt x="515" y="309" on="1"/>
        <pt x="286" y="94" on="1"/>
        <pt x="285" y="93" on="0"/>
        <pt x="283" y="88" on="0"/>
        <pt x="281" y="87" on="1"/>
        <pt x="273" y="76" on="0"/>
        <pt x="270" y="67" on="0"/>
        <pt x="270" y="63" on="1"/>
        <pt x="270" y="50" on="0"/>
        <pt x="291" y="41" on="0"/>
        <pt x="302" y="40" on="1"/>
        <pt x="306" y="40" on="0"/>
        <pt x="320" y="36" on="0"/>
        <pt x="320" y="25" on="1"/>
        <pt x="320" y="6" on="0"/>
        <pt x="303" y="0" on="0"/>
        <pt x="298" y="0" on="1"/>
        <pt x="288" y="0" on="0"/>
        <pt x="255" y="1" on="0"/>
        <pt x="221" y="3" on="0"/>
        <pt x="188" y="4" on="0"/>
        <pt x="178" y="4" on="1"/>
        <pt x="155" y="4" on="0"/>
        <pt x="102" y="0" on="0"/>
        <pt x="80" y="0" on="1"/>
        <pt x="73" y="0" on="0"/>
        <pt x="65" y="10" on="0"/>
        <pt x="65" y="15" on="1"/>
        <pt x="65" y="33" on="0"/>
        <pt x="81" y="39" on="0"/>
        <pt x="92" y="40" on="1"/>
        <pt x="128" y="42" on="0"/>
        <pt x="183" y="60" on="0"/>
        <pt x="246" y="105" on="0"/>
        <pt x="329" y="182" on="0"/>
        <pt x="391" y="242" on="1"/>
        <pt x="404" y="255" on="0"/>
        <pt x="434" y="284" on="0"/>
        <pt x="463" y="311" on="0"/>
        <pt x="489" y="335" on="0"/>
        <pt x="497" y="342" on="1"/>
        <pt x="347" y="616" on="1"/>
        <pt x="344" y="622" on="0"/>
        <pt x="336" y="632" on="0"/>
        <pt x="321" y="639" on="0"/>
        <pt x="295" y="643" on="0"/>
        <pt x="273" y="643" on="1"/>
        <pt x="258" y="643" on="0"/>
        <pt x="241" y="647" on="0"/>
        <pt x="241" y="658" on="1"/>
        <pt x="241" y="673" on="0"/>
        <pt x="255" y="683" on="0"/>
        <pt x="263" y="683" on="1"/>
        <pt x="277" y="683" on="0"/>
        <pt x="309" y="680" on="0"/>
        <pt x="324" y="680" on="1"/>
        <pt x="339" y="680" on="0"/>
        <pt x="368" y="679" on="0"/>
        <pt x="383" y="679" on="1"/>
        <pt x="451" y="680" on="1"/>
        <pt x="468" y="680" on="0"/>
        <pt x="502" y="683" on="0"/>
        <pt x="518" y="683" on="1"/>
        <pt x="530" y="683" on="0"/>
        <pt x="535" y="670" on="0"/>
        <pt x="535" y="668" on="1"/>
        <pt x="535" y="650" on="0"/>
        <pt x="519" y="643" on="0"/>
        <pt x="513" y="643" on="1"/>
        <pt x="490" y="641" on="0"/>
        <pt x="461" y="626" on="0"/>
        <pt x="461" y="621" on="1"/>
        <pt x="461" y="619" on="0"/>
        <pt x="466" y="610" on="0"/>
        <pt x="467" y="608" on="1"/>
        <pt x="573" y="414" on="1"/>
        <pt x="578" y="418" on="0"/>
        <pt x="602" y="441" on="0"/>
        <pt x="629" y="466" on="0"/>
        <pt x="651" y="488" on="0"/>
        <pt x="654" y="491" on="1"/>
        <pt x="735" y="566" on="1"/>
        <pt x="758" y="589" on="0"/>
        <pt x="775" y="609" on="0"/>
        <pt x="775" y="620" on="1"/>
        <pt x="775" y="634" on="0"/>
        <pt x="753" y="642" on="0"/>
        <pt x="743" y="643" on="1"/>
        <pt x="740" y="643" on="0"/>
        <pt x="725" y="647" on="0"/>
        <pt x="725" y="658" on="1"/>
        <pt x="725" y="677" on="0"/>
        <pt x="743" y="683" on="0"/>
        <pt x="748" y="683" on="1"/>
        <pt x="762" y="683" on="0"/>
        <pt x="794" y="680" on="0"/>
        <pt x="808" y="680" on="1"/>
        <pt x="867" y="679" on="1"/>
        <pt x="890" y="679" on="0"/>
        <pt x="943" y="683" on="0"/>
        <pt x="965" y="683" on="1"/>
        <pt x="973" y="683" on="0"/>
        <pt x="981" y="673" on="0"/>
        <pt x="981" y="668" on="1"/>
        <pt x="981" y="650" on="0"/>
        <pt x="965" y="644" on="0"/>
        <pt x="954" y="643" on="1"/>
        <pt x="928" y="641" on="0"/>
        <pt x="874" y="628" on="0"/>
        <pt x="845" y="611" on="1"/>
        <pt x="837" y="606" on="0"/>
        <pt x="795" y="575" on="0"/>
        <pt x="776" y="558" on="1"/>
        <pt x="613" y="402" on="1"/>
        <pt x="598" y="387" on="0"/>
        <pt x="592" y="381" on="0"/>
        <pt x="592" y="380" on="1"/>
        <pt x="592" y="379" on="0"/>
        <pt x="597" y="369" on="0"/>
        <pt x="597" y="368" on="1"/>
      </contour>
    </TTGlyph>
    <TTGlyph name="Xi" xMin="90" yMin="0" xMax="905" yMax="676">
      <contour>
        <pt x="883" y="535" on="1"/>
        <pt x="881" y="521" on="0"/>
        <pt x="871" y="512" on="0"/>
        <pt x="862" y="512" on="1"/>
        <pt x="844" y="512" on="0"/>
        <pt x="844" y="528" on="1"/>
        <pt x="844" y="530" on="0"/>
        <pt x="844" y="533" on="0"/>
        <pt x="845" y="538" on="1"/>
        <pt x="850" y="561" on="0"/>
        <pt x="851" y="580" on="0"/>
        <pt x="851" y="595" on="1"/>
        <pt x="837" y="597" on="0"/>
        <pt x="791" y="598" on="0"/>
        <pt x="776" y="598" on="1"/>
        <pt x="363" y="598" on="1"/>
        <pt x="357" y="598" on="0"/>
        <pt x="334" y="598" on="0"/>
        <pt x="309" y="596" on="0"/>
        <pt x="287" y="595" on="0"/>
        <pt x="283" y="593" on="1"/>
        <pt x="279" y="592" on="0"/>
        <pt x="270" y="576" on="0"/>
        <pt x="262" y="556" on="0"/>
        <pt x="255" y="537" on="0"/>
        <pt x="254" y="534" on="1"/>
        <pt x="251" y="522" on="0"/>
        <pt x="244" y="512" on="0"/>
        <pt x="233" y="512" on="1"/>
        <pt x="225" y="512" on="0"/>
        <pt x="215" y="519" on="0"/>
        <pt x="215" y="527" on="1"/>
        <pt x="215" y="531" on="0"/>
        <pt x="219" y="544" on="0"/>
        <pt x="220" y="546" on="1"/>
        <pt x="255" y="654" on="1"/>
        <pt x="260" y="670" on="0"/>
        <pt x="270" y="676" on="0"/>
        <pt x="289" y="676" on="1"/>
        <pt x="874" y="676" on="1"/>
        <pt x="888" y="676" on="0"/>
        <pt x="905" y="672" on="0"/>
        <pt x="905" y="660" on="1"/>
        <pt x="905" y="657" on="0"/>
        <pt x="905" y="652" on="0"/>
        <pt x="903" y="645" on="1"/>
      </contour>
      <contour>
        <pt x="639" y="78" on="1"/>
        <pt x="645" y="78" on="0"/>
        <pt x="670" y="78" on="0"/>
        <pt x="697" y="79" on="0"/>
        <pt x="721" y="81" on="0"/>
        <pt x="725" y="83" on="1"/>
        <pt x="730" y="85" on="0"/>
        <pt x="746" y="124" on="0"/>
        <pt x="753" y="145" on="1"/>
        <pt x="759" y="165" on="0"/>
        <pt x="765" y="175" on="0"/>
        <pt x="776" y="175" on="1"/>
        <pt x="779" y="175" on="0"/>
        <pt x="795" y="171" on="0"/>
        <pt x="795" y="160" on="1"/>
        <pt x="795" y="159" on="0"/>
        <pt x="790" y="143" on="0"/>
        <pt x="784" y="122" on="0"/>
        <pt x="776" y="98" on="0"/>
        <pt x="773" y="89" on="1"/>
        <pt x="772" y="83" on="0"/>
        <pt x="765" y="61" on="0"/>
        <pt x="757" y="37" on="0"/>
        <pt x="751" y="16" on="0"/>
        <pt x="750" y="13" on="1"/>
        <pt x="746" y="3" on="0"/>
        <pt x="735" y="0" on="0"/>
        <pt x="718" y="0" on="1"/>
        <pt x="121" y="0" on="1"/>
        <pt x="107" y="0" on="0"/>
        <pt x="90" y="4" on="0"/>
        <pt x="90" y="16" on="1"/>
        <pt x="90" y="20" on="0"/>
        <pt x="97" y="59" on="0"/>
        <pt x="105" y="105" on="0"/>
        <pt x="114" y="147" on="0"/>
        <pt x="115" y="154" on="1"/>
        <pt x="117" y="165" on="0"/>
        <pt x="124" y="175" on="0"/>
        <pt x="136" y="175" on="1"/>
        <pt x="143" y="175" on="0"/>
        <pt x="154" y="168" on="0"/>
        <pt x="154" y="159" on="1"/>
        <pt x="154" y="157" on="0"/>
        <pt x="151" y="140" on="0"/>
        <pt x="150" y="137" on="1"/>
        <pt x="146" y="117" on="0"/>
        <pt x="145" y="95" on="0"/>
        <pt x="145" y="82" on="1"/>
        <pt x="157" y="81" on="0"/>
        <pt x="172" y="79" on="0"/>
        <pt x="187" y="78" on="0"/>
        <pt x="207" y="78" on="0"/>
        <pt x="224" y="78" on="1"/>
      </contour>
      <contour>
        <pt x="702" y="391" on="1"/>
        <pt x="705" y="402" on="0"/>
        <pt x="707" y="412" on="0"/>
        <pt x="710" y="423" on="1"/>
        <pt x="713" y="433" on="0"/>
        <pt x="720" y="444" on="0"/>
        <pt x="731" y="444" on="1"/>
        <pt x="738" y="444" on="0"/>
        <pt x="749" y="437" on="0"/>
        <pt x="749" y="429" on="1"/>
        <pt x="749" y="428" on="0"/>
        <pt x="745" y="413" on="0"/>
        <pt x="740" y="392" on="0"/>
        <pt x="734" y="369" on="0"/>
        <pt x="732" y="360" on="1"/>
        <pt x="727" y="339" on="0"/>
        <pt x="723" y="325" on="0"/>
        <pt x="722" y="316" on="0"/>
        <pt x="718" y="301" on="0"/>
        <pt x="713" y="280" on="1"/>
        <pt x="710" y="270" on="0"/>
        <pt x="703" y="260" on="0"/>
        <pt x="692" y="260" on="1"/>
        <pt x="684" y="260" on="0"/>
        <pt x="674" y="267" on="0"/>
        <pt x="674" y="276" on="1"/>
        <pt x="674" y="280" on="0"/>
        <pt x="681" y="306" on="0"/>
        <pt x="683" y="313" on="1"/>
        <pt x="306" y="313" on="1"/>
        <pt x="303" y="302" on="0"/>
        <pt x="301" y="292" on="0"/>
        <pt x="298" y="281" on="1"/>
        <pt x="295" y="271" on="0"/>
        <pt x="288" y="260" on="0"/>
        <pt x="277" y="260" on="1"/>
        <pt x="269" y="260" on="0"/>
        <pt x="259" y="267" on="0"/>
        <pt x="259" y="276" on="1"/>
        <pt x="259" y="278" on="0"/>
        <pt x="269" y="320" on="0"/>
        <pt x="282" y="371" on="0"/>
        <pt x="294" y="418" on="0"/>
        <pt x="295" y="424" on="1"/>
        <pt x="298" y="433" on="0"/>
        <pt x="305" y="444" on="0"/>
        <pt x="316" y="444" on="1"/>
        <pt x="324" y="444" on="0"/>
        <pt x="334" y="437" on="0"/>
        <pt x="334" y="428" on="1"/>
        <pt x="334" y="424" on="0"/>
        <pt x="327" y="398" on="0"/>
        <pt x="325" y="391" on="1"/>
      </contour>
    </TTGlyph>
    <TTGlyph name="Y" xMin="73" yMin="0" xMax="906" yMax="683">
      <contour>
        <pt x="438" y="273" on="1"/>
        <pt x="431" y="241" on="0"/>
        <pt x="422" y="206" on="0"/>
        <pt x="414" y="175" on="0"/>
        <pt x="404" y="136" on="0"/>
        <pt x="395" y="99" on="1"/>
        <pt x="392" y="87" on="0"/>
        <pt x="389" y="72" on="0"/>
        <pt x="387" y="62" on="0"/>
        <pt x="386" y="53" on="0"/>
        <pt x="386" y="47" on="1"/>
        <pt x="402" y="42" on="0"/>
        <pt x="436" y="40" on="0"/>
        <pt x="450" y="40" on="1"/>
        <pt x="464" y="40" on="0"/>
        <pt x="483" y="36" on="0"/>
        <pt x="483" y="25" on="1"/>
        <pt x="483" y="6" on="0"/>
        <pt x="465" y="0" on="0"/>
        <pt x="460" y="0" on="1"/>
        <pt x="444" y="0" on="0"/>
        <pt x="410" y="3" on="0"/>
        <pt x="393" y="3" on="1"/>
        <pt x="366" y="3" on="0"/>
        <pt x="354" y="4" on="0"/>
        <pt x="354" y="4" on="0"/>
        <pt x="347" y="4" on="0"/>
        <pt x="324" y="4" on="1"/>
        <pt x="313" y="4" on="0"/>
        <pt x="277" y="3" on="0"/>
        <pt x="238" y="1" on="0"/>
        <pt x="202" y="0" on="0"/>
        <pt x="191" y="0" on="1"/>
        <pt x="180" y="0" on="0"/>
        <pt x="175" y="11" on="0"/>
        <pt x="174" y="14" on="1"/>
        <pt x="174" y="18" on="0"/>
        <pt x="179" y="33" on="0"/>
        <pt x="182" y="36" on="1"/>
        <pt x="185" y="39" on="0"/>
        <pt x="193" y="40" on="0"/>
        <pt x="208" y="40" on="1"/>
        <pt x="236" y="40" on="0"/>
        <pt x="268" y="42" on="0"/>
        <pt x="286" y="52" on="0"/>
        <pt x="295" y="72" on="0"/>
        <pt x="300" y="91" on="1"/>
        <pt x="345" y="274" on="1"/>
        <pt x="177" y="616" on="1"/>
        <pt x="174" y="623" on="0"/>
        <pt x="166" y="633" on="0"/>
        <pt x="150" y="640" on="0"/>
        <pt x="124" y="643" on="0"/>
        <pt x="101" y="643" on="1"/>
        <pt x="90" y="643" on="0"/>
        <pt x="73" y="647" on="0"/>
        <pt x="73" y="658" on="1"/>
        <pt x="73" y="677" on="0"/>
        <pt x="90" y="683" on="0"/>
        <pt x="95" y="683" on="1"/>
        <pt x="109" y="683" on="0"/>
        <pt x="141" y="680" on="0"/>
        <pt x="156" y="680" on="1"/>
        <pt x="171" y="680" on="0"/>
        <pt x="200" y="679" on="0"/>
        <pt x="215" y="679" on="1"/>
        <pt x="285" y="680" on="1"/>
        <pt x="301" y="680" on="0"/>
        <pt x="336" y="683" on="0"/>
        <pt x="352" y="683" on="1"/>
        <pt x="364" y="683" on="0"/>
        <pt x="370" y="670" on="0"/>
        <pt x="370" y="668" on="1"/>
        <pt x="370" y="649" on="0"/>
        <pt x="351" y="643" on="0"/>
        <pt x="343" y="643" on="1"/>
        <pt x="341" y="643" on="0"/>
        <pt x="323" y="643" on="0"/>
        <pt x="304" y="640" on="0"/>
        <pt x="289" y="633" on="0"/>
        <pt x="289" y="627" on="1"/>
        <pt x="289" y="625" on="0"/>
        <pt x="292" y="615" on="0"/>
        <pt x="294" y="613" on="1"/>
        <pt x="437" y="322" on="1"/>
        <pt x="672" y="559" on="1"/>
        <pt x="694" y="582" on="0"/>
        <pt x="724" y="615" on="0"/>
        <pt x="724" y="627" on="1"/>
        <pt x="724" y="638" on="0"/>
        <pt x="701" y="642" on="0"/>
        <pt x="693" y="643" on="1"/>
        <pt x="679" y="644" on="0"/>
        <pt x="675" y="657" on="0"/>
        <pt x="675" y="658" on="1"/>
        <pt x="675" y="672" on="0"/>
        <pt x="688" y="683" on="0"/>
        <pt x="697" y="683" on="1"/>
        <pt x="706" y="683" on="0"/>
        <pt x="735" y="682" on="0"/>
        <pt x="767" y="680" on="0"/>
        <pt x="796" y="679" on="0"/>
        <pt x="805" y="679" on="1"/>
        <pt x="826" y="679" on="0"/>
        <pt x="871" y="683" on="0"/>
        <pt x="891" y="683" on="1"/>
        <pt x="897" y="683" on="0"/>
        <pt x="906" y="673" on="0"/>
        <pt x="906" y="668" on="1"/>
        <pt x="906" y="651" on="0"/>
        <pt x="890" y="644" on="0"/>
        <pt x="881" y="643" on="1"/>
        <pt x="856" y="641" on="0"/>
        <pt x="819" y="630" on="0"/>
        <pt x="789" y="614" on="0"/>
        <pt x="763" y="594" on="0"/>
        <pt x="749" y="583" on="1"/>
        <pt x="724" y="561" on="1"/>
      </contour>
    </TTGlyph>
    <TTGlyph name="Z" xMin="97" yMin="0" xMax="842" yMax="683">
      <contour>
        <pt x="224" y="43" on="1"/>
        <pt x="427" y="43" on="1"/>
        <pt x="494" y="43" on="0"/>
        <pt x="584" y="68" on="0"/>
        <pt x="647" y="121" on="0"/>
        <pt x="689" y="201" on="0"/>
        <pt x="708" y="255" on="1"/>
        <pt x="712" y="266" on="0"/>
        <pt x="718" y="276" on="0"/>
        <pt x="729" y="276" on="1"/>
        <pt x="737" y="276" on="0"/>
        <pt x="747" y="269" on="0"/>
        <pt x="747" y="261" on="1"/>
        <pt x="747" y="259" on="0"/>
        <pt x="735" y="221" on="0"/>
        <pt x="717" y="164" on="0"/>
        <pt x="695" y="100" on="0"/>
        <pt x="677" y="45" on="0"/>
        <pt x="665" y="8" on="0"/>
        <pt x="665" y="8" on="1"/>
        <pt x="664" y="7" on="0"/>
        <pt x="661" y="5" on="0"/>
        <pt x="655" y="0" on="1"/>
        <pt x="124" y="0" on="1"/>
        <pt x="110" y="0" on="0"/>
        <pt x="97" y="3" on="0"/>
        <pt x="97" y="12" on="1"/>
        <pt x="97" y="25" on="0"/>
        <pt x="110" y="43" on="0"/>
        <pt x="114" y="47" on="1"/>
        <pt x="716" y="643" on="1"/>
        <pt x="524" y="643" on="1"/>
        <pt x="483" y="643" on="0"/>
        <pt x="406" y="631" on="0"/>
        <pt x="340" y="594" on="0"/>
        <pt x="285" y="526" on="0"/>
        <pt x="265" y="470" on="1"/>
        <pt x="260" y="457" on="0"/>
        <pt x="254" y="449" on="0"/>
        <pt x="244" y="449" on="1"/>
        <pt x="241" y="449" on="0"/>
        <pt x="225" y="453" on="0"/>
        <pt x="225" y="464" on="1"/>
        <pt x="225" y="466" on="0"/>
        <pt x="228" y="477" on="0"/>
        <pt x="229" y="480" on="1"/>
        <pt x="286" y="661" on="1"/>
        <pt x="291" y="678" on="0"/>
        <pt x="302" y="683" on="0"/>
        <pt x="321" y="683" on="1"/>
        <pt x="814" y="683" on="1"/>
        <pt x="830" y="683" on="0"/>
        <pt x="842" y="680" on="0"/>
        <pt x="842" y="670" on="1"/>
        <pt x="842" y="659" on="0"/>
        <pt x="831" y="644" on="0"/>
        <pt x="826" y="639" on="1"/>
      </contour>
    </TTGlyph>
    <TTGlyph name="a" xMin="75" yMin="-10" xMax="613" yMax="441">
      <contour>
        <pt x="477" y="153" on="1"/>
        <pt x="472" y="133" on="0"/>
        <pt x="460" y="84" on="0"/>
        <pt x="460" y="74" on="1"/>
        <pt x="460" y="68" on="0"/>
        <pt x="462" y="51" on="0"/>
        <pt x="470" y="35" on="0"/>
        <pt x="484" y="23" on="0"/>
        <pt x="497" y="23" on="1"/>
        <pt x="526" y="23" on="0"/>
        <pt x="561" y="89" on="0"/>
        <pt x="573" y="135" on="1"/>
        <pt x="576" y="147" on="0"/>
        <pt x="583" y="158" on="0"/>
        <pt x="594" y="158" on="1"/>
        <pt x="608" y="158" on="0"/>
        <pt x="613" y="146" on="0"/>
        <pt x="613" y="144" on="1"/>
        <pt x="613" y="142" on="0"/>
        <pt x="608" y="121" on="0"/>
        <pt x="598" y="91" on="0"/>
        <pt x="583" y="56" on="0"/>
        <pt x="574" y="41" on="1"/>
        <pt x="560" y="18" on="0"/>
        <pt x="520" y="-10" on="0"/>
        <pt x="493" y="-10" on="1"/>
        <pt x="485" y="-10" on="0"/>
        <pt x="454" y="-6" on="0"/>
        <pt x="421" y="9" on="0"/>
        <pt x="392" y="37" on="0"/>
        <pt x="385" y="61" on="1"/>
        <pt x="376" y="52" on="0"/>
        <pt x="346" y="27" on="0"/>
        <pt x="307" y="5" on="0"/>
        <pt x="261" y="-10" on="0"/>
        <pt x="236" y="-10" on="1"/>
        <pt x="204" y="-10" on="0"/>
        <pt x="146" y="13" on="0"/>
        <pt x="101" y="56" on="0"/>
        <pt x="75" y="120" on="0"/>
        <pt x="75" y="160" on="1"/>
        <pt x="75" y="215" on="0"/>
        <pt x="122" y="317" on="0"/>
        <pt x="198" y="395" on="0"/>
        <pt x="293" y="441" on="0"/>
        <pt x="341" y="441" on="1"/>
        <pt x="364" y="441" on="0"/>
        <pt x="401" y="429" on="0"/>
        <pt x="428" y="411" on="0"/>
        <pt x="446" y="390" on="0"/>
        <pt x="451" y="381" on="1"/>
        <pt x="453" y="392" on="0"/>
        <pt x="478" y="422" on="0"/>
        <pt x="499" y="422" on="1"/>
        <pt x="513" y="422" on="0"/>
        <pt x="534" y="406" on="0"/>
        <pt x="534" y="389" on="1"/>
        <pt x="534" y="386" on="0"/>
        <pt x="531" y="371" on="0"/>
        <pt x="526" y="351" on="0"/>
        <pt x="521" y="330" on="0"/>
        <pt x="519" y="321" on="1"/>
      </contour>
      <contour>
        <pt x="436" y="322" on="1"/>
        <pt x="436" y="325" on="0"/>
        <pt x="428" y="352" on="0"/>
        <pt x="407" y="383" on="0"/>
        <pt x="370" y="408" on="0"/>
        <pt x="342" y="408" on="1"/>
        <pt x="306" y="408" on="0"/>
        <pt x="236" y="358" on="0"/>
        <pt x="213" y="317" on="1"/>
        <pt x="201" y="296" on="0"/>
        <pt x="181" y="241" on="0"/>
        <pt x="168" y="185" on="0"/>
        <pt x="160" y="136" on="0"/>
        <pt x="160" y="121" on="1"/>
        <pt x="160" y="68" on="0"/>
        <pt x="209" y="23" on="0"/>
        <pt x="239" y="23" on="1"/>
        <pt x="248" y="23" on="0"/>
        <pt x="276" y="28" on="0"/>
        <pt x="310" y="44" on="0"/>
        <pt x="349" y="73" on="0"/>
        <pt x="370" y="96" on="1"/>
        <pt x="381" y="107" on="0"/>
        <pt x="385" y="118" on="0"/>
        <pt x="389" y="131" on="1"/>
      </contour>
    </TTGlyph>
    <TTGlyph name="alpha" xMin="76" yMin="-10" xMax="722" yMax="441">
      <contour>
        <pt x="587" y="141" on="1"/>
        <pt x="590" y="97" on="0"/>
        <pt x="599" y="49" on="0"/>
        <pt x="610" y="27" on="0"/>
        <pt x="622" y="23" on="0"/>
        <pt x="628" y="23" on="1"/>
        <pt x="642" y="23" on="0"/>
        <pt x="677" y="41" on="0"/>
        <pt x="684" y="60" on="1"/>
        <pt x="688" y="70" on="0"/>
        <pt x="696" y="74" on="0"/>
        <pt x="704" y="74" on="1"/>
        <pt x="707" y="74" on="0"/>
        <pt x="722" y="71" on="0"/>
        <pt x="722" y="60" on="1"/>
        <pt x="722" y="51" on="0"/>
        <pt x="708" y="27" on="0"/>
        <pt x="683" y="5" on="0"/>
        <pt x="647" y="-10" on="0"/>
        <pt x="625" y="-10" on="1"/>
        <pt x="602" y="-10" on="0"/>
        <pt x="566" y="5" on="0"/>
        <pt x="539" y="29" on="0"/>
        <pt x="520" y="60" on="0"/>
        <pt x="514" y="76" on="1"/>
        <pt x="476" y="49" on="0"/>
        <pt x="406" y="15" on="0"/>
        <pt x="343" y="-3" on="0"/>
        <pt x="291" y="-10" on="0"/>
        <pt x="271" y="-10" on="1"/>
        <pt x="227" y="-10" on="0"/>
        <pt x="155" y="17" on="0"/>
        <pt x="104" y="64" on="0"/>
        <pt x="76" y="129" on="0"/>
        <pt x="76" y="168" on="1"/>
        <pt x="76" y="220" on="0"/>
        <pt x="126" y="318" on="0"/>
        <pt x="210" y="395" on="0"/>
        <pt x="318" y="441" on="0"/>
        <pt x="375" y="441" on="1"/>
        <pt x="411" y="441" on="0"/>
        <pt x="481" y="419" on="0"/>
        <pt x="537" y="374" on="0"/>
        <pt x="575" y="305" on="0"/>
        <pt x="580" y="258" on="1"/>
        <pt x="582" y="241" on="0"/>
        <pt x="582" y="207" on="0"/>
        <pt x="584" y="190" on="1"/>
        <pt x="594" y="202" on="0"/>
        <pt x="619" y="237" on="0"/>
        <pt x="646" y="283" on="0"/>
        <pt x="670" y="338" on="0"/>
        <pt x="679" y="369" on="1"/>
        <pt x="683" y="383" on="0"/>
        <pt x="689" y="393" on="0"/>
        <pt x="700" y="393" on="1"/>
        <pt x="702" y="393" on="0"/>
        <pt x="718" y="390" on="0"/>
        <pt x="718" y="379" on="1"/>
        <pt x="718" y="378" on="0"/>
        <pt x="707" y="336" on="0"/>
        <pt x="679" y="268" on="0"/>
        <pt x="628" y="184" on="0"/>
      </contour>
      <contour>
        <pt x="506" y="112" on="1"/>
        <pt x="501" y="157" on="0"/>
        <pt x="499" y="245" on="0"/>
        <pt x="493" y="277" on="1"/>
        <pt x="482" y="336" on="0"/>
        <pt x="426" y="408" on="0"/>
        <pt x="373" y="408" on="1"/>
        <pt x="357" y="408" on="0"/>
        <pt x="318" y="399" on="0"/>
        <pt x="278" y="379" on="0"/>
        <pt x="238" y="345" on="0"/>
        <pt x="221" y="321" on="1"/>
        <pt x="205" y="299" on="0"/>
        <pt x="183" y="245" on="0"/>
        <pt x="169" y="193" on="0"/>
        <pt x="163" y="148" on="0"/>
        <pt x="163" y="135" on="1"/>
        <pt x="163" y="81" on="0"/>
        <pt x="224" y="23" on="0"/>
        <pt x="273" y="23" on="1"/>
        <pt x="290" y="23" on="0"/>
        <pt x="340" y="29" on="0"/>
        <pt x="400" y="48" on="0"/>
        <pt x="469" y="83" on="0"/>
      </contour>
    </TTGlyph>
    <TTGlyph name="b" xMin="80" yMin="-10" xMax="505" yMax="694">
      <contour>
        <pt x="211" y="386" on="1"/>
        <pt x="218" y="392" on="0"/>
        <pt x="244" y="411" on="0"/>
        <pt x="279" y="429" on="0"/>
        <pt x="320" y="441" on="0"/>
        <pt x="343" y="441" on="1"/>
        <pt x="377" y="441" on="0"/>
        <pt x="436" y="417" on="0"/>
        <pt x="480" y="372" on="0"/>
        <pt x="505" y="310" on="0"/>
        <pt x="505" y="271" on="1"/>
        <pt x="505" y="217" on="0"/>
        <pt x="459" y="116" on="0"/>
        <pt x="384" y="38" on="0"/>
        <pt x="287" y="-10" on="0"/>
        <pt x="237" y="-10" on="1"/>
        <pt x="206" y="-10" on="0"/>
        <pt x="150" y="11" on="0"/>
        <pt x="106" y="54" on="0"/>
        <pt x="80" y="117" on="0"/>
        <pt x="80" y="159" on="1"/>
        <pt x="80" y="168" on="0"/>
        <pt x="81" y="193" on="0"/>
        <pt x="85" y="211" on="1"/>
        <pt x="87" y="216" on="0"/>
        <pt x="101" y="272" on="0"/>
        <pt x="117" y="340" on="0"/>
        <pt x="133" y="402" on="0"/>
        <pt x="136" y="413" on="1"/>
        <pt x="182" y="597" on="1"/>
        <pt x="186" y="612" on="0"/>
        <pt x="187" y="623" on="0"/>
        <pt x="188" y="636" on="1"/>
        <pt x="178" y="639" on="0"/>
        <pt x="161" y="643" on="0"/>
        <pt x="139" y="643" on="1"/>
        <pt x="127" y="643" on="0"/>
        <pt x="110" y="647" on="0"/>
        <pt x="110" y="658" on="1"/>
        <pt x="110" y="676" on="0"/>
        <pt x="127" y="683" on="0"/>
        <pt x="140" y="684" on="1"/>
        <pt x="252" y="693" on="1"/>
        <pt x="261" y="694" on="0"/>
        <pt x="284" y="691" on="0"/>
        <pt x="284" y="679" on="1"/>
        <pt x="284" y="675" on="0"/>
        <pt x="282" y="667" on="0"/>
        <pt x="281" y="664" on="1"/>
      </contour>
      <contour>
        <pt x="193" y="316" on="1"/>
        <pt x="192" y="309" on="0"/>
        <pt x="186" y="286" on="0"/>
        <pt x="180" y="261" on="0"/>
        <pt x="173" y="236" on="0"/>
        <pt x="171" y="227" on="1"/>
        <pt x="166" y="207" on="0"/>
        <pt x="160" y="180" on="0"/>
        <pt x="156" y="158" on="0"/>
        <pt x="155" y="139" on="0"/>
        <pt x="155" y="127" on="1"/>
        <pt x="155" y="95" on="0"/>
        <pt x="172" y="54" on="0"/>
        <pt x="198" y="31" on="0"/>
        <pt x="226" y="23" on="0"/>
        <pt x="238" y="23" on="1"/>
        <pt x="269" y="23" on="0"/>
        <pt x="337" y="65" on="0"/>
        <pt x="363" y="107" on="1"/>
        <pt x="377" y="129" on="0"/>
        <pt x="398" y="188" on="0"/>
        <pt x="413" y="247" on="0"/>
        <pt x="420" y="297" on="0"/>
        <pt x="420" y="310" on="1"/>
        <pt x="420" y="354" on="0"/>
        <pt x="378" y="408" on="0"/>
        <pt x="340" y="408" on="1"/>
        <pt x="318" y="408" on="0"/>
        <pt x="276" y="391" on="0"/>
        <pt x="237" y="365" on="0"/>
        <pt x="205" y="332" on="0"/>
      </contour>
    </TTGlyph>
    <TTGlyph name="beta" xMin="62" yMin="-194" xMax="670" yMax="705">
      <contour>
        <pt x="670" y="569" on="1"/>
        <pt x="670" y="521" on="0"/>
        <pt x="617" y="435" on="0"/>
        <pt x="554" y="395" on="1"/>
        <pt x="600" y="363" on="0"/>
        <pt x="635" y="281" on="0"/>
        <pt x="635" y="240" on="1"/>
        <pt x="635" y="182" on="0"/>
        <pt x="577" y="89" on="0"/>
        <pt x="487" y="25" on="0"/>
        <pt x="377" y="-10" on="0"/>
        <pt x="325" y="-10" on="1"/>
        <pt x="276" y="-10" on="0"/>
        <pt x="190" y="32" on="0"/>
        <pt x="167" y="78" on="1"/>
        <pt x="164" y="67" on="0"/>
        <pt x="152" y="19" on="0"/>
        <pt x="138" y="-39" on="0"/>
        <pt x="123" y="-100" on="0"/>
        <pt x="110" y="-151" on="0"/>
        <pt x="101" y="-184" on="0"/>
        <pt x="101" y="-184" on="1"/>
        <pt x="99" y="-191" on="0"/>
        <pt x="91" y="-194" on="0"/>
        <pt x="84" y="-194" on="1"/>
        <pt x="76" y="-194" on="0"/>
        <pt x="62" y="-189" on="0"/>
        <pt x="64" y="-181" on="1"/>
        <pt x="221" y="447" on="1"/>
        <pt x="232" y="490" on="0"/>
        <pt x="282" y="581" on="0"/>
        <pt x="353" y="656" on="0"/>
        <pt x="442" y="705" on="0"/>
        <pt x="490" y="705" on="1"/>
        <pt x="532" y="705" on="0"/>
        <pt x="598" y="683" on="0"/>
        <pt x="645" y="646" on="0"/>
        <pt x="670" y="597" on="0"/>
      </contour>
      <contour>
        <pt x="453" y="396" on="1"/>
        <pt x="442" y="397" on="0"/>
        <pt x="422" y="398" on="0"/>
        <pt x="413" y="398" on="1"/>
        <pt x="389" y="398" on="0"/>
        <pt x="365" y="395" on="1"/>
        <pt x="370" y="393" on="0"/>
        <pt x="400" y="392" on="0"/>
        <pt x="408" y="392" on="1"/>
        <pt x="416" y="392" on="0"/>
        <pt x="445" y="394" on="0"/>
      </contour>
      <contour>
        <pt x="599" y="579" on="1"/>
        <pt x="599" y="629" on="0"/>
        <pt x="536" y="672" on="0"/>
        <pt x="491" y="672" on="1"/>
        <pt x="449" y="672" on="0"/>
        <pt x="373" y="628" on="0"/>
        <pt x="311" y="560" on="0"/>
        <pt x="268" y="479" on="0"/>
        <pt x="259" y="443" on="1"/>
        <pt x="191" y="172" on="1"/>
        <pt x="189" y="166" on="0"/>
        <pt x="189" y="154" on="0"/>
        <pt x="189" y="147" on="1"/>
        <pt x="189" y="118" on="0"/>
        <pt x="211" y="72" on="0"/>
        <pt x="248" y="40" on="0"/>
        <pt x="297" y="23" on="0"/>
        <pt x="324" y="23" on="1"/>
        <pt x="377" y="23" on="0"/>
        <pt x="463" y="61" on="0"/>
        <pt x="524" y="126" on="0"/>
        <pt x="557" y="215" on="0"/>
        <pt x="557" y="266" on="1"/>
        <pt x="557" y="311" on="0"/>
        <pt x="527" y="360" on="0"/>
        <pt x="506" y="375" on="1"/>
        <pt x="497" y="370" on="0"/>
        <pt x="469" y="363" on="0"/>
        <pt x="438" y="360" on="0"/>
        <pt x="407" y="359" on="0"/>
        <pt x="396" y="359" on="1"/>
        <pt x="385" y="359" on="0"/>
        <pt x="358" y="361" on="0"/>
        <pt x="335" y="367" on="0"/>
        <pt x="319" y="381" on="0"/>
        <pt x="319" y="393" on="1"/>
        <pt x="319" y="407" on="0"/>
        <pt x="340" y="422" on="0"/>
        <pt x="369" y="429" on="0"/>
        <pt x="401" y="431" on="0"/>
        <pt x="412" y="431" on="1"/>
        <pt x="437" y="431" on="0"/>
        <pt x="486" y="426" on="0"/>
        <pt x="509" y="418" on="1"/>
        <pt x="527" y="428" on="0"/>
        <pt x="559" y="461" on="0"/>
        <pt x="584" y="503" on="0"/>
        <pt x="599" y="552" on="0"/>
      </contour>
    </TTGlyph>
    <TTGlyph name="c" xMin="75" yMin="-10" xMax="533" yMax="441">
      <contour>
        <pt x="464" y="384" on="1"/>
        <pt x="453" y="393" on="0"/>
        <pt x="424" y="403" on="0"/>
        <pt x="397" y="407" on="0"/>
        <pt x="378" y="408" on="0"/>
        <pt x="376" y="408" on="1"/>
        <pt x="348" y="408" on="0"/>
        <pt x="300" y="391" on="0"/>
        <pt x="263" y="369" on="0"/>
        <pt x="239" y="345" on="0"/>
        <pt x="233" y="339" on="1"/>
        <pt x="207" y="307" on="0"/>
        <pt x="178" y="236" on="0"/>
        <pt x="165" y="176" on="0"/>
        <pt x="162" y="136" on="0"/>
        <pt x="162" y="135" on="1"/>
        <pt x="162" y="113" on="0"/>
        <pt x="174" y="73" on="0"/>
        <pt x="201" y="42" on="0"/>
        <pt x="244" y="23" on="0"/>
        <pt x="275" y="23" on="1"/>
        <pt x="302" y="23" on="0"/>
        <pt x="361" y="31" on="0"/>
        <pt x="420" y="50" on="0"/>
        <pt x="473" y="82" on="0"/>
        <pt x="493" y="105" on="1"/>
        <pt x="504" y="116" on="0"/>
        <pt x="510" y="121" on="0"/>
        <pt x="514" y="121" on="1"/>
        <pt x="520" y="121" on="0"/>
        <pt x="533" y="108" on="0"/>
        <pt x="533" y="101" on="1"/>
        <pt x="533" y="97" on="0"/>
        <pt x="505" y="61" on="0"/>
        <pt x="442" y="22" on="0"/>
        <pt x="344" y="-10" on="0"/>
        <pt x="273" y="-10" on="1"/>
        <pt x="225" y="-10" on="0"/>
        <pt x="151" y="19" on="0"/>
        <pt x="101" y="68" on="0"/>
        <pt x="75" y="132" on="0"/>
        <pt x="75" y="168" on="1"/>
        <pt x="75" y="220" on="0"/>
        <pt x="125" y="318" on="0"/>
        <pt x="209" y="395" on="0"/>
        <pt x="317" y="441" on="0"/>
        <pt x="375" y="441" on="1"/>
        <pt x="399" y="441" on="0"/>
        <pt x="449" y="432" on="0"/>
        <pt x="489" y="412" on="0"/>
        <pt x="515" y="378" on="0"/>
        <pt x="515" y="354" on="1"/>
        <pt x="515" y="336" on="0"/>
        <pt x="504" y="311" on="0"/>
        <pt x="486" y="296" on="0"/>
        <pt x="466" y="289" on="0"/>
        <pt x="457" y="289" on="1"/>
        <pt x="441" y="289" on="0"/>
        <pt x="417" y="308" on="0"/>
        <pt x="417" y="327" on="1"/>
        <pt x="417" y="341" on="0"/>
        <pt x="428" y="361" on="0"/>
        <pt x="443" y="375" on="0"/>
        <pt x="459" y="383" on="0"/>
      </contour>
    </TTGlyph>
    <TTGlyph name="chi" xMin="65" yMin="-204" xMax="702" yMax="441">
      <contour>
        <pt x="424" y="133" on="1"/>
        <pt x="445" y="82" on="0"/>
        <pt x="469" y="24" on="0"/>
        <pt x="484" y="-10" on="0"/>
        <pt x="494" y="-32" on="0"/>
        <pt x="502" y="-47" on="1"/>
        <pt x="507" y="-56" on="0"/>
        <pt x="528" y="-97" on="0"/>
        <pt x="557" y="-139" on="0"/>
        <pt x="588" y="-171" on="0"/>
        <pt x="601" y="-171" on="1"/>
        <pt x="615" y="-171" on="0"/>
        <pt x="650" y="-152" on="0"/>
        <pt x="658" y="-132" on="1"/>
        <pt x="660" y="-125" on="0"/>
        <pt x="666" y="-117" on="0"/>
        <pt x="677" y="-117" on="1"/>
        <pt x="690" y="-117" on="0"/>
        <pt x="695" y="-129" on="0"/>
        <pt x="695" y="-131" on="1"/>
        <pt x="695" y="-138" on="0"/>
        <pt x="683" y="-163" on="0"/>
        <pt x="658" y="-187" on="0"/>
        <pt x="620" y="-204" on="0"/>
        <pt x="593" y="-204" on="1"/>
        <pt x="554" y="-204" on="0"/>
        <pt x="503" y="-188" on="0"/>
        <pt x="470" y="-164" on="0"/>
        <pt x="452" y="-138" on="0"/>
        <pt x="446" y="-127" on="1"/>
        <pt x="436" y="-109" on="0"/>
        <pt x="420" y="-79" on="0"/>
        <pt x="402" y="-39" on="0"/>
        <pt x="377" y="20" on="0"/>
        <pt x="357" y="67" on="1"/>
        <pt x="169" y="-116" on="1"/>
        <pt x="163" y="-122" on="0"/>
        <pt x="145" y="-140" on="0"/>
        <pt x="126" y="-160" on="0"/>
        <pt x="107" y="-178" on="0"/>
        <pt x="101" y="-184" on="1"/>
        <pt x="94" y="-189" on="0"/>
        <pt x="88" y="-194" on="0"/>
        <pt x="83" y="-194" on="1"/>
        <pt x="76" y="-194" on="0"/>
        <pt x="65" y="-184" on="0"/>
        <pt x="65" y="-176" on="1"/>
        <pt x="65" y="-174" on="0"/>
        <pt x="66" y="-170" on="0"/>
        <pt x="69" y="-166" on="1"/>
        <pt x="71" y="-162" on="0"/>
        <pt x="84" y="-150" on="0"/>
        <pt x="87" y="-147" on="1"/>
        <pt x="258" y="21" on="1"/>
        <pt x="264" y="26" on="0"/>
        <pt x="281" y="44" on="0"/>
        <pt x="300" y="62" on="0"/>
        <pt x="317" y="79" on="0"/>
        <pt x="323" y="84" on="1"/>
        <pt x="331" y="91" on="0"/>
        <pt x="337" y="97" on="0"/>
        <pt x="343" y="104" on="1"/>
        <pt x="339" y="115" on="0"/>
        <pt x="318" y="168" on="0"/>
        <pt x="289" y="236" on="0"/>
        <pt x="253" y="309" on="0"/>
        <pt x="217" y="369" on="0"/>
        <pt x="181" y="408" on="0"/>
        <pt x="166" y="408" on="1"/>
        <pt x="165" y="408" on="0"/>
        <pt x="151" y="406" on="0"/>
        <pt x="133" y="398" on="0"/>
        <pt x="115" y="381" on="0"/>
        <pt x="109" y="366" on="1"/>
        <pt x="107" y="362" on="0"/>
        <pt x="101" y="354" on="0"/>
        <pt x="91" y="354" on="1"/>
        <pt x="84" y="354" on="0"/>
        <pt x="72" y="360" on="0"/>
        <pt x="72" y="368" on="1"/>
        <pt x="72" y="375" on="0"/>
        <pt x="84" y="399" on="0"/>
        <pt x="109" y="423" on="0"/>
        <pt x="147" y="441" on="0"/>
        <pt x="174" y="441" on="1"/>
        <pt x="212" y="441" on="0"/>
        <pt x="263" y="425" on="0"/>
        <pt x="296" y="403" on="0"/>
        <pt x="313" y="378" on="0"/>
        <pt x="318" y="370" on="1"/>
        <pt x="330" y="349" on="0"/>
        <pt x="350" y="310" on="0"/>
        <pt x="370" y="265" on="0"/>
        <pt x="394" y="209" on="0"/>
        <pt x="410" y="170" on="1"/>
        <pt x="423" y="182" on="0"/>
        <pt x="456" y="213" on="0"/>
        <pt x="492" y="249" on="0"/>
        <pt x="529" y="286" on="0"/>
        <pt x="546" y="303" on="1"/>
        <pt x="552" y="309" on="0"/>
        <pt x="571" y="327" on="0"/>
        <pt x="592" y="347" on="0"/>
        <pt x="610" y="366" on="0"/>
        <pt x="616" y="372" on="1"/>
        <pt x="667" y="422" on="1"/>
        <pt x="672" y="427" on="0"/>
        <pt x="679" y="431" on="0"/>
        <pt x="684" y="431" on="1"/>
        <pt x="692" y="431" on="0"/>
        <pt x="702" y="421" on="0"/>
        <pt x="702" y="413" on="1"/>
        <pt x="702" y="408" on="0"/>
        <pt x="697" y="401" on="0"/>
        <pt x="689" y="393" on="1"/>
      </contour>
    </TTGlyph>
    <TTGlyph name="comma" xMin="129" yMin="-194" xMax="263" yMax="121">
      <contour>
        <pt x="230" y="14" on="1"/>
        <pt x="215" y="0" on="0"/>
        <pt x="190" y="0" on="1"/>
        <pt x="160" y="0" on="0"/>
        <pt x="129" y="38" on="0"/>
        <pt x="129" y="61" on="1"/>
        <pt x="129" y="83" on="0"/>
        <pt x="160" y="121" on="0"/>
        <pt x="189" y="121" on="1"/>
        <pt x="225" y="121" on="0"/>
        <pt x="263" y="57" on="0"/>
        <pt x="263" y="9" on="1"/>
        <pt x="263" y="-37" on="0"/>
        <pt x="234" y="-112" on="0"/>
        <pt x="198" y="-165" on="0"/>
        <pt x="164" y="-194" on="0"/>
        <pt x="159" y="-194" on="1"/>
        <pt x="153" y="-194" on="0"/>
        <pt x="142" y="-183" on="0"/>
        <pt x="142" y="-176" on="1"/>
        <pt x="142" y="-171" on="0"/>
        <pt x="147" y="-166" on="0"/>
        <pt x="155" y="-158" on="1"/>
        <pt x="164" y="-150" on="0"/>
        <pt x="190" y="-121" on="0"/>
        <pt x="214" y="-78" on="0"/>
        <pt x="230" y="-22" on="0"/>
      </contour>
    </TTGlyph>
    <TTGlyph name="d" xMin="75" yMin="-10" xMax="613" yMax="694">
      <contour>
        <pt x="465" y="108" on="1"/>
        <pt x="461" y="94" on="0"/>
        <pt x="460" y="84" on="0"/>
        <pt x="460" y="74" on="1"/>
        <pt x="460" y="68" on="0"/>
        <pt x="462" y="51" on="0"/>
        <pt x="470" y="35" on="0"/>
        <pt x="484" y="23" on="0"/>
        <pt x="497" y="23" on="1"/>
        <pt x="526" y="23" on="0"/>
        <pt x="561" y="89" on="0"/>
        <pt x="573" y="135" on="1"/>
        <pt x="576" y="147" on="0"/>
        <pt x="583" y="158" on="0"/>
        <pt x="594" y="158" on="1"/>
        <pt x="608" y="158" on="0"/>
        <pt x="613" y="146" on="0"/>
        <pt x="613" y="144" on="1"/>
        <pt x="613" y="142" on="0"/>
        <pt x="608" y="121" on="0"/>
        <pt x="598" y="91" on="0"/>
        <pt x="583" y="56" on="0"/>
        <pt x="574" y="41" on="1"/>
        <pt x="560" y="18" on="0"/>
        <pt x="520" y="-10" on="0"/>
        <pt x="493" y="-10" on="1"/>
        <pt x="485" y="-10" on="0"/>
        <pt x="454" y="-6" on="0"/>
        <pt x="421" y="9" on="0"/>
        <pt x="392" y="37" on="0"/>
        <pt x="385" y="61" on="1"/>
        <pt x="376" y="52" on="0"/>
        <pt x="346" y="27" on="0"/>
        <pt x="307" y="5" on="0"/>
        <pt x="261" y="-10" on="0"/>
        <pt x="236" y="-10" on="1"/>
        <pt x="204" y="-10" on="0"/>
        <pt x="146" y="13" on="0"/>
        <pt x="101" y="56" on="0"/>
        <pt x="75" y="120" on="0"/>
        <pt x="75" y="160" on="1"/>
        <pt x="75" y="215" on="0"/>
        <pt x="122" y="317" on="0"/>
        <pt x="198" y="395" on="0"/>
        <pt x="293" y="441" on="0"/>
        <pt x="341" y="441" on="1"/>
        <pt x="364" y="441" on="0"/>
        <pt x="401" y="429" on="0"/>
        <pt x="428" y="411" on="0"/>
        <pt x="446" y="390" on="0"/>
        <pt x="451" y="381" on="1"/>
        <pt x="466" y="435" on="0"/>
        <pt x="492" y="541" on="0"/>
        <pt x="508" y="606" on="1"/>
        <pt x="510" y="616" on="0"/>
        <pt x="511" y="625" on="0"/>
        <pt x="512" y="636" on="1"/>
        <pt x="502" y="640" on="0"/>
        <pt x="485" y="643" on="0"/>
        <pt x="462" y="643" on="1"/>
        <pt x="451" y="643" on="0"/>
        <pt x="434" y="647" on="0"/>
        <pt x="434" y="659" on="1"/>
        <pt x="434" y="676" on="0"/>
        <pt x="451" y="683" on="0"/>
        <pt x="464" y="684" on="1"/>
        <pt x="576" y="693" on="1"/>
        <pt x="585" y="694" on="0"/>
        <pt x="608" y="691" on="0"/>
        <pt x="608" y="679" on="1"/>
        <pt x="608" y="675" on="0"/>
        <pt x="606" y="667" on="0"/>
        <pt x="605" y="664" on="1"/>
      </contour>
      <contour>
        <pt x="436" y="322" on="1"/>
        <pt x="436" y="325" on="0"/>
        <pt x="428" y="352" on="0"/>
        <pt x="407" y="383" on="0"/>
        <pt x="370" y="408" on="0"/>
        <pt x="342" y="408" on="1"/>
        <pt x="306" y="408" on="0"/>
        <pt x="236" y="358" on="0"/>
        <pt x="213" y="317" on="1"/>
        <pt x="201" y="296" on="0"/>
        <pt x="181" y="241" on="0"/>
        <pt x="168" y="185" on="0"/>
        <pt x="160" y="136" on="0"/>
        <pt x="160" y="121" on="1"/>
        <pt x="160" y="68" on="0"/>
        <pt x="209" y="23" on="0"/>
        <pt x="239" y="23" on="1"/>
        <pt x="248" y="23" on="0"/>
        <pt x="276" y="28" on="0"/>
        <pt x="310" y="44" on="0"/>
        <pt x="349" y="73" on="0"/>
        <pt x="370" y="96" on="1"/>
        <pt x="381" y="107" on="0"/>
        <pt x="385" y="118" on="0"/>
        <pt x="389" y="131" on="1"/>
      </contour>
    </TTGlyph>
    <TTGlyph name="delta" xMin="74" yMin="-12" xMax="531" yMax="715">
      <contour>
        <pt x="315" y="435" on="1"/>
        <pt x="304" y="452" on="0"/>
        <pt x="278" y="495" on="0"/>
        <pt x="256" y="542" on="0"/>
        <pt x="242" y="589" on="0"/>
        <pt x="242" y="611" on="1"/>
        <pt x="242" y="616" on="0"/>
        <pt x="247" y="650" on="0"/>
        <pt x="270" y="686" on="0"/>
        <pt x="318" y="715" on="0"/>
        <pt x="362" y="715" on="1"/>
        <pt x="370" y="715" on="0"/>
        <pt x="387" y="714" on="0"/>
        <pt x="410" y="711" on="0"/>
        <pt x="442" y="706" on="0"/>
        <pt x="465" y="701" on="1"/>
        <pt x="485" y="697" on="0"/>
        <pt x="510" y="691" on="0"/>
        <pt x="525" y="684" on="0"/>
        <pt x="531" y="672" on="0"/>
        <pt x="531" y="663" on="1"/>
        <pt x="531" y="646" on="0"/>
        <pt x="505" y="619" on="0"/>
        <pt x="488" y="619" on="1"/>
        <pt x="475" y="619" on="0"/>
        <pt x="440" y="636" on="0"/>
        <pt x="429" y="642" on="1"/>
        <pt x="410" y="653" on="0"/>
        <pt x="362" y="674" on="0"/>
        <pt x="334" y="674" on="1"/>
        <pt x="305" y="674" on="0"/>
        <pt x="280" y="645" on="0"/>
        <pt x="280" y="632" on="1"/>
        <pt x="280" y="614" on="0"/>
        <pt x="312" y="561" on="0"/>
        <pt x="353" y="510" on="0"/>
        <pt x="391" y="470" on="0"/>
        <pt x="397" y="464" on="1"/>
        <pt x="408" y="452" on="0"/>
        <pt x="439" y="417" on="0"/>
        <pt x="467" y="369" on="0"/>
        <pt x="487" y="308" on="0"/>
        <pt x="487" y="269" on="1"/>
        <pt x="487" y="212" on="0"/>
        <pt x="451" y="110" on="0"/>
        <pt x="390" y="33" on="0"/>
        <pt x="311" y="-12" on="0"/>
        <pt x="268" y="-12" on="1"/>
        <pt x="224" y="-12" on="0"/>
        <pt x="152" y="16" on="0"/>
        <pt x="101" y="64" on="0"/>
        <pt x="74" y="129" on="0"/>
        <pt x="74" y="166" on="1"/>
        <pt x="74" y="202" on="0"/>
        <pt x="104" y="284" on="0"/>
        <pt x="164" y="359" on="0"/>
        <pt x="255" y="420" on="0"/>
      </contour>
      <contour>
        <pt x="336" y="403" on="1"/>
        <pt x="286" y="393" on="0"/>
        <pt x="216" y="333" on="0"/>
        <pt x="172" y="256" on="0"/>
        <pt x="152" y="174" on="0"/>
        <pt x="152" y="142" on="1"/>
        <pt x="152" y="107" on="0"/>
        <pt x="174" y="60" on="0"/>
        <pt x="208" y="32" on="0"/>
        <pt x="249" y="21" on="0"/>
        <pt x="267" y="21" on="1"/>
        <pt x="300" y="21" on="0"/>
        <pt x="351" y="62" on="0"/>
        <pt x="386" y="124" on="0"/>
        <pt x="404" y="197" on="0"/>
        <pt x="404" y="228" on="1"/>
        <pt x="404" y="245" on="0"/>
        <pt x="399" y="280" on="0"/>
        <pt x="384" y="322" on="0"/>
        <pt x="357" y="372" on="0"/>
      </contour>
    </TTGlyph>
    <TTGlyph name="dotlessi" xMin="61" yMin="-10" xMax="384" yMax="441">
      <contour>
        <pt x="228" y="125" on="1"/>
        <pt x="218" y="102" on="0"/>
        <pt x="209" y="74" on="0"/>
        <pt x="209" y="59" on="1"/>
        <pt x="209" y="23" on="0"/>
        <pt x="236" y="23" on="1"/>
        <pt x="255" y="23" on="0"/>
        <pt x="289" y="43" on="0"/>
        <pt x="317" y="75" on="0"/>
        <pt x="338" y="115" on="0"/>
        <pt x="344" y="134" on="1"/>
        <pt x="349" y="148" on="0"/>
        <pt x="354" y="158" on="0"/>
        <pt x="365" y="158" on="1"/>
        <pt x="379" y="158" on="0"/>
        <pt x="384" y="146" on="0"/>
        <pt x="384" y="144" on="1"/>
        <pt x="384" y="136" on="0"/>
        <pt x="365" y="86" on="0"/>
        <pt x="328" y="32" on="0"/>
        <pt x="271" y="-10" on="0"/>
        <pt x="233" y="-10" on="1"/>
        <pt x="212" y="-10" on="0"/>
        <pt x="176" y="3" on="0"/>
        <pt x="148" y="26" on="0"/>
        <pt x="132" y="58" on="0"/>
        <pt x="132" y="77" on="1"/>
        <pt x="132" y="90" on="0"/>
        <pt x="140" y="114" on="0"/>
        <pt x="150" y="137" on="1"/>
        <pt x="155" y="150" on="0"/>
        <pt x="161" y="165" on="0"/>
        <pt x="165" y="178" on="0"/>
        <pt x="171" y="191" on="0"/>
        <pt x="175" y="202" on="1"/>
        <pt x="227" y="330" on="1"/>
        <pt x="229" y="335" on="0"/>
        <pt x="235" y="357" on="0"/>
        <pt x="235" y="372" on="1"/>
        <pt x="235" y="389" on="0"/>
        <pt x="223" y="408" on="0"/>
        <pt x="208" y="408" on="1"/>
        <pt x="198" y="408" on="0"/>
        <pt x="169" y="398" on="0"/>
        <pt x="138" y="371" on="0"/>
        <pt x="110" y="324" on="0"/>
        <pt x="99" y="288" on="1"/>
        <pt x="97" y="281" on="0"/>
        <pt x="90" y="273" on="0"/>
        <pt x="79" y="273" on="1"/>
        <pt x="68" y="273" on="0"/>
        <pt x="61" y="283" on="0"/>
        <pt x="61" y="287" on="1"/>
        <pt x="61" y="295" on="0"/>
        <pt x="80" y="345" on="0"/>
        <pt x="117" y="399" on="0"/>
        <pt x="174" y="441" on="0"/>
        <pt x="212" y="441" on="1"/>
        <pt x="231" y="441" on="0"/>
        <pt x="267" y="430" on="0"/>
        <pt x="295" y="407" on="0"/>
        <pt x="312" y="375" on="0"/>
        <pt x="312" y="354" on="1"/>
        <pt x="312" y="341" on="0"/>
        <pt x="307" y="325" on="0"/>
        <pt x="305" y="318" on="1"/>
        <pt x="302" y="311" on="0"/>
        <pt x="291" y="283" on="0"/>
        <pt x="288" y="275" on="1"/>
      </contour>
    </TTGlyph>
    <TTGlyph name="e" xMin="80" yMin="-10" xMax="533" yMax="441">
      <contour>
        <pt x="177" y="225" on="1"/>
        <pt x="169" y="196" on="0"/>
        <pt x="166" y="151" on="0"/>
        <pt x="166" y="145" on="1"/>
        <pt x="166" y="121" on="0"/>
        <pt x="178" y="77" on="0"/>
        <pt x="204" y="43" on="0"/>
        <pt x="246" y="23" on="0"/>
        <pt x="276" y="23" on="1"/>
        <pt x="297" y="23" on="0"/>
        <pt x="353" y="30" on="0"/>
        <pt x="413" y="48" on="0"/>
        <pt x="471" y="80" on="0"/>
        <pt x="493" y="105" on="1"/>
        <pt x="504" y="116" on="0"/>
        <pt x="510" y="121" on="0"/>
        <pt x="514" y="121" on="1"/>
        <pt x="520" y="121" on="0"/>
        <pt x="533" y="108" on="0"/>
        <pt x="533" y="101" on="1"/>
        <pt x="533" y="97" on="0"/>
        <pt x="504" y="61" on="0"/>
        <pt x="442" y="21" on="0"/>
        <pt x="344" y="-10" on="0"/>
        <pt x="274" y="-10" on="1"/>
        <pt x="227" y="-10" on="0"/>
        <pt x="155" y="20" on="0"/>
        <pt x="105" y="72" on="0"/>
        <pt x="80" y="142" on="0"/>
        <pt x="80" y="182" on="1"/>
        <pt x="80" y="246" on="0"/>
        <pt x="137" y="343" on="0"/>
        <pt x="224" y="408" on="0"/>
        <pt x="327" y="441" on="0"/>
        <pt x="373" y="441" on="1"/>
        <pt x="437" y="441" on="0"/>
        <pt x="506" y="389" on="0"/>
        <pt x="506" y="352" on="1"/>
        <pt x="506" y="321" on="0"/>
        <pt x="476" y="278" on="0"/>
        <pt x="427" y="250" on="0"/>
        <pt x="365" y="234" on="0"/>
        <pt x="301" y="227" on="0"/>
        <pt x="243" y="225" on="0"/>
        <pt x="221" y="225" on="1"/>
      </contour>
      <contour>
        <pt x="186" y="258" on="1"/>
        <pt x="226" y="258" on="0"/>
        <pt x="322" y="261" on="0"/>
        <pt x="404" y="278" on="0"/>
        <pt x="460" y="316" on="0"/>
        <pt x="460" y="351" on="1"/>
        <pt x="460" y="378" on="0"/>
        <pt x="408" y="408" on="0"/>
        <pt x="373" y="408" on="1"/>
        <pt x="352" y="408" on="0"/>
        <pt x="298" y="394" on="0"/>
        <pt x="244" y="360" on="0"/>
        <pt x="198" y="302" on="0"/>
      </contour>
    </TTGlyph>
    <TTGlyph name="eightoldstyle" xMin="77" yMin="-21" xMax="561" yMax="665">
      <contour>
        <pt x="397" y="360" on="1"/>
        <pt x="427" y="344" on="0"/>
        <pt x="485" y="310" on="0"/>
        <pt x="532" y="266" on="0"/>
        <pt x="561" y="208" on="0"/>
        <pt x="561" y="169" on="1"/>
        <pt x="561" y="127" on="0"/>
        <pt x="522" y="58" on="0"/>
        <pt x="456" y="7" on="0"/>
        <pt x="368" y="-21" on="0"/>
        <pt x="318" y="-21" on="1"/>
        <pt x="274" y="-21" on="0"/>
        <pt x="187" y="1" on="0"/>
        <pt x="119" y="45" on="0"/>
        <pt x="77" y="111" on="0"/>
        <pt x="77" y="154" on="1"/>
        <pt x="77" y="191" on="0"/>
        <pt x="108" y="250" on="0"/>
        <pt x="155" y="295" on="0"/>
        <pt x="212" y="327" on="0"/>
        <pt x="238" y="337" on="1"/>
        <pt x="193" y="362" on="1"/>
        <pt x="179" y="370" on="0"/>
        <pt x="149" y="396" on="0"/>
        <pt x="125" y="430" on="0"/>
        <pt x="109" y="473" on="0"/>
        <pt x="109" y="498" on="1"/>
        <pt x="109" y="534" on="0"/>
        <pt x="142" y="595" on="0"/>
        <pt x="200" y="640" on="0"/>
        <pt x="277" y="665" on="0"/>
        <pt x="320" y="665" on="1"/>
        <pt x="359" y="665" on="0"/>
        <pt x="435" y="645" on="0"/>
        <pt x="493" y="607" on="0"/>
        <pt x="529" y="551" on="0"/>
        <pt x="529" y="515" on="1"/>
        <pt x="529" y="481" on="0"/>
        <pt x="502" y="431" on="0"/>
        <pt x="461" y="394" on="0"/>
        <pt x="415" y="369" on="0"/>
      </contour>
      <contour>
        <pt x="359" y="381" on="1"/>
        <pt x="373" y="387" on="0"/>
        <pt x="412" y="409" on="0"/>
        <pt x="448" y="442" on="0"/>
        <pt x="474" y="487" on="0"/>
        <pt x="474" y="515" on="1"/>
        <pt x="474" y="542" on="0"/>
        <pt x="448" y="585" on="0"/>
        <pt x="405" y="615" on="0"/>
        <pt x="349" y="631" on="0"/>
        <pt x="318" y="631" on="1"/>
        <pt x="290" y="631" on="0"/>
        <pt x="235" y="619" on="0"/>
        <pt x="191" y="595" on="0"/>
        <pt x="164" y="558" on="0"/>
        <pt x="164" y="534" on="1"/>
        <pt x="164" y="517" on="0"/>
        <pt x="177" y="492" on="0"/>
        <pt x="198" y="471" on="0"/>
        <pt x="225" y="455" on="0"/>
        <pt x="239" y="447" on="1"/>
        <pt x="246" y="443" on="0"/>
        <pt x="283" y="423" on="0"/>
        <pt x="322" y="401" on="0"/>
        <pt x="355" y="383" on="0"/>
      </contour>
      <contour>
        <pt x="276" y="316" on="1"/>
        <pt x="264" y="311" on="0"/>
        <pt x="219" y="287" on="0"/>
        <pt x="174" y="248" on="0"/>
        <pt x="140" y="192" on="0"/>
        <pt x="140" y="154" on="1"/>
        <pt x="140" y="122" on="0"/>
        <pt x="170" y="71" on="0"/>
        <pt x="221" y="35" on="0"/>
        <pt x="286" y="16" on="0"/>
        <pt x="320" y="16" on="1"/>
        <pt x="352" y="16" on="0"/>
        <pt x="416" y="31" on="0"/>
        <pt x="467" y="61" on="0"/>
        <pt x="498" y="106" on="0"/>
        <pt x="498" y="136" on="1"/>
        <pt x="498" y="157" on="0"/>
        <pt x="481" y="190" on="0"/>
        <pt x="456" y="215" on="0"/>
        <pt x="428" y="232" on="0"/>
        <pt x="417" y="238" on="1"/>
      </contour>
    </TTGlyph>
    <TTGlyph name="epsilon" xMin="61" yMin="-21" xMax="514" yMax="452">
      <contour>
        <pt x="186" y="221" on="1"/>
        <pt x="168" y="213" on="0"/>
        <pt x="136" y="189" on="0"/>
        <pt x="112" y="161" on="0"/>
        <pt x="98" y="131" on="0"/>
        <pt x="98" y="117" on="1"/>
        <pt x="98" y="93" on="0"/>
        <pt x="133" y="61" on="0"/>
        <pt x="154" y="52" on="1"/>
        <pt x="183" y="41" on="0"/>
        <pt x="248" y="37" on="0"/>
        <pt x="271" y="37" on="1"/>
        <pt x="339" y="37" on="0"/>
        <pt x="417" y="57" on="0"/>
        <pt x="439" y="89" on="1"/>
        <pt x="442" y="95" on="0"/>
        <pt x="449" y="102" on="0"/>
        <pt x="455" y="102" on="1"/>
        <pt x="461" y="102" on="0"/>
        <pt x="471" y="94" on="0"/>
        <pt x="471" y="86" on="1"/>
        <pt x="471" y="82" on="0"/>
        <pt x="451" y="47" on="0"/>
        <pt x="402" y="9" on="0"/>
        <pt x="319" y="-21" on="0"/>
        <pt x="256" y="-21" on="1"/>
        <pt x="210" y="-21" on="0"/>
        <pt x="137" y="1" on="0"/>
        <pt x="87" y="37" on="0"/>
        <pt x="61" y="85" on="0"/>
        <pt x="61" y="111" on="1"/>
        <pt x="61" y="149" on="0"/>
        <pt x="109" y="215" on="0"/>
        <pt x="149" y="239" on="1"/>
        <pt x="149" y="239" on="0"/>
        <pt x="136" y="249" on="0"/>
        <pt x="121" y="267" on="0"/>
        <pt x="109" y="293" on="0"/>
        <pt x="109" y="308" on="1"/>
        <pt x="109" y="338" on="0"/>
        <pt x="152" y="391" on="0"/>
        <pt x="223" y="430" on="0"/>
        <pt x="314" y="452" on="0"/>
        <pt x="362" y="452" on="1"/>
        <pt x="373" y="452" on="0"/>
        <pt x="423" y="448" on="0"/>
        <pt x="457" y="435" on="1"/>
        <pt x="490" y="422" on="0"/>
        <pt x="514" y="402" on="0"/>
        <pt x="514" y="390" on="1"/>
        <pt x="514" y="379" on="0"/>
        <pt x="496" y="358" on="0"/>
        <pt x="482" y="358" on="1"/>
        <pt x="475" y="358" on="0"/>
        <pt x="469" y="361" on="0"/>
        <pt x="461" y="366" on="1"/>
        <pt x="425" y="387" on="0"/>
        <pt x="365" y="394" on="0"/>
        <pt x="351" y="394" on="1"/>
        <pt x="313" y="394" on="0"/>
        <pt x="239" y="382" on="0"/>
        <pt x="181" y="360" on="0"/>
        <pt x="146" y="329" on="0"/>
        <pt x="146" y="309" on="1"/>
        <pt x="146" y="278" on="0"/>
        <pt x="188" y="258" on="1"/>
        <pt x="224" y="272" on="0"/>
        <pt x="277" y="277" on="0"/>
        <pt x="297" y="277" on="1"/>
        <pt x="309" y="277" on="0"/>
        <pt x="339" y="276" on="0"/>
        <pt x="364" y="270" on="0"/>
        <pt x="381" y="257" on="0"/>
        <pt x="381" y="245" on="1"/>
        <pt x="381" y="230" on="0"/>
        <pt x="360" y="215" on="0"/>
        <pt x="330" y="207" on="0"/>
        <pt x="297" y="206" on="0"/>
        <pt x="285" y="206" on="1"/>
        <pt x="272" y="206" on="0"/>
        <pt x="217" y="210" on="0"/>
      </contour>
      <contour>
        <pt x="332" y="242" on="1"/>
        <pt x="322" y="244" on="0"/>
        <pt x="312" y="244" on="0"/>
        <pt x="296" y="244" on="1"/>
        <pt x="295" y="244" on="0"/>
        <pt x="281" y="244" on="0"/>
        <pt x="266" y="243" on="0"/>
        <pt x="254" y="242" on="0"/>
        <pt x="254" y="241" on="1"/>
        <pt x="254" y="240" on="0"/>
        <pt x="263" y="239" on="0"/>
        <pt x="275" y="239" on="0"/>
        <pt x="285" y="239" on="0"/>
        <pt x="286" y="239" on="1"/>
        <pt x="303" y="239" on="0"/>
        <pt x="323" y="240" on="0"/>
      </contour>
    </TTGlyph>
    <TTGlyph name="eta" xMin="61" yMin="-215" xMax="608" yMax="441">
      <contour>
        <pt x="491" y="-166" on="1"/>
        <pt x="490" y="-171" on="0"/>
        <pt x="485" y="-187" on="0"/>
        <pt x="474" y="-203" on="0"/>
        <pt x="456" y="-215" on="0"/>
        <pt x="442" y="-215" on="1"/>
        <pt x="422" y="-215" on="0"/>
        <pt x="406" y="-191" on="0"/>
        <pt x="406" y="-182" on="1"/>
        <pt x="406" y="-179" on="0"/>
        <pt x="407" y="-174" on="0"/>
        <pt x="409" y="-168" on="1"/>
        <pt x="523" y="288" on="1"/>
        <pt x="524" y="291" on="0"/>
        <pt x="529" y="321" on="0"/>
        <pt x="529" y="338" on="1"/>
        <pt x="529" y="345" on="0"/>
        <pt x="527" y="368" on="0"/>
        <pt x="515" y="391" on="0"/>
        <pt x="490" y="408" on="0"/>
        <pt x="466" y="408" on="1"/>
        <pt x="444" y="408" on="0"/>
        <pt x="385" y="390" on="0"/>
        <pt x="353" y="363" on="1"/>
        <pt x="339" y="350" on="0"/>
        <pt x="311" y="317" on="0"/>
        <pt x="288" y="282" on="0"/>
        <pt x="271" y="249" on="0"/>
        <pt x="268" y="235" on="1"/>
        <pt x="263" y="218" on="0"/>
        <pt x="256" y="188" on="0"/>
        <pt x="251" y="168" on="1"/>
        <pt x="229" y="78" on="1"/>
        <pt x="227" y="71" on="0"/>
        <pt x="222" y="51" on="0"/>
        <pt x="218" y="33" on="0"/>
        <pt x="214" y="19" on="0"/>
        <pt x="213" y="17" on="1"/>
        <pt x="207" y="6" on="0"/>
        <pt x="184" y="-10" on="0"/>
        <pt x="170" y="-10" on="1"/>
        <pt x="156" y="-10" on="0"/>
        <pt x="135" y="6" on="0"/>
        <pt x="135" y="23" on="1"/>
        <pt x="135" y="29" on="0"/>
        <pt x="145" y="74" on="0"/>
        <pt x="159" y="126" on="0"/>
        <pt x="171" y="173" on="0"/>
        <pt x="174" y="183" on="1"/>
        <pt x="176" y="191" on="0"/>
        <pt x="181" y="214" on="0"/>
        <pt x="187" y="238" on="0"/>
        <pt x="193" y="263" on="0"/>
        <pt x="196" y="273" on="1"/>
        <pt x="201" y="294" on="0"/>
        <pt x="213" y="345" on="0"/>
        <pt x="213" y="357" on="1"/>
        <pt x="213" y="361" on="0"/>
        <pt x="212" y="378" on="0"/>
        <pt x="205" y="395" on="0"/>
        <pt x="191" y="408" on="0"/>
        <pt x="177" y="408" on="1"/>
        <pt x="154" y="408" on="0"/>
        <pt x="117" y="359" on="0"/>
        <pt x="101" y="296" on="1"/>
        <pt x="97" y="284" on="0"/>
        <pt x="91" y="273" on="0"/>
        <pt x="79" y="273" on="1"/>
        <pt x="72" y="273" on="0"/>
        <pt x="61" y="280" on="0"/>
        <pt x="61" y="288" on="1"/>
        <pt x="61" y="290" on="0"/>
        <pt x="66" y="309" on="0"/>
        <pt x="75" y="337" on="0"/>
        <pt x="88" y="370" on="0"/>
        <pt x="97" y="386" on="1"/>
        <pt x="102" y="394" on="0"/>
        <pt x="116" y="414" on="0"/>
        <pt x="136" y="430" on="0"/>
        <pt x="163" y="441" on="0"/>
        <pt x="180" y="441" on="1"/>
        <pt x="198" y="441" on="0"/>
        <pt x="236" y="431" on="0"/>
        <pt x="269" y="409" on="0"/>
        <pt x="292" y="373" on="0"/>
        <pt x="294" y="347" on="1"/>
        <pt x="304" y="360" on="0"/>
        <pt x="336" y="392" on="0"/>
        <pt x="380" y="421" on="0"/>
        <pt x="436" y="441" on="0"/>
        <pt x="470" y="441" on="1"/>
        <pt x="531" y="441" on="0"/>
        <pt x="608" y="385" on="0"/>
        <pt x="608" y="325" on="1"/>
        <pt x="608" y="306" on="0"/>
        <pt x="605" y="286" on="0"/>
        <pt x="601" y="272" on="1"/>
      </contour>
    </TTGlyph>
    <TTGlyph name="f" xMin="87" yMin="-204" xMax="636" yMax="704">
      <contour>
        <pt x="369" y="50" on="1"/>
        <pt x="368" y="47" on="0"/>
        <pt x="360" y="4" on="0"/>
        <pt x="343" y="-53" on="0"/>
        <pt x="319" y="-115" on="0"/>
        <pt x="302" y="-137" on="1"/>
        <pt x="295" y="-145" on="0"/>
        <pt x="274" y="-168" on="0"/>
        <pt x="246" y="-189" on="0"/>
        <pt x="211" y="-204" on="0"/>
        <pt x="190" y="-204" on="1"/>
        <pt x="175" y="-204" on="0"/>
        <pt x="139" y="-197" on="0"/>
        <pt x="108" y="-180" on="0"/>
        <pt x="87" y="-152" on="0"/>
        <pt x="87" y="-131" on="1"/>
        <pt x="87" y="-102" on="0"/>
        <pt x="124" y="-70" on="0"/>
        <pt x="144" y="-70" on="1"/>
        <pt x="162" y="-70" on="0"/>
        <pt x="185" y="-92" on="0"/>
        <pt x="185" y="-108" on="1"/>
        <pt x="185" y="-126" on="0"/>
        <pt x="162" y="-156" on="0"/>
        <pt x="147" y="-162" on="1"/>
        <pt x="159" y="-167" on="0"/>
        <pt x="186" y="-171" on="0"/>
        <pt x="191" y="-171" on="1"/>
        <pt x="210" y="-171" on="0"/>
        <pt x="236" y="-145" on="0"/>
        <pt x="247" y="-127" on="1"/>
        <pt x="250" y="-121" on="0"/>
        <pt x="257" y="-105" on="0"/>
        <pt x="266" y="-66" on="0"/>
        <pt x="280" y="8" on="0"/>
        <pt x="292" y="72" on="1"/>
        <pt x="294" y="79" on="0"/>
        <pt x="301" y="117" on="0"/>
        <pt x="314" y="191" on="0"/>
        <pt x="334" y="307" on="0"/>
        <pt x="349" y="391" on="1"/>
        <pt x="271" y="391" on="1"/>
        <pt x="257" y="391" on="0"/>
        <pt x="240" y="395" on="0"/>
        <pt x="240" y="406" on="1"/>
        <pt x="240" y="425" on="0"/>
        <pt x="259" y="431" on="0"/>
        <pt x="274" y="431" on="1"/>
        <pt x="356" y="431" on="1"/>
        <pt x="361" y="453" on="0"/>
        <pt x="365" y="480" on="0"/>
        <pt x="369" y="502" on="1"/>
        <pt x="374" y="529" on="0"/>
        <pt x="381" y="564" on="0"/>
        <pt x="387" y="583" on="1"/>
        <pt x="398" y="621" on="0"/>
        <pt x="433" y="668" on="0"/>
        <pt x="473" y="694" on="0"/>
        <pt x="513" y="704" on="0"/>
        <pt x="530" y="704" on="1"/>
        <pt x="547" y="704" on="0"/>
        <pt x="584" y="697" on="0"/>
        <pt x="615" y="680" on="0"/>
        <pt x="636" y="652" on="0"/>
        <pt x="636" y="631" on="1"/>
        <pt x="636" y="602" on="0"/>
        <pt x="599" y="570" on="0"/>
        <pt x="579" y="570" on="1"/>
        <pt x="561" y="570" on="0"/>
        <pt x="538" y="592" on="0"/>
        <pt x="538" y="608" on="1"/>
        <pt x="538" y="626" on="0"/>
        <pt x="561" y="656" on="0"/>
        <pt x="576" y="662" on="1"/>
        <pt x="565" y="667" on="0"/>
        <pt x="542" y="671" on="0"/>
        <pt x="530" y="671" on="1"/>
        <pt x="503" y="671" on="0"/>
        <pt x="477" y="639" on="0"/>
        <pt x="472" y="615" on="1"/>
        <pt x="471" y="608" on="0"/>
        <pt x="468" y="595" on="0"/>
        <pt x="462" y="560" on="0"/>
        <pt x="449" y="493" on="0"/>
        <pt x="438" y="431" on="1"/>
        <pt x="536" y="431" on="1"/>
        <pt x="550" y="431" on="0"/>
        <pt x="567" y="427" on="0"/>
        <pt x="567" y="416" on="1"/>
        <pt x="567" y="397" on="0"/>
        <pt x="548" y="391" on="0"/>
        <pt x="533" y="391" on="1"/>
        <pt x="431" y="391" on="1"/>
      </contour>
    </TTGlyph>
    <TTGlyph name="fiveoldstyle" xMin="86" yMin="-215" xMax="552" yMax="452">
      <contour>
        <pt x="184" y="164" on="1"/>
        <pt x="219" y="193" on="0"/>
        <pt x="295" y="213" on="0"/>
        <pt x="331" y="213" on="1"/>
        <pt x="381" y="213" on="0"/>
        <pt x="462" y="177" on="0"/>
        <pt x="520" y="118" on="0"/>
        <pt x="552" y="42" on="0"/>
        <pt x="552" y="1" on="1"/>
        <pt x="552" y="-44" on="0"/>
        <pt x="512" y="-123" on="0"/>
        <pt x="443" y="-181" on="0"/>
        <pt x="351" y="-215" on="0"/>
        <pt x="299" y="-215" on="1"/>
        <pt x="253" y="-215" on="0"/>
        <pt x="174" y="-186" on="0"/>
        <pt x="118" y="-138" on="0"/>
        <pt x="86" y="-75" on="0"/>
        <pt x="86" y="-41" on="1"/>
        <pt x="86" y="-24" on="0"/>
        <pt x="98" y="-3" on="0"/>
        <pt x="115" y="9" on="0"/>
        <pt x="132" y="13" on="0"/>
        <pt x="136" y="13" on="1"/>
        <pt x="143" y="13" on="0"/>
        <pt x="161" y="8" on="0"/>
        <pt x="176" y="-4" on="0"/>
        <pt x="186" y="-23" on="0"/>
        <pt x="186" y="-37" on="1"/>
        <pt x="186" y="-58" on="0"/>
        <pt x="160" y="-86" on="0"/>
        <pt x="134" y="-88" on="1"/>
        <pt x="154" y="-131" on="0"/>
        <pt x="246" y="-178" on="0"/>
        <pt x="297" y="-178" on="1"/>
        <pt x="324" y="-178" on="0"/>
        <pt x="367" y="-165" on="0"/>
        <pt x="398" y="-147" on="0"/>
        <pt x="418" y="-127" on="0"/>
        <pt x="423" y="-121" on="1"/>
        <pt x="446" y="-89" on="0"/>
        <pt x="455" y="-19" on="0"/>
        <pt x="455" y="4" on="1"/>
        <pt x="455" y="35" on="0"/>
        <pt x="444" y="97" on="0"/>
        <pt x="416" y="148" on="0"/>
        <pt x="368" y="180" on="0"/>
        <pt x="330" y="180" on="1"/>
        <pt x="314" y="180" on="0"/>
        <pt x="276" y="175" on="0"/>
        <pt x="236" y="161" on="0"/>
        <pt x="197" y="136" on="0"/>
        <pt x="181" y="116" on="1"/>
        <pt x="176" y="109" on="0"/>
        <pt x="170" y="104" on="0"/>
        <pt x="162" y="104" on="1"/>
        <pt x="148" y="104" on="0"/>
        <pt x="144" y="119" on="0"/>
        <pt x="144" y="135" on="1"/>
        <pt x="144" y="422" on="1"/>
        <pt x="144" y="435" on="0"/>
        <pt x="147" y="452" on="0"/>
        <pt x="158" y="452" on="1"/>
        <pt x="160" y="452" on="0"/>
        <pt x="164" y="451" on="0"/>
        <pt x="169" y="449" on="1"/>
        <pt x="188" y="442" on="0"/>
        <pt x="268" y="421" on="0"/>
        <pt x="326" y="421" on="1"/>
        <pt x="356" y="421" on="0"/>
        <pt x="435" y="432" on="0"/>
        <pt x="479" y="448" on="1"/>
        <pt x="487" y="451" on="0"/>
        <pt x="491" y="452" on="0"/>
        <pt x="493" y="452" on="1"/>
        <pt x="495" y="452" on="0"/>
        <pt x="507" y="446" on="0"/>
        <pt x="507" y="435" on="1"/>
        <pt x="507" y="429" on="0"/>
        <pt x="490" y="410" on="0"/>
        <pt x="464" y="389" on="0"/>
        <pt x="433" y="369" on="0"/>
        <pt x="419" y="362" on="1"/>
        <pt x="374" y="340" on="0"/>
        <pt x="302" y="331" on="0"/>
        <pt x="288" y="331" on="1"/>
        <pt x="252" y="331" on="0"/>
        <pt x="193" y="342" on="0"/>
        <pt x="184" y="344" on="1"/>
      </contour>
    </TTGlyph>
    <TTGlyph name="fouroldstyle" xMin="60" yMin="-194" xMax="578" yMax="462">
      <contour>
        <pt x="459" y="40" on="1"/>
        <pt x="547" y="40" on="1"/>
        <pt x="564" y="40" on="0"/>
        <pt x="578" y="35" on="0"/>
        <pt x="578" y="20" on="1"/>
        <pt x="578" y="5" on="0"/>
        <pt x="564" y="0" on="0"/>
        <pt x="547" y="0" on="1"/>
        <pt x="459" y="0" on="1"/>
        <pt x="459" y="-111" on="1"/>
        <pt x="459" y="-136" on="0"/>
        <pt x="466" y="-148" on="0"/>
        <pt x="480" y="-150" on="1"/>
        <pt x="497" y="-153" on="0"/>
        <pt x="535" y="-154" on="0"/>
        <pt x="539" y="-154" on="1"/>
        <pt x="558" y="-154" on="0"/>
        <pt x="572" y="-159" on="0"/>
        <pt x="572" y="-174" on="1"/>
        <pt x="572" y="-182" on="0"/>
        <pt x="566" y="-194" on="0"/>
        <pt x="553" y="-194" on="1"/>
        <pt x="536" y="-194" on="0"/>
        <pt x="501" y="-191" on="0"/>
        <pt x="484" y="-191" on="1"/>
        <pt x="345" y="-191" on="1"/>
        <pt x="329" y="-191" on="0"/>
        <pt x="294" y="-194" on="0"/>
        <pt x="278" y="-194" on="1"/>
        <pt x="264" y="-194" on="0"/>
        <pt x="259" y="-182" on="0"/>
        <pt x="259" y="-174" on="1"/>
        <pt x="259" y="-159" on="0"/>
        <pt x="273" y="-154" on="0"/>
        <pt x="295" y="-154" on="1"/>
        <pt x="324" y="-154" on="0"/>
        <pt x="355" y="-151" on="0"/>
        <pt x="370" y="-142" on="0"/>
        <pt x="372" y="-125" on="0"/>
        <pt x="372" y="-111" on="1"/>
        <pt x="372" y="0" on="1"/>
        <pt x="92" y="0" on="1"/>
        <pt x="73" y="0" on="0"/>
        <pt x="60" y="6" on="0"/>
        <pt x="60" y="25" on="1"/>
        <pt x="60" y="36" on="0"/>
        <pt x="62" y="44" on="0"/>
        <pt x="70" y="52" on="1"/>
        <pt x="401" y="446" on="1"/>
        <pt x="411" y="457" on="0"/>
        <pt x="419" y="462" on="0"/>
        <pt x="433" y="462" on="1"/>
        <pt x="453" y="462" on="0"/>
        <pt x="459" y="451" on="0"/>
        <pt x="459" y="431" on="1"/>
      </contour>
      <contour>
        <pt x="105" y="40" on="1"/>
        <pt x="379" y="40" on="1"/>
        <pt x="379" y="367" on="1"/>
      </contour>
    </TTGlyph>
    <TTGlyph name="g" xMin="62" yMin="-204" xMax="571" yMax="441">
      <contour>
        <pt x="460" y="-62" on="1"/>
        <pt x="443" y="-131" on="0"/>
        <pt x="309" y="-204" on="0"/>
        <pt x="211" y="-204" on="1"/>
        <pt x="191" y="-204" on="0"/>
        <pt x="139" y="-202" on="0"/>
        <pt x="93" y="-190" on="0"/>
        <pt x="62" y="-165" on="0"/>
        <pt x="62" y="-141" on="1"/>
        <pt x="62" y="-116" on="0"/>
        <pt x="96" y="-80" on="0"/>
        <pt x="120" y="-80" on="1"/>
        <pt x="125" y="-80" on="0"/>
        <pt x="139" y="-83" on="0"/>
        <pt x="151" y="-92" on="0"/>
        <pt x="160" y="-107" on="0"/>
        <pt x="160" y="-119" on="1"/>
        <pt x="160" y="-127" on="0"/>
        <pt x="151" y="-154" on="0"/>
        <pt x="134" y="-165" on="1"/>
        <pt x="148" y="-168" on="0"/>
        <pt x="177" y="-171" on="0"/>
        <pt x="210" y="-171" on="1"/>
        <pt x="233" y="-171" on="0"/>
        <pt x="291" y="-162" on="0"/>
        <pt x="326" y="-136" on="1"/>
        <pt x="341" y="-124" on="0"/>
        <pt x="361" y="-102" on="0"/>
        <pt x="373" y="-78" on="0"/>
        <pt x="381" y="-51" on="0"/>
        <pt x="385" y="-36" on="1"/>
        <pt x="407" y="54" on="1"/>
        <pt x="382" y="33" on="0"/>
        <pt x="314" y="0" on="0"/>
        <pt x="275" y="0" on="1"/>
        <pt x="240" y="0" on="0"/>
        <pt x="180" y="25" on="0"/>
        <pt x="137" y="69" on="0"/>
        <pt x="112" y="131" on="0"/>
        <pt x="112" y="168" on="1"/>
        <pt x="112" y="219" on="0"/>
        <pt x="157" y="317" on="0"/>
        <pt x="232" y="394" on="0"/>
        <pt x="328" y="441" on="0"/>
        <pt x="378" y="441" on="1"/>
        <pt x="403" y="441" on="0"/>
        <pt x="441" y="427" on="0"/>
        <pt x="468" y="408" on="0"/>
        <pt x="485" y="388" on="0"/>
        <pt x="489" y="382" on="1"/>
        <pt x="494" y="403" on="0"/>
        <pt x="523" y="422" on="0"/>
        <pt x="536" y="422" on="1"/>
        <pt x="550" y="422" on="0"/>
        <pt x="571" y="406" on="0"/>
        <pt x="571" y="389" on="1"/>
        <pt x="571" y="387" on="0"/>
        <pt x="570" y="377" on="0"/>
        <pt x="567" y="365" on="1"/>
      </contour>
      <contour>
        <pt x="471" y="308" on="1"/>
        <pt x="472" y="312" on="0"/>
        <pt x="474" y="320" on="0"/>
        <pt x="474" y="324" on="1"/>
        <pt x="474" y="328" on="0"/>
        <pt x="465" y="355" on="0"/>
        <pt x="443" y="385" on="0"/>
        <pt x="406" y="408" on="0"/>
        <pt x="378" y="408" on="1"/>
        <pt x="349" y="408" on="0"/>
        <pt x="280" y="369" on="0"/>
        <pt x="252" y="324" on="1"/>
        <pt x="240" y="305" on="0"/>
        <pt x="221" y="252" on="0"/>
        <pt x="206" y="197" on="0"/>
        <pt x="198" y="147" on="0"/>
        <pt x="198" y="130" on="1"/>
        <pt x="198" y="102" on="0"/>
        <pt x="213" y="65" on="0"/>
        <pt x="236" y="43" on="0"/>
        <pt x="264" y="33" on="0"/>
        <pt x="278" y="33" on="1"/>
        <pt x="312" y="33" on="0"/>
        <pt x="382" y="72" on="0"/>
        <pt x="409" y="104" on="1"/>
        <pt x="420" y="116" on="0"/>
        <pt x="424" y="126" on="0"/>
        <pt x="428" y="139" on="1"/>
      </contour>
    </TTGlyph>
    <TTGlyph name="gamma" xMin="46" yMin="-215" xMax="652" yMax="441">
      <contour>
        <pt x="484" y="141" on="1"/>
        <pt x="504" y="195" on="0"/>
        <pt x="550" y="296" on="0"/>
        <pt x="590" y="375" on="0"/>
        <pt x="618" y="425" on="0"/>
        <pt x="619" y="426" on="1"/>
        <pt x="622" y="430" on="0"/>
        <pt x="631" y="431" on="0"/>
        <pt x="634" y="431" on="1"/>
        <pt x="641" y="431" on="0"/>
        <pt x="652" y="425" on="0"/>
        <pt x="652" y="417" on="1"/>
        <pt x="652" y="415" on="0"/>
        <pt x="648" y="406" on="0"/>
        <pt x="637" y="387" on="1"/>
        <pt x="606" y="330" on="0"/>
        <pt x="550" y="210" on="0"/>
        <pt x="508" y="107" on="0"/>
        <pt x="483" y="31" on="0"/>
        <pt x="481" y="17" on="1"/>
        <pt x="477" y="-16" on="0"/>
        <pt x="465" y="-78" on="0"/>
        <pt x="453" y="-127" on="0"/>
        <pt x="444" y="-158" on="0"/>
        <pt x="444" y="-159" on="1"/>
        <pt x="438" y="-179" on="0"/>
        <pt x="422" y="-215" on="0"/>
        <pt x="408" y="-215" on="1"/>
        <pt x="396" y="-215" on="0"/>
        <pt x="389" y="-195" on="0"/>
        <pt x="389" y="-190" on="1"/>
        <pt x="389" y="-180" on="0"/>
        <pt x="398" y="-134" on="0"/>
        <pt x="413" y="-75" on="0"/>
        <pt x="431" y="-9" on="0"/>
        <pt x="441" y="23" on="1"/>
        <pt x="446" y="37" on="0"/>
        <pt x="448" y="71" on="0"/>
        <pt x="448" y="89" on="1"/>
        <pt x="448" y="136" on="0"/>
        <pt x="432" y="232" on="0"/>
        <pt x="389" y="309" on="0"/>
        <pt x="313" y="358" on="0"/>
        <pt x="253" y="358" on="1"/>
        <pt x="226" y="358" on="0"/>
        <pt x="173" y="347" on="0"/>
        <pt x="127" y="324" on="0"/>
        <pt x="92" y="289" on="0"/>
        <pt x="84" y="266" on="1"/>
        <pt x="80" y="256" on="0"/>
        <pt x="75" y="249" on="0"/>
        <pt x="64" y="249" on="1"/>
        <pt x="61" y="249" on="0"/>
        <pt x="46" y="252" on="0"/>
        <pt x="46" y="263" on="1"/>
        <pt x="46" y="278" on="0"/>
        <pt x="76" y="338" on="0"/>
        <pt x="133" y="397" on="0"/>
        <pt x="215" y="441" on="0"/>
        <pt x="267" y="441" on="1"/>
        <pt x="324" y="441" on="0"/>
        <pt x="403" y="376" on="0"/>
        <pt x="454" y="282" on="0"/>
        <pt x="480" y="179" on="0"/>
      </contour>
    </TTGlyph>
    <TTGlyph name="greater" xMin="125" yMin="-89" xMax="837" yMax="589">
      <contour>
        <pt x="170" y="-83" on="1"/>
        <pt x="161" y="-88" on="0"/>
        <pt x="153" y="-89" on="0"/>
        <pt x="151" y="-89" on="1"/>
        <pt x="140" y="-89" on="0"/>
        <pt x="125" y="-74" on="0"/>
        <pt x="125" y="-63" on="1"/>
        <pt x="125" y="-51" on="0"/>
        <pt x="139" y="-40" on="0"/>
        <pt x="150" y="-35" on="1"/>
        <pt x="750" y="250" on="1"/>
        <pt x="148" y="535" on="1"/>
        <pt x="125" y="546" on="0"/>
        <pt x="125" y="563" on="1"/>
        <pt x="125" y="574" on="0"/>
        <pt x="140" y="589" on="0"/>
        <pt x="151" y="589" on="1"/>
        <pt x="152" y="589" on="0"/>
        <pt x="162" y="587" on="0"/>
        <pt x="173" y="582" on="1"/>
        <pt x="814" y="278" on="1"/>
        <pt x="837" y="267" on="0"/>
        <pt x="837" y="250" on="1"/>
        <pt x="837" y="238" on="0"/>
        <pt x="823" y="227" on="0"/>
        <pt x="812" y="222" on="1"/>
      </contour>
    </TTGlyph>
    <TTGlyph name="h" xMin="92" yMin="-10" xMax="664" yMax="694">
      <contour>
        <pt x="255" y="353" on="1"/>
        <pt x="285" y="387" on="0"/>
        <pt x="368" y="441" on="0"/>
        <pt x="427" y="441" on="1"/>
        <pt x="488" y="441" on="0"/>
        <pt x="565" y="385" on="0"/>
        <pt x="565" y="325" on="1"/>
        <pt x="565" y="304" on="0"/>
        <pt x="550" y="245" on="0"/>
        <pt x="531" y="185" on="0"/>
        <pt x="511" y="132" on="0"/>
        <pt x="505" y="117" on="1"/>
        <pt x="498" y="101" on="0"/>
        <pt x="489" y="74" on="0"/>
        <pt x="489" y="59" on="1"/>
        <pt x="489" y="43" on="0"/>
        <pt x="502" y="23" on="0"/>
        <pt x="516" y="23" on="1"/>
        <pt x="535" y="23" on="0"/>
        <pt x="569" y="43" on="0"/>
        <pt x="597" y="75" on="0"/>
        <pt x="618" y="115" on="0"/>
        <pt x="624" y="134" on="1"/>
        <pt x="629" y="148" on="0"/>
        <pt x="634" y="158" on="0"/>
        <pt x="645" y="158" on="1"/>
        <pt x="659" y="158" on="0"/>
        <pt x="664" y="146" on="0"/>
        <pt x="664" y="144" on="1"/>
        <pt x="664" y="136" on="0"/>
        <pt x="645" y="86" on="0"/>
        <pt x="608" y="32" on="0"/>
        <pt x="551" y="-10" on="0"/>
        <pt x="513" y="-10" on="1"/>
        <pt x="492" y="-10" on="0"/>
        <pt x="456" y="3" on="0"/>
        <pt x="428" y="26" on="0"/>
        <pt x="412" y="58" on="0"/>
        <pt x="412" y="77" on="1"/>
        <pt x="412" y="90" on="0"/>
        <pt x="420" y="114" on="0"/>
        <pt x="425" y="127" on="1"/>
        <pt x="432" y="144" on="0"/>
        <pt x="453" y="198" on="0"/>
        <pt x="472" y="257" on="0"/>
        <pt x="486" y="316" on="0"/>
        <pt x="486" y="338" on="1"/>
        <pt x="486" y="345" on="0"/>
        <pt x="484" y="368" on="0"/>
        <pt x="472" y="391" on="0"/>
        <pt x="447" y="408" on="0"/>
        <pt x="423" y="408" on="1"/>
        <pt x="394" y="408" on="0"/>
        <pt x="346" y="389" on="0"/>
        <pt x="305" y="360" on="0"/>
        <pt x="273" y="323" on="0"/>
        <pt x="261" y="305" on="1"/>
        <pt x="240" y="274" on="0"/>
        <pt x="227" y="242" on="0"/>
        <pt x="224" y="231" on="1"/>
        <pt x="220" y="214" on="0"/>
        <pt x="212" y="184" on="0"/>
        <pt x="207" y="164" on="1"/>
        <pt x="205" y="155" on="0"/>
        <pt x="199" y="130" on="0"/>
        <pt x="193" y="104" on="0"/>
        <pt x="187" y="81" on="0"/>
        <pt x="185" y="74" on="1"/>
        <pt x="183" y="66" on="0"/>
        <pt x="178" y="47" on="0"/>
        <pt x="173" y="29" on="0"/>
        <pt x="169" y="16" on="0"/>
        <pt x="168" y="13" on="1"/>
        <pt x="158" y="-1" on="0"/>
        <pt x="135" y="-10" on="0"/>
        <pt x="127" y="-10" on="1"/>
        <pt x="116" y="-10" on="0"/>
        <pt x="92" y="5" on="0"/>
        <pt x="92" y="24" on="1"/>
        <pt x="92" y="26" on="0"/>
        <pt x="93" y="35" on="0"/>
        <pt x="96" y="47" on="1"/>
        <pt x="236" y="606" on="1"/>
        <pt x="239" y="618" on="0"/>
        <pt x="240" y="627" on="0"/>
        <pt x="240" y="636" on="1"/>
        <pt x="230" y="640" on="0"/>
        <pt x="213" y="643" on="0"/>
        <pt x="190" y="643" on="1"/>
        <pt x="179" y="643" on="0"/>
        <pt x="162" y="647" on="0"/>
        <pt x="162" y="659" on="1"/>
        <pt x="162" y="676" on="0"/>
        <pt x="179" y="683" on="0"/>
        <pt x="192" y="684" on="1"/>
        <pt x="304" y="693" on="1"/>
        <pt x="313" y="694" on="0"/>
        <pt x="336" y="691" on="0"/>
        <pt x="336" y="679" on="1"/>
        <pt x="336" y="675" on="0"/>
        <pt x="334" y="667" on="0"/>
        <pt x="333" y="664" on="1"/>
      </contour>
    </TTGlyph>
</ttFont>
